<svg version="1.1" xmlns="http://www.w3.org/2000/svg" xmlns:xlink="http://www.w3.org/1999/xlink" width="110.31806" height="168.95885" viewBox="0,0,110.31806,168.95885"><g transform="translate(-181.84397,-95.57924)"><g data-paper-data="{&quot;isPaintingLayer&quot;:true}" fill-rule="nonzero" stroke="#000000" stroke-linecap="butt" stroke-linejoin="miter" stroke-miterlimit="10" stroke-dasharray="" stroke-dashoffset="0" style="mix-blend-mode: normal"><g data-paper-data="{&quot;index&quot;:null}" stroke-width="2"><path d="M237.08558,204.41672c-0.13016,0.96058 -13.68821,4.81316 -15.41857,3.37846c-4.41875,-3.66366 -5.4418,-14.09812 -5.64644,-15.39083c-0.83857,-5.29705 16.55417,-7.47774 17.39274,-2.18068c0.21509,1.35866 4.36954,9.0482 3.67228,14.19305z" fill="#8a9e8d"/><path d="M233.56809,189.79475c0.1677,0.46355 -16.45439,4.35191 -17.46994,1.81246c-2.58488,-6.46364 1.67166,-28.27923 5.41211,-38.50751c1.09627,-2.99782 3.55312,-4.81782 4.48357,-4.9366c4.71537,-0.60193 7.13773,3.06558 7.13773,3.06558c0,0 -1.746,32.53332 0.43655,38.56607z" fill="#89623d"/></g><path d="M233.97129,241.79215c0,0 -1.49845,-6.40714 -1.5394,-9.50966c-0.03681,-2.78794 1.30479,-8.26281 1.30479,-8.26281l9.45467,-0.0633c0,0 -0.63977,5.81075 -0.21233,8.29135c0.58101,3.37173 3.35053,10.34518 3.35053,10.34518z" fill="#8a9e8d" stroke-width="2"/><path d="M222.63293,210.0624c-0.49823,-0.79292 -2.58009,7.35473 -6.22518,14.10562c-3.11609,5.77108 -9.47669,12.20586 -10.05585,12.2785c-2.89955,0.36381 -18.35296,-8.40014 -18.03676,-8.98529c1.52855,-2.82862 5.87623,-6.359 9.45069,-10.80837c0.12356,-0.1538 3.28938,0.85051 4.27288,-0.17062c0.47769,-0.49598 -1.50774,-2.94828 -0.87094,-3.40838c1.58261,-1.14342 6.70465,-0.50243 6.98663,-1.01671c1.11204,-2.02826 -4.07403,-5.83531 -3.44307,-7.1288c3.60101,-7.38205 5.75057,-13.76724 5.75057,-13.76724l43.33997,17.86253l-5.10946,23.17856l-5.77015,-3.67139l-4.56212,2.43479l-8.20038,-4.94251l4.59547,-9.41986c0,0 -3.4432,-0.77137 -6.68087,-2.31503c-0.85215,-0.4063 -0.13324,-2.61617 -0.89092,-3.12822c-1.31409,-0.88806 -3.95667,-0.15253 -4.55047,-1.09757z" fill="#757ad6" stroke-width="2"/><path d="M207.55599,247.53921c-1.87461,4.41046 -26.48482,-6.0498 -24.61021,-10.46026c0.13818,-0.32509 2.97594,-9.34054 4.48531,-8.98804c3.91442,0.91422 12.98789,3.03401 18.10103,8.20418c3.96717,4.01141 2.41872,10.31507 2.02385,11.24411z" fill="#5c422a" stroke-width="2"/><path d="M229.87719,247.5331c0,0 1.86083,-3.60773 2.05502,-5.15556c0.21273,-1.69558 -1.12414,-6.00554 -1.12414,-6.00554l6.10093,1.96232l4.86254,-1.32101l4.86353,2.26746l3.78559,-0.2226c0,0 1.34191,4.26975 1.17986,5.56141c-0.22532,1.79597 -1.85182,5.4066 -1.85182,5.4066z" fill="#757ad6" stroke-width="2"/><path d="M227.90221,246.39833c8.38955,-2.26988 19.03833,0.9916 23.63214,2.39888c1.77135,0.54265 -0.71338,11.56286 -0.76594,11.98177c-0.71304,5.68339 -32.42631,1.70463 -31.71327,-3.97876c0.1502,-1.19716 2.3378,-8.64075 8.84703,-10.40189z" data-paper-data="{&quot;index&quot;:null}" fill="#5c422a" stroke-width="2"/><g stroke-width="2"><path d="M223.99868,196.9868c0,0 8.31178,-11.67503 10.57796,-18.84976c2.40236,-7.60588 3.45154,-25.56757 3.45154,-25.56757l14.18943,6.03104c0,0 -1.11136,17.28009 -3.41793,24.80918c-2.24371,7.32391 -10.23818,19.76682 -10.23818,19.76682z" fill="#ffffff"/><path d="M238.16807,203.79911c2.72084,-4.72308 8.77469,-14.47166 10.49721,-19.95565c2.51441,-8.00507 2.88108,-26.57604 2.88108,-26.57604l13.60496,0.14552c0,0 3.33976,16.04997 -0.11084,28.8682c-2.25204,8.36587 -9.23554,20.75428 -11.23849,25.33367c-0.55545,1.26999 -16.70394,-5.95824 -15.63393,-7.81572z" data-paper-data="{&quot;index&quot;:null}" fill="#89623d"/><path d="M209.16732,191.85345c2.12543,-4.79095 7.0414,-12.46047 10.68522,-21.38422c4.69798,-11.50541 13.15288,-22.67832 13.15288,-22.67832l7.70197,6.77296c0,0 -2.01368,17.49161 -4.49204,24.28732c-2.16064,5.92452 -7.91329,15.73502 -10.21604,20.15487c-0.69105,1.32636 -17.21933,-6.27961 -16.83203,-7.15259z" fill="#89623d"/></g><g><path d="M229.30036,183.60242c2.32903,-5.7377 9.28269,-15.18743 11.95725,-19.11854c0.89547,-1.31616 5.64521,0.43404 5.70979,2.12007c0.19278,5.03367 -1.82873,16.34488 -3.98777,22.15226c-0.18093,0.48667 -8.81248,9.26221 -11.0783,8.22484c-1.90893,-0.87399 -2.71219,-13.10461 -2.60097,-13.37862z" fill="#ff0000" stroke-width="1"/><path d="M252.81687,164.44486c0,0 -4.41562,4.1835 -9.08941,1.93345c-4.47082,-2.15233 -5.15721,-7.98879 -5.15721,-7.98879z" fill="#ff0000" stroke-width="1"/><path d="M232.72473,175.15669l0.89269,-1.43694l12.11854,7.66528l-0.43506,1.80711z" fill="#ffffff" stroke-width="0"/><path d="M236.4444,169.78655l1.03276,-1.49451l9.53151,6.27294l-0.29581,1.74922z" fill="#ffffff" stroke-width="0"/><path d="M229.07413,181.50977l0.8648,-1.68301l14.27376,8.63989c0,0 -0.14956,0.54652 -0.27613,0.78883c-0.13937,0.26677 -0.52544,0.74542 -0.52544,0.74542z" fill="#ffffff" stroke-width="0"/><path d="M229.08569,190.00493l-0.1947,-2.25045l9.33786,6.54195l-1.38276,1.22865z" fill="#ffffff" stroke-width="0"/></g><g stroke-width="2"><path d="M267.85251,203.0366c-0.824,-5.75726 17.89674,-9.05648 18.72078,-3.29922c0.20109,1.40503 2.47601,12.54503 -0.93211,17.75393c-1.33461,2.03981 -16.61591,2.3808 -17.05782,1.42698c-2.36694,-5.10865 -0.51949,-14.40498 -0.73084,-15.88169z" fill="#8a9e8d"/><path d="M255.68109,162.53681c0,0 1.33805,-4.57483 6.41689,-5.45816c1.00216,-0.17428 4.12983,0.9265 6.22405,3.68268c7.14526,9.40385 18.52883,30.65043 17.91606,38.17478c-0.24075,2.95618 -18.70867,4.23942 -18.68305,3.70546c0.33356,-6.94922 -11.87398,-40.10478 -11.87398,-40.10478z" fill="#89623d"/></g><g><g><path d="M226.12252,136.07146l6.5027,-16.00296l26.92635,17.5896l-9.88032,16.99099z" fill="#693939" stroke-width="0"/><path d="M227.1974,126.60111l4.77958,-5.58145l5.69261,3.40201l-2.33113,7.04468z" fill="#faffe0" stroke-width="1.125"/><path d="M241.18309,130.33604l1.94527,-4.78721l4.6484,3.44135l-2.09053,4.67968z" fill="#faffe0" stroke-width="1.125"/><path d="M246.84673,136.97544l2.7505,-3.74624l6.45786,4.33611l-4.70524,2.74393z" data-paper-data="{&quot;index&quot;:null}" fill="#faffe0" stroke-width="1.125"/><path d="M241.09309,146.94978l3.14841,-6.12051l6.45786,4.33612l-4.52209,5.54836z" fill="#faffe0" stroke-width="1.125"/><path d="M231.03292,138.3899l1.16816,-3.14959l5.41346,3.79647l-2.25712,2.55468z" fill="#faffe0" stroke-width="1.125"/><path d="M227.23151,116.20881c8.80287,-24.08314 35.07348,-23.2745 50.09183,-12.15595c15.01833,11.11854 18.32669,32.20808 7.38944,47.10484c-10.93726,14.89674 -31.97843,17.95958 -46.99677,6.84104c-7.06189,-5.22815 -11.74784,-14.01976 -13.36781,-21.97673c-0.70053,-3.44085 25.04875,15.28161 25.49532,15.44141c0.37474,0.13408 8.01859,-8.29451 5.52211,-12.61177c-6.27358,-10.84921 -29.35656,-19.29833 -28.13405,-22.64285z" fill="#8a9e8d" stroke-width="2"/></g><g><path d="M257.008,118.81438c3.82279,-5.20669 11.30006,-6.18624 16.70092,-2.1878c5.40085,3.99843 6.68014,11.46065 2.85734,16.66736c-3.82279,5.20669 -11.30007,6.18625 -16.70092,2.18782c-5.40085,-3.99843 -6.68012,-11.46068 -2.85732,-16.66737z" fill="#fdfff3" stroke-width="2"/><path d="M268.92671,124.65728c0.79707,-1.08561 2.35612,-1.28986 3.48223,-0.45616c1.12611,0.8337 1.39281,2.38957 0.59575,3.4752c-0.79706,1.08562 -2.35609,1.28988 -3.4822,0.4562c-1.12612,-0.83369 -1.39282,-2.3896 -0.59577,-3.47524z" fill="#000000" stroke-width="0"/></g><g><path d="M226.64641,100.76565c3.04964,-4.15368 9.0146,-4.93511 13.32317,-1.74534c4.30855,3.18979 5.3291,9.14278 2.27945,13.29644c-3.04964,4.15368 -9.01465,4.93509 -13.32318,1.74533c-4.30855,-3.18979 -5.32909,-9.14274 -2.27945,-13.29642z" fill="#fdfff3" stroke-width="2"/><path d="M231.58237,103.18309c0.79706,-1.08562 2.35612,-1.28985 3.48223,-0.45616c1.12611,0.83369 1.39281,2.38959 0.59574,3.47519c-0.79706,1.08562 -2.35609,1.28984 -3.48219,0.45617c-1.12611,-0.83369 -1.39285,-2.38957 -0.59579,-3.47522z" fill="#000000" stroke-width="0"/></g></g></g></g></svg>