<svg version="1.1" xmlns="http://www.w3.org/2000/svg" xmlns:xlink="http://www.w3.org/1999/xlink" width="47.74061" height="48.59291" viewBox="0,0,47.74061,48.59291"><g transform="translate(-216.18726,-161.78677)"><g data-paper-data="{&quot;isPaintingLayer&quot;:true}" fill-rule="nonzero" stroke="#000000" stroke-width="0.5" stroke-linejoin="miter" stroke-miterlimit="10" stroke-dasharray="" stroke-dashoffset="0" style="mix-blend-mode: normal"><path d="M237.10572,205.71703v-25.20887h4.40543v25.20887z" fill="#00c902" stroke-linecap="butt"/><path d="M228.13915,208.8164c-5.55155,-2.0855 -9.24915,-5.9132 -8.25883,-8.54941c0.99033,-2.63621 6.29356,-3.08265 11.8451,-0.99715c5.55155,2.0855 9.24915,5.91321 8.25883,8.54941c-0.99033,2.63621 -6.29356,3.08265 -11.8451,0.99714z" data-paper-data="{&quot;index&quot;:null}" fill="#00c902" stroke-linecap="butt"/><path d="M240.13172,207.29557c-0.99033,-2.63621 2.70728,-6.46391 8.25883,-8.54941c5.55155,-2.0855 10.85478,-1.63906 11.8451,0.99715c0.99033,2.63621 -2.70728,6.46391 -8.25883,8.54941c-5.55155,2.0855 -10.85478,1.63907 -11.8451,-0.99714z" data-paper-data="{&quot;index&quot;:null}" fill="#00c902" stroke-linecap="butt"/><g><path d="M218.28298,177.3741c0,0 4.90711,-3.78875 7.61478,-3.38785c2.70767,0.4009 4.60174,2.75831 4.23054,5.26541c-0.37121,2.50709 -2.86713,4.2145 -5.57479,3.8136c-2.70767,-0.4009 -6.27052,-5.69115 -6.27052,-5.69115z" data-paper-data="{&quot;index&quot;:null}" fill="#fffc00" stroke-linecap="butt"/><path d="M222.37882,197.66661c0,0 0.48,-6.18094 2.59311,-7.92074c2.11312,-1.7398 5.13206,-1.56407 6.74299,0.39253c1.61094,1.95659 1.20382,4.95312 -0.90931,6.69291c-2.11312,1.7398 -8.42681,0.83529 -8.42681,0.83529z" data-paper-data="{&quot;index&quot;:null}" fill="#fffc00" stroke-linecap="butt"/><path d="M217.52564,187.49085c0,0 3.148,-5.34084 5.81077,-5.97473c2.66278,-0.6339 5.29718,0.85096 5.88411,3.31648c0.58694,2.46553 -1.09587,4.97811 -3.75864,5.61199c-2.66278,0.6339 -7.93625,-2.95375 -7.93625,-2.95375z" data-paper-data="{&quot;index&quot;:null}" fill="#fffc00" stroke-linecap="butt"/><path d="M262.14044,189.52237c0,0 -5.15517,3.44363 -7.829,2.85815c-2.67383,-0.58548 -4.40194,-3.06711 -3.85983,-5.5429c0.54212,-2.47577 3.14916,-4.00815 5.82299,-3.42268c2.67383,0.58548 5.86584,6.10741 5.86584,6.10741z" data-paper-data="{&quot;index&quot;:null}" fill="#fffc00" stroke-linecap="butt"/><path d="M259.44459,168.99693c0,0 -0.90236,6.13353 -3.12972,7.72446c-2.22736,1.59093 -5.22716,1.20875 -6.70025,-0.85362c-1.47308,-2.06237 -0.86162,-5.02396 1.36573,-6.61488c2.22736,-1.59093 8.46423,-0.25595 8.46423,-0.25595z" data-paper-data="{&quot;index&quot;:null}" fill="#fffc00" stroke-linecap="butt"/><path d="M263.58917,179.4813c0,0 -3.50653,5.11259 -6.20647,5.56255c-2.69995,0.44996 -5.22643,-1.21189 -5.64306,-3.71184c-0.41662,-2.49996 1.43438,-4.89133 4.13432,-5.34128c2.69995,-0.44996 7.71521,3.49057 7.71521,3.49057z" data-paper-data="{&quot;index&quot;:null}" fill="#fffc00" stroke-linecap="butt"/><path d="M233.66859,203.1064c0,0 -3.46529,-5.14064 -2.89108,-7.8169c0.57422,-2.67627 3.04856,-4.41481 5.5266,-3.88313c2.47804,0.53168 4.02138,3.13225 3.44715,5.80854c-0.57422,2.67627 -6.08268,5.89151 -6.08268,5.89151z" data-paper-data="{&quot;index&quot;:null}" fill="#fffc00" stroke-linecap="butt"/><path d="M254.18252,200.32416c0,0 -6.13727,-0.87654 -7.73757,-3.09718c-1.60029,-2.22064 -1.23074,-5.22203 0.8254,-6.70378c2.05616,-1.48175 5.02028,-0.88276 6.62057,1.33789c1.60029,2.22064 0.29158,8.46308 0.29158,8.46308z" data-paper-data="{&quot;index&quot;:null}" fill="#fffc00" stroke-linecap="butt"/><path d="M243.71569,204.51283c0,0 -5.12731,-3.48498 -5.58864,-6.18302c-0.46131,-2.69802 1.18988,-5.23148 3.68806,-5.65863c2.49817,-0.42714 4.89732,1.41378 5.35864,4.1118c0.46131,2.69802 -3.45807,7.72985 -3.45807,7.72985z" data-paper-data="{&quot;index&quot;:null}" fill="#fffc00" stroke-linecap="butt"/><path d="M234.98397,170.32426c1.4308,2.33344 0.83919,5.29905 -1.32142,6.62387c-2.16061,1.32481 -5.07201,0.50714 -6.50281,-1.8263c-1.4308,-2.33344 0.12966,-8.33341 0.12966,-8.33341c0,0 6.26379,1.20238 7.69459,3.53583z" fill="#fffc00" stroke-linecap="butt"/><path d="M250.09919,170.67597c-0.77157,2.62619 -3.36829,4.17599 -5.79995,3.46158c-2.43166,-0.71441 -3.77743,-3.42251 -3.00586,-6.0487c0.77157,-2.62619 6.26896,-5.49205 6.26896,-5.49205c0,0 3.30842,5.45298 2.53685,8.07918z" fill="#fffc00" stroke-linecap="butt"/><path d="M242.12828,168.26548c0.46131,2.69802 -1.18988,5.23148 -3.68806,5.65863c-2.49817,0.42714 -4.89732,-1.41378 -5.35863,-4.1118c-0.46131,-2.69802 3.21683,-7.6886 3.21683,-7.6886c0,0 5.36856,3.44373 5.82988,6.14177z" fill="#fffc00" stroke-linecap="butt"/><path d="M255.30551,181.3863c1.11628,6.52857 -4.90359,12.26014 -12.6979,13.59283c-7.79431,1.33269 -15.3765,-2.07317 -16.49278,-8.60173c-1.11628,-6.52857 4.67673,-13.58698 12.47103,-14.91968c7.79431,-1.33269 15.60337,3.40001 16.71965,9.92858z" fill="#efa900" stroke-linecap="butt"/><path d="M250.84277,185.83234c0,0 -6.09863,4.64308 -9.5342,5.23051c-3.31499,0.56681 -10.73041,-1.76561 -10.73041,-1.76561" fill="none" stroke-linecap="round"/><g data-paper-data="{&quot;index&quot;:null}" stroke-linecap="butt"><path d="M235.40384,177.60358c1.48746,-0.25433 2.96688,1.13955 3.30436,3.1133c0.33748,1.97376 -0.59477,3.77999 -2.08225,4.03431c-1.48746,0.25433 -2.96688,-1.13955 -3.30436,-3.1133c-0.33748,-1.97376 0.59477,-3.77999 2.08225,-4.03431z" fill="#000000"/><path d="M236.17803,177.97295c0.8367,-0.14306 1.66886,0.64099 1.85869,1.75124c0.18983,1.11024 -0.33456,2.12624 -1.17125,2.26931c-0.8367,0.14306 -1.66887,-0.64099 -1.8587,-1.75123c-0.18983,-1.11024 0.33456,-2.12624 1.17126,-2.2693z" fill="#ffffff"/></g><g data-paper-data="{&quot;index&quot;:null}" stroke-linecap="butt"><path d="M243.13399,176.07887c1.48746,-0.25433 2.96689,1.13954 3.30437,3.1133c0.33748,1.97376 -0.59477,3.77999 -2.08225,4.03431c-1.48746,0.25433 -2.96688,-1.13955 -3.30436,-3.1133c-0.33748,-1.97376 0.59477,-3.77998 2.08224,-4.03431z" fill="#000000"/><path d="M243.90818,176.44824c0.8367,-0.14306 1.66886,0.64099 1.85869,1.75123c0.18983,1.11024 -0.33456,2.12624 -1.17125,2.26931c-0.8367,0.14306 -1.66887,-0.64099 -1.85871,-1.75123c-0.18983,-1.11024 0.33456,-2.12624 1.17126,-2.2693z" fill="#ffffff"/></g></g></g></g></svg>