<svg version="1.1" xmlns="http://www.w3.org/2000/svg" xmlns:xlink="http://www.w3.org/1999/xlink" width="34.9029" height="36.33517" viewBox="0,0,34.9029,36.33517"><g transform="translate(-223.78451,-152.01224)"><g data-paper-data="{&quot;isPaintingLayer&quot;:true}" fill="#c6dd5a" fill-rule="nonzero" stroke="#000000" stroke-width="1" stroke-linecap="butt" stroke-linejoin="miter" stroke-miterlimit="10" stroke-dasharray="" stroke-dashoffset="0" style="mix-blend-mode: normal"><path d="M253.22215,167.13409c0,0.3966 -4.98297,3.40126 -8.35875,5.3767c-2.32376,1.35982 13.55597,3.58714 13.32144,3.91761c-0.32466,0.45746 -10.45466,0.12671 -13.99887,-0.05123c-3.17907,-0.1596 5.8865,11.79308 3.4818,11.46354c-2.41497,-0.33094 -9.99703,-9.77887 -10.50865,-9.77887c-1.40921,0 -5.92087,8.52908 -6.78182,7.65649c-0.28095,-0.28474 1.5684,-7.29505 3.54748,-11.63382c1.31332,-2.87921 -10.21289,-1.68456 -9.61798,-3.57155c0.61674,-1.95622 10.12682,0.43302 10.12682,0.10533c0,-1.42081 -9.28993,-13.7618 -8.06783,-14.51482c0.62506,-0.38514 7.15859,6.87828 10.36956,9.45491c0.68842,0.55242 -3.43124,-16.77916 -1.31591,-12.30837c1.80989,3.82524 5.97074,12.38805 6.60681,11.59334c2.69168,-3.36294 6.89811,-11.8121 7.48219,-11.48706c1.11133,0.61847 -3.63789,11.29453 -5.19841,15.60113c-0.3,0.82794 8.91211,-2.06375 8.91211,-1.82336z"/></g></g></svg>