<svg version="1.1" xmlns="http://www.w3.org/2000/svg" xmlns:xlink="http://www.w3.org/1999/xlink" width="46.78443" height="55.85897" viewBox="0,0,46.78443,55.85897"><g transform="translate(-217.19821,-154.52071)"><g data-paper-data="{&quot;isPaintingLayer&quot;:true}" fill-rule="nonzero" stroke="#000000" stroke-width="0.5" stroke-linejoin="miter" stroke-miterlimit="10" stroke-dasharray="" stroke-dashoffset="0" style="mix-blend-mode: normal"><path d="M237.10572,205.71702v-25.20887h4.40543v25.20887z" fill="#00c902" stroke-linecap="butt"/><path d="M228.13915,208.81639c-5.55155,-2.0855 -9.24915,-5.9132 -8.25883,-8.54941c0.99033,-2.63621 6.29356,-3.08265 11.8451,-0.99715c5.55155,2.0855 9.24915,5.91321 8.25883,8.54941c-0.99033,2.63621 -6.29356,3.08265 -11.8451,0.99714z" data-paper-data="{&quot;index&quot;:null}" fill="#00c902" stroke-linecap="butt"/><path d="M240.13172,207.29556c-0.99033,-2.63621 2.70728,-6.46391 8.25883,-8.54941c5.55155,-2.0855 10.85478,-1.63906 11.8451,0.99715c0.99033,2.63621 -2.70728,6.46391 -8.25883,8.54941c-5.55155,2.0855 -10.85478,1.63907 -11.8451,-0.99714z" data-paper-data="{&quot;index&quot;:null}" fill="#00c902" stroke-linecap="butt"/><g><path d="M221.67461,163.17911c0,0 5.89401,-1.92224 8.31012,-0.63591c2.4161,1.28633 3.40921,4.14265 2.21817,6.37979c-1.19105,2.23713 -4.11522,3.0079 -6.53131,1.72158c-2.4161,-1.28633 -3.99696,-7.46545 -3.99696,-7.46545z" data-paper-data="{&quot;index&quot;:null}" fill="#fffc00" stroke-linecap="butt"/><path d="M218.7229,183.66934c0,0 2.52645,-5.66141 5.10088,-6.59116c2.57444,-0.92976 5.35932,0.24892 6.22021,2.63267c0.86089,2.38375 -0.52822,5.06986 -3.10267,5.99961c-2.57444,0.92976 -8.21843,-2.04112 -8.21843,-2.04112z" data-paper-data="{&quot;index&quot;:null}" fill="#fffc00" stroke-linecap="butt"/><path d="M217.56609,172.45499c0,0 4.75778,-3.97467 7.47886,-3.67818c2.72108,0.29648 4.70441,2.5793 4.42989,5.09882c-0.27451,2.51952 -2.70293,4.32165 -5.42401,4.02517c-2.72108,-0.29648 -6.48475,-5.44581 -6.48475,-5.44581z" data-paper-data="{&quot;index&quot;:null}" fill="#fffc00" stroke-linecap="butt"/><path d="M258.91177,189.34113c0,0 -6.01187,1.51388 -8.33416,0.06504c-2.32229,-1.44885 -3.11736,-4.3665 -1.77583,-6.51678c1.34153,-2.15026 4.31164,-2.71887 6.63392,-1.27003c2.32229,1.44885 3.47606,7.72176 3.47606,7.72176z" data-paper-data="{&quot;index&quot;:null}" fill="#fffc00" stroke-linecap="butt"/><path d="M263.26046,169.10131c0,0 -2.9084,5.475 -5.5405,6.22618c-2.6321,0.75118 -5.32967,-0.61555 -6.0252,-3.05267c-0.69554,-2.43713 0.87436,-5.02175 3.50644,-5.77293c2.6321,-0.75118 8.05926,2.59942 8.05926,2.59942z" data-paper-data="{&quot;index&quot;:null}" fill="#fffc00" stroke-linecap="butt"/><path d="M263.64619,180.36855c0,0 -5.01893,3.63933 -7.7133,3.15711c-2.69437,-0.48222 -4.51663,-2.89556 -4.07013,-5.39035c0.4465,-2.49479 2.99268,-4.1263 5.68705,-3.64407c2.69437,0.48222 6.09637,5.87732 6.09637,5.87732z" data-paper-data="{&quot;index&quot;:null}" fill="#fffc00" stroke-linecap="butt"/><path d="M227.53239,192.58242c0,0 -1.53917,-6.00544 -0.10012,-8.33381c1.43906,-2.32836 4.35334,-3.1357 6.50924,-1.80324c2.1559,1.33246 2.737,4.30015 1.29794,6.62852c-1.43906,2.32836 -7.70707,3.50853 -7.70707,3.50853z" data-paper-data="{&quot;index&quot;:null}" fill="#fffc00" stroke-linecap="butt"/><path d="M247.79035,196.84587c0,0 -5.48719,-2.88533 -6.24945,-5.51424c-0.76225,-2.6289 0.59311,-5.33221 3.02728,-6.038c2.43418,-0.70579 5.02539,0.85321 5.78764,3.48212c0.76225,2.6289 -2.56548,8.07013 -2.56548,8.07013z" data-paper-data="{&quot;index&quot;:null}" fill="#fffc00" stroke-linecap="butt"/><path d="M236.52483,197.27902c0,0 -3.66043,-5.00357 -3.18955,-7.69995c0.47088,-2.69637 2.87653,-4.52878 5.37317,-4.09278c2.49665,0.436 4.13885,2.97529 3.66798,5.67167c-0.47088,2.69637 -5.85161,6.12106 -5.85161,6.12106z" data-paper-data="{&quot;index&quot;:null}" fill="#fffc00" stroke-linecap="butt"/><path d="M239.77295,162.14285c0.56473,2.67829 -0.98781,5.27337 -3.46772,5.79627c-2.47991,0.5229 -4.94806,-1.2244 -5.5128,-3.90269c-0.56473,-2.67829 2.91877,-7.80662 2.91877,-7.80662c0,0 5.49702,3.23473 6.06175,5.91302z" fill="#fffc00" stroke-linecap="butt"/><path d="M253.89355,167.54672c-1.60815,2.21496 -4.57439,2.80343 -6.62528,1.31441c-2.05089,-1.48903 -2.40979,-4.4917 -0.80164,-6.70666c1.60815,-2.21496 7.74849,-3.06973 7.74849,-3.06973c0,0 1.28658,6.24703 -0.32158,8.46199z" fill="#fffc00" stroke-linecap="butt"/><path d="M247.19385,162.60104c-0.47088,2.69637 -2.87653,4.52878 -5.37317,4.09278c-2.49665,-0.436 -4.13885,-2.97529 -3.66798,-5.67167c0.47088,-2.69637 5.61051,-6.16317 5.61051,-6.16317c0,0 3.90153,5.04567 3.43065,7.74205z" fill="#fffc00" stroke-linecap="butt"/><path d="M255.20363,179.38314c-1.13941,6.52457 -8.73363,9.90353 -16.52317,8.54322c-7.78953,-1.36031 -13.78904,-7.11319 -12.64963,-13.63776c1.13941,-6.52457 8.9652,-11.22956 16.75474,-9.86925c7.78953,1.36031 13.55747,8.43922 12.41807,14.96379z" fill="#efa900" stroke-linecap="butt"/><path d="M249.50764,182.07367c0,0 -7.30314,2.32716 -10.73661,1.72756c-3.31296,-0.57855 -9.5156,-5.26427 -9.5156,-5.26427" fill="none" stroke-linecap="round"/><g data-paper-data="{&quot;index&quot;:null}" stroke-linecap="butt"><path d="M237.72557,169.14092c1.48655,0.2596 2.4124,2.06912 2.06793,4.04167c-0.34447,1.97255 -1.82882,3.36117 -3.31538,3.10157c-1.48655,-0.2596 -2.4124,-2.06912 -2.06793,-4.04167c0.34447,-1.97255 1.82882,-3.36117 3.31538,-3.10157z" fill="#000000"/><path d="M238.3309,169.74868c0.8362,0.14603 1.35697,1.16388 1.1632,2.27344c-0.19377,1.10956 -1.02871,1.89066 -1.86489,1.74463c-0.8362,-0.14603 -1.35698,-1.16388 -1.16321,-2.27344c0.19377,-1.10956 1.02871,-1.89066 1.8649,-1.74463z" fill="#ffffff"/></g><g data-paper-data="{&quot;index&quot;:null}" stroke-linecap="butt"><path d="M245.51911,170.29882c1.48655,0.2596 2.4124,2.06912 2.06793,4.04167c-0.34447,1.97255 -1.82882,3.36117 -3.31538,3.10157c-1.48655,-0.2596 -2.4124,-2.06912 -2.06793,-4.04167c0.34447,-1.97255 1.82882,-3.36117 3.31538,-3.10157z" fill="#000000"/><path d="M246.12443,170.90658c0.8362,0.14603 1.35697,1.16388 1.1632,2.27344c-0.19377,1.10956 -1.02871,1.89066 -1.86489,1.74463c-0.8362,-0.14603 -1.35698,-1.16388 -1.16321,-2.27344c0.19377,-1.10956 1.02871,-1.89066 1.8649,-1.74463z" fill="#ffffff"/></g></g></g></g></svg>