<svg version="1.1" xmlns="http://www.w3.org/2000/svg" xmlns:xlink="http://www.w3.org/1999/xlink" width="23.92987" height="29.25393" viewBox="0,0,23.92987,29.25393"><g transform="translate(-228.99482,-166.67238)"><g data-paper-data="{&quot;isPaintingLayer&quot;:true}" fill-rule="nonzero" stroke-linejoin="miter" stroke-miterlimit="10" stroke-dasharray="" stroke-dashoffset="0" style="mix-blend-mode: normal"><path d="M229.625,195.38738v-26.52889h23.04969v26.52889z" fill="#ffffff" stroke="#000000" stroke-width="0.5" stroke-linecap="butt"/><path d="M236.15504,188.52816c-2.25535,-0.84725 -3.75752,-2.40227 -3.35519,-3.47324c0.40233,-1.07097 2.55679,-1.25234 4.81214,-0.4051c2.25535,0.84725 3.75752,2.40227 3.35519,3.47324c-0.40233,1.07097 -2.55679,1.25234 -4.81214,0.40509z" data-paper-data="{&quot;index&quot;:null}" fill="#00c902" stroke="#000000" stroke-width="0.3" stroke-linecap="butt"/><path d="M241.02709,187.91032c-0.40233,-1.07097 1.09985,-2.62599 3.35519,-3.47324c2.25535,-0.84725 4.40981,-0.66588 4.81214,0.4051c0.40233,1.07097 -1.09985,2.62599 -3.35519,3.47324c-2.25535,0.84725 -4.40981,0.66588 -4.81214,-0.40509z" data-paper-data="{&quot;index&quot;:null}" fill="#00c902" stroke="#000000" stroke-width="0.3" stroke-linecap="butt"/><path d="M240.05469,189.22648v-8.21632h2.06845v8.21632z" fill="#00ff0e" stroke="#000000" stroke-width="0.3" stroke-linecap="butt"/><path d="M244.06715,179.13464c0,1.22124 -1.31194,2.21124 -2.9303,2.21124c-1.61836,0 -2.9303,-0.99001 -2.9303,-2.21124c0,-1.22124 5.86059,-1.22124 5.86059,0z" fill="#00c902" stroke="#000000" stroke-width="0.3" stroke-linecap="butt"/><path d="M234.94944,173.28222c0,-3.5494 2.87736,-6.42676 6.42676,-6.42676c3.5494,0 6.42676,2.87736 6.42676,6.42676c0,3.5494 -2.87736,6.42676 -6.42676,6.42676c-3.5494,0 -6.42676,-2.87736 -6.42676,-6.42676z" fill="#00ff0e" stroke="#000000" stroke-width="0.3" stroke-linecap="butt"/><g data-paper-data="{&quot;index&quot;:null}" stroke="#000000" stroke-width="0.3" stroke-linecap="butt"><path d="M241.20392,170.91907c0.76526,0 1.38562,0.82318 1.38562,1.83862c0,1.01544 -0.62037,1.83862 -1.38562,1.83862c-0.76526,0 -1.38562,-0.82318 -1.38562,-1.83862c0,-1.01544 0.62037,-1.83862 1.38562,-1.83862z" fill="#000000"/><path d="M241.55933,171.16987c0.43046,0 0.77941,0.46304 0.77941,1.03422c0,0.57118 -0.34896,1.03422 -0.77941,1.03422c-0.43046,0 -0.77941,-0.46304 -0.77941,-1.03422c0,-0.57118 0.34896,-1.03422 0.77941,-1.03422z" fill="#ffffff"/></g><g stroke="#000000" stroke-width="0.3" stroke-linecap="butt"><path d="M246.54158,173.51007c0,-3.26381 0.96563,-5.90965 2.15681,-5.90965c1.19117,0 2.15681,2.64584 2.15681,5.90965c0,3.26381 -0.96563,5.90965 -2.15681,5.90965c-1.19117,0 -2.15681,-2.64584 -2.15681,-5.90965z" fill="#00ff0e"/><path d="M247.23664,173.447c0,-2.38615 0.66034,-4.3205 1.4749,-4.3205c0.81457,0 1.4749,1.93435 1.4749,4.3205c0,2.38615 -0.66034,4.3205 -1.4749,4.3205c-0.81457,0 -1.4749,-1.93435 -1.4749,-4.3205z" fill="#000000"/></g><path d="M233.03904,167.80851l0.53405,-0.67644l2.75087,2.17182l-0.53405,0.67644z" fill="#00c902" stroke="#000000" stroke-width="0.3" stroke-linecap="butt"/><path d="M232.82863,169.90414c-0.23566,0.45952 -1.10654,1.19542 -1.24812,1.60166c-0.38475,1.10394 0.21395,2.06735 0.12679,1.91414c-0.10096,-0.17745 -0.8337,-0.28504 -1.02147,-0.53891c-0.86819,-1.17375 -1.967,-3.13273 -1.37172,-4.29345c0.87609,-1.70827 3.77771,-1.90703 4.18713,-1.69706c0.40942,0.20997 0.20348,1.30535 -0.6726,3.01362z" fill="#00c902" stroke="#000000" stroke-width="0.3" stroke-linecap="butt"/><path d="M240.98195,188.43336c0.47427,1.26249 -1.29653,3.09559 -3.95518,4.09434c-2.65865,0.99875 -5.19839,0.78495 -5.67265,-0.47753c-0.47427,-1.26249 1.29653,-3.09559 3.95518,-4.09434c2.65865,-0.99875 5.19839,-0.78495 5.67265,0.47753z" fill="#00c902" stroke="#000000" stroke-width="0.3" stroke-linecap="butt"/><path d="M246.75794,187.9768c2.65865,0.99875 4.42944,2.83185 3.95518,4.09434c-0.47427,1.26249 -3.014,1.47629 -5.67265,0.47753c-2.65865,-0.99875 -4.42944,-2.83185 -3.95518,-4.09434c0.47427,-1.26249 3.014,-1.47629 5.67265,-0.47753z" data-paper-data="{&quot;index&quot;:null}" fill="#00c902" stroke="#000000" stroke-width="0.3" stroke-linecap="butt"/><path d="M240.71397,188.25952l-5.51585,2.29827" fill="none" stroke="#000000" stroke-width="0.3" stroke-linecap="round"/><path d="M246.97677,190.78761l-5.74568,-2.47064" fill="none" stroke="#000000" stroke-width="0.3" stroke-linecap="round"/><path d="M242.20785,187.3402l4.654,-1.89607" fill="none" stroke="#000000" stroke-width="0.3" stroke-linecap="round"/><path d="M239.96704,187.3402l-5.17111,-1.83862" fill="none" stroke="#000000" stroke-width="0.3" stroke-linecap="round"/><g data-paper-data="{&quot;index&quot;:null}" stroke="#000000" stroke-width="0.3" stroke-linecap="butt"><path d="M244.28179,169.12227c0.69782,0 1.26352,0.75064 1.26352,1.6766c0,0.92596 -0.5657,1.6766 -1.26352,1.6766c-0.69782,0 -1.26352,-0.75064 -1.26352,-1.6766c0,-0.92596 0.5657,-1.6766 1.26352,-1.6766z" fill="#000000"/><path d="M244.60588,169.35097c0.39253,0 0.71073,0.42224 0.71073,0.94309c0,0.52085 -0.31821,0.94309 -0.71073,0.94309c-0.39253,0 -0.71073,-0.42224 -0.71073,-0.94309c0,-0.52085 0.31821,-0.94309 0.71073,-0.94309z" fill="#ffffff"/></g><text transform="translate(235.89754,193.19111) scale(0.16577,0.16577)" font-size="40" xml:space="preserve" fill="#000000" fill-rule="nonzero" stroke="none" stroke-width="1" stroke-linecap="butt" stroke-linejoin="miter" stroke-miterlimit="10" stroke-dasharray="" stroke-dashoffset="0" font-family="Handwriting" font-weight="normal" text-anchor="start" style="mix-blend-mode: normal"><tspan x="0" dy="0">100</tspan></text></g></g></svg>