<svg version="1.1" xmlns="http://www.w3.org/2000/svg" xmlns:xlink="http://www.w3.org/1999/xlink" width="47.76173" height="48.49074" viewBox="0,0,47.76173,48.49074"><g transform="translate(-216.74222,-161.88894)"><g data-paper-data="{&quot;isPaintingLayer&quot;:true}" fill-rule="nonzero" stroke="#000000" stroke-width="0.5" stroke-linejoin="miter" stroke-miterlimit="10" stroke-dasharray="" stroke-dashoffset="0" style="mix-blend-mode: normal"><path d="M237.10572,205.71702v-25.20887h4.40543v25.20887z" fill="#00c902" stroke-linecap="butt"/><path d="M228.13915,208.81639c-5.55155,-2.0855 -9.24915,-5.9132 -8.25883,-8.54941c0.99033,-2.63621 6.29356,-3.08265 11.8451,-0.99715c5.55155,2.0855 9.24915,5.91321 8.25883,8.54941c-0.99033,2.63621 -6.29356,3.08265 -11.8451,0.99714z" data-paper-data="{&quot;index&quot;:null}" fill="#00c902" stroke-linecap="butt"/><path d="M240.13172,207.29556c-0.99033,-2.63621 2.70728,-6.46391 8.25883,-8.54941c5.55155,-2.0855 10.85478,-1.63906 11.8451,0.99715c0.99033,2.63621 -2.70728,6.46391 -8.25883,8.54941c-5.55155,2.0855 -10.85478,1.63907 -11.8451,-0.99714z" data-paper-data="{&quot;index&quot;:null}" fill="#00c902" stroke-linecap="butt"/><g><path d="M224.40997,166.81455c0,0 6.14906,-0.78957 8.28295,0.92469c2.1339,1.71426 2.57701,4.70567 0.98973,6.6815c-1.58728,1.97582 -4.60388,2.18786 -6.73777,0.4736c-2.1339,-1.71426 -2.53491,-8.07978 -2.53491,-8.07978z" data-paper-data="{&quot;index&quot;:null}" fill="#fffc00" stroke-linecap="butt"/><path d="M217.68954,186.3951c0,0 3.53773,-5.09106 6.24037,-5.5245c2.70265,-0.43344 5.21893,1.24382 5.62026,3.74628c0.40134,2.50246 -1.46426,4.88247 -4.16691,5.3159c-2.70265,0.43344 -7.69374,-3.53769 -7.69374,-3.53769z" data-paper-data="{&quot;index&quot;:null}" fill="#fffc00" stroke-linecap="butt"/><path d="M218.64396,175.16173c0,0 5.41544,-3.01786 8.03352,-2.21922c2.61809,0.79863 4.14099,3.41123 3.40151,5.83537c-0.73947,2.42415 -3.46132,3.74189 -6.0794,2.94325c-2.61809,-0.79863 -5.35564,-6.55941 -5.35564,-6.55941z" data-paper-data="{&quot;index&quot;:null}" fill="#fffc00" stroke-linecap="butt"/><path d="M256.11613,199.46078c0,0 -6.18871,0.3664 -8.20013,-1.49003c-2.01142,-1.85644 -2.24854,-4.87117 -0.52961,-6.73361c1.71893,-1.86242 4.74297,-1.86727 6.75439,-0.01084c2.01142,1.85644 1.97535,8.23447 1.97535,8.23447z" data-paper-data="{&quot;index&quot;:null}" fill="#fffc00" stroke-linecap="butt"/><path d="M264.16234,180.38672c0,0 -3.87823,4.83671 -6.60423,5.08395c-2.726,0.24724 -5.12144,-1.59849 -5.35037,-4.12256c-0.22893,-2.52407 1.79535,-4.77067 4.52133,-5.01791c2.726,-0.24724 7.43326,4.05652 7.43326,4.05652z" data-paper-data="{&quot;index&quot;:null}" fill="#fffc00" stroke-linecap="butt"/><path d="M262.4405,191.5283c0,0 -5.60948,2.63971 -8.16669,1.66358c-2.55721,-0.97614 -3.89754,-3.68693 -2.99371,-6.05472c0.90384,-2.36779 3.70957,-3.49594 6.26678,-2.5198c2.55721,0.97614 4.89362,6.91094 4.89362,6.91094z" data-paper-data="{&quot;index&quot;:null}" fill="#fffc00" stroke-linecap="butt"/><path d="M224.68267,196.79444c0,0 -0.39244,-6.18712 1.4555,-8.20633c1.84795,-2.01921 4.86167,-2.26902 6.73132,-0.55795c1.86965,1.71107 1.88723,4.73506 0.03926,6.75429c-1.84795,2.01921 -8.2261,2.01 -8.2261,2.01z" data-paper-data="{&quot;index&quot;:null}" fill="#fffc00" stroke-linecap="butt"/><path d="M243.79045,204.76029c0,0 -4.85299,-3.85784 -5.11171,-6.58277c-0.25872,-2.72493 1.57692,-5.12812 4.1,-5.36768c2.52309,-0.23955 4.77818,1.77524 5.03689,4.50018c0.25872,2.72493 -4.02519,7.45027 -4.02519,7.45027z" data-paper-data="{&quot;index&quot;:null}" fill="#fffc00" stroke-linecap="butt"/><path d="M232.64172,203.08536c0,0 -2.66331,-5.59832 -1.69794,-8.15963c0.96537,-2.56129 3.67049,-3.91302 6.04206,-3.01916c2.37157,0.89386 3.51152,3.69482 2.54616,6.25611c-0.96537,2.56129 -6.89029,4.92267 -6.89029,4.92267z" data-paper-data="{&quot;index&quot;:null}" fill="#fffc00" stroke-linecap="butt"/><path d="M242.38413,169.17096c0.05546,2.73662 -1.95372,4.99671 -4.48764,5.04806c-2.53391,0.05134 -4.633,-2.12551 -4.68846,-4.86213c-0.05546,-2.73662 4.32316,-7.12551 4.32316,-7.12551c0,0 4.7975,4.20295 4.85295,6.93957z" fill="#fffc00" stroke-linecap="butt"/><path d="M255.24955,177.11291c-1.99294,1.87627 -5.01688,1.90136 -6.75417,0.05605c-1.73729,-1.84531 -1.53004,-4.86225 0.4629,-6.73852c1.99294,-1.87627 8.18498,-1.57117 8.18498,-1.57117c0,0 0.09923,6.37737 -1.89371,8.25364z" fill="#fffc00" stroke-linecap="butt"/><path d="M249.58947,171.00477c-0.96537,2.56129 -3.67049,3.91302 -6.04206,3.01916c-2.37157,-0.89386 -3.51152,-3.69482 -2.54615,-6.25611c0.96537,-2.56129 6.66127,-5.00899 6.66127,-5.00899c0,0 2.89233,5.68464 1.92696,8.24595z" fill="#fffc00" stroke-linecap="butt"/><path d="M254.32972,188.98602c-2.33595,6.19771 -10.42703,8.10144 -17.82633,5.3126c-7.3993,-2.78884 -12.22095,-9.55946 -9.885,-15.75717c2.33595,-6.19771 10.90178,-9.36104 18.30108,-6.5722c7.3993,2.78884 11.7462,10.81906 9.41025,17.01677z" fill="#efa900" stroke-linecap="butt"/><path d="M248.23195,190.56734c0,0 -7.60897,0.92465 -10.87044,-0.30461c-3.14699,-1.18612 -8.36719,-6.94617 -8.36719,-6.94617" fill="none" stroke-linecap="round"/><g data-paper-data="{&quot;index&quot;:null}" stroke-linecap="butt"><path d="M239.06785,175.66457c1.41208,0.53222 1.9843,2.48264 1.27808,4.35637c-0.70622,1.87373 -2.42345,2.96124 -3.83554,2.42901c-1.41208,-0.53222 -1.9843,-2.48264 -1.27808,-4.35637c0.70622,-1.87373 2.42345,-2.96124 3.83554,-2.42901z" fill="#000000"/><path d="M239.54925,176.37454c0.7943,0.29938 1.11616,1.39648 0.71891,2.45046c-0.39725,1.05397 -1.36319,1.6657 -2.15748,1.36633c-0.7943,-0.29938 -1.11617,-1.39648 -0.71892,-2.45046c0.39725,-1.05397 1.36319,-1.6657 2.15749,-1.36632z" fill="#ffffff"/></g><g data-paper-data="{&quot;index&quot;:null}" stroke-linecap="butt"><path d="M246.50883,178.2553c1.41208,0.53222 1.98431,2.48264 1.27809,4.35637c-0.70622,1.87373 -2.42345,2.96124 -3.83554,2.42901c-1.41208,-0.53222 -1.9843,-2.48264 -1.27808,-4.35637c0.70622,-1.87373 2.42344,-2.96124 3.83553,-2.42901z" fill="#000000"/><path d="M246.99022,178.96527c0.7943,0.29938 1.11616,1.39648 0.71891,2.45045c-0.39725,1.05397 -1.36319,1.6657 -2.15748,1.36633c-0.7943,-0.29938 -1.11617,-1.39648 -0.71893,-2.45046c0.39725,-1.05397 1.36319,-1.66569 2.15749,-1.36632z" fill="#ffffff"/></g></g></g></g></svg>