<svg version="1.1" xmlns="http://www.w3.org/2000/svg" xmlns:xlink="http://www.w3.org/1999/xlink" width="62.54242" height="72.24757" viewBox="0,0,62.54242,72.24757"><g transform="translate(-216.45129,-144.03315)"><g data-paper-data="{&quot;isPaintingLayer&quot;:true}" fill-rule="nonzero" stroke="#000000" stroke-width="1.2" stroke-linejoin="miter" stroke-miterlimit="10" stroke-dasharray="" stroke-dashoffset="0" style="mix-blend-mode: normal"><path d="M232.28973,198.53198c-5.20257,-3.9666 -7.89315,-9.1849 -6.00956,-11.65538c1.88359,-2.47049 7.62805,-1.25766 12.83062,2.70893c5.20257,3.9666 7.89314,9.1849 6.00956,11.65538c-1.88359,2.47049 -7.62805,1.25766 -12.83062,-2.70895z" data-paper-data="{&quot;index&quot;:null}" fill="#00c902" stroke-linecap="butt"/><path d="M243.31092,200.79691c-1.00564,-2.93937 3.19713,-7.03896 9.38711,-9.15669c6.18998,-2.11773 12.02317,-1.45164 13.0288,1.48773c1.00564,2.93937 -3.19713,7.03896 -9.38711,9.15669c-6.18998,2.11773 -12.02317,1.45164 -13.0288,-1.48773z" data-paper-data="{&quot;index&quot;:null}" fill="#00c902" stroke-linecap="butt"/><path d="M240.00651,203.1717l7.07381,-21.16017l5.32704,1.78082l-7.07381,21.16017z" fill="#00ff0e" stroke-linecap="butt"/><path d="M258.62759,178.06679c0,3.31624 -3.56254,6.00458 -7.95716,6.00458c-4.39462,0 -7.95716,-2.68834 -7.95716,-6.00458c0,-3.31624 15.91431,-3.31624 15.91431,0z" fill="#00c902" stroke-linecap="butt"/><path d="M235.20199,162.17469c0,-9.63833 7.8134,-17.45172 17.45173,-17.45172c9.63833,0 17.45173,7.8134 17.45173,17.45173c0,9.63833 -7.8134,17.45173 -17.45173,17.45173c-9.63833,0 -17.45172,-7.8134 -17.45172,-17.45172z" fill="#00ff0e" stroke-linecap="butt"/><g data-paper-data="{&quot;index&quot;:null}" stroke-linecap="butt"><path d="M252.18591,155.75759c2.07804,0 3.76263,2.23532 3.76263,4.99273c0,2.75741 -1.68459,4.99273 -3.76263,4.99273c-2.07804,0 -3.76263,-2.23532 -3.76263,-4.99273c0,-2.75741 1.68459,-4.99273 3.76263,-4.99273z" fill="#000000"/><path d="M253.15102,156.43863c1.1689,0 2.11647,1.25737 2.11647,2.80841c0,1.55104 -0.94758,2.80841 -2.11647,2.80841c-1.1689,0 -2.11648,-1.25737 -2.11648,-2.80841c0,-1.55104 0.94758,-2.80841 2.11648,-2.80841z" fill="#ffffff"/></g><g stroke-linecap="butt"><path d="M266.68019,162.7934c0,-8.8628 2.62216,-16.04753 5.85676,-16.04753c3.2346,0 5.85676,7.18472 5.85676,16.04753c0,8.8628 -2.62216,16.04752 -5.85676,16.04752c-3.2346,0 -5.85676,-7.18472 -5.85676,-16.04752z" fill="#00ff0e"/><path d="M268.56761,162.62214c0,-6.47953 1.79313,-11.73222 4.00507,-11.73222c2.21195,0 4.00507,5.25269 4.00507,11.73222c0,6.47953 -1.79313,11.73222 -4.00507,11.73222c-2.21195,0 -4.00507,-5.25269 -4.00507,-11.73222z" fill="#000000"/></g><path d="M230.01435,147.31095l1.4502,-1.83687l7.46993,5.89752l-1.4502,1.83686z" fill="#00c902" stroke-linecap="butt"/><path d="M229.44298,153.00159c-0.63994,1.24783 -3.00478,3.24613 -3.38925,4.34926c-1.04478,2.99773 0.58099,5.61383 0.34429,5.1978c-0.27416,-0.48187 -2.2639,-0.77402 -2.77379,-1.46339c-2.35756,-3.18729 -5.34134,-8.50685 -3.72487,-11.65876c2.379,-4.63876 10.2583,-5.1785 11.37006,-4.60833c1.11177,0.57017 0.55255,3.54465 -1.82644,8.18341z" fill="#00c902" stroke-linecap="butt"/><path d="M244.91616,202.05938c0.24625,3.65389 -5.79189,7.03634 -13.48657,7.5549c-7.69466,0.51857 -14.13205,-2.02312 -14.3783,-5.677c-0.24625,-3.65389 5.79189,-7.03634 13.48655,-7.55491c7.69466,-0.51857 14.13205,2.02311 14.3783,5.677z" fill="#00c902" stroke-linecap="butt"/><path d="M258.8607,201.43966c7.13576,2.92536 11.79431,8.04375 10.40517,11.43224c-1.38914,3.38848 -8.29994,3.76392 -15.43569,0.83855c-7.13576,-2.92536 -11.79431,-8.04375 -10.40517,-11.43225c1.38915,-3.38849 8.29993,-3.76392 15.43569,-0.83855z" data-paper-data="{&quot;index&quot;:null}" fill="#00c902" stroke-linecap="butt"/><path d="M244.3552,201.39777l-16.1408,1.66404" fill="none" stroke-linecap="round"/><path d="M259.22789,209.08664l-15.39607,-7.16951" fill="none" stroke-linecap="round"/><path d="M246.56183,199.34472l12.78521,-4.77104" fill="none" stroke-linecap="round"/><path d="M231.12171,189.59876l12.00987,8.82436" fill="none" stroke-linecap="round"/><g data-paper-data="{&quot;index&quot;:null}" stroke-linecap="butt"><path d="M260.54379,150.87844c1.89492,0 3.43107,2.03835 3.43107,4.55276c0,2.51443 -1.53614,4.55276 -3.43107,4.55276c-1.89492,0 -3.43107,-2.03835 -3.43107,-4.55276c0,-2.51443 1.53614,-4.55276 3.43107,-4.55276z" fill="#000000"/><path d="M261.42386,151.49947c1.0659,0 1.92997,1.14657 1.92997,2.56093c0,1.41436 -0.86408,2.56093 -1.92997,2.56093c-1.0659,0 -1.92998,-1.14657 -1.92998,-2.56093c0,-1.41436 0.86408,-2.56093 1.92998,-2.56093z" fill="#ffffff"/></g></g></g></svg>