<svg version="1.1" xmlns="http://www.w3.org/2000/svg" xmlns:xlink="http://www.w3.org/1999/xlink" width="97.29372" height="169.52762" viewBox="0,0,97.29372,169.52762"><g transform="translate(-193.20522,-95.22324)"><g data-paper-data="{&quot;isPaintingLayer&quot;:true}" fill-rule="nonzero" stroke="#000000" stroke-linecap="butt" stroke-linejoin="miter" stroke-miterlimit="10" stroke-dasharray="" stroke-dashoffset="0" style="mix-blend-mode: normal"><g data-paper-data="{&quot;index&quot;:null}" stroke-width="2"><path d="M221.71151,213.00398c-0.24103,0.93892 -14.1552,3.18808 -15.70691,1.56182c-3.96254,-4.15283 -3.76477,-14.63546 -3.81763,-15.9432c-0.21665,-5.35864 17.31168,-5.50116 17.52833,-0.14251c0.05557,1.37446 3.28726,9.49509 1.99621,14.52389z" fill="#8a9e8d"/><path d="M219.91893,198.07209c0.11264,0.47991 -16.84894,2.40816 -17.56217,-0.23219c-1.81539,-6.72047 4.95013,-27.89275 9.85509,-37.61644c1.43758,-2.84993 4.08947,-4.37176 5.02743,-4.38149c4.75337,-0.04929 6.73263,3.87512 6.73263,3.87512c0,0 -5.51887,32.10931 -4.05295,38.355z" fill="#89623d"/></g><path d="M264.71944,241.87626c0,0 -4.87059,-4.42426 -6.66543,-6.95525c-1.61286,-2.27435 -3.61611,-7.54322 -3.61611,-7.54322l7.74787,-5.41898c0,0 2.77171,5.14701 4.53171,6.9466c2.39227,2.44606 8.63076,6.61504 8.63076,6.61504z" fill="#8a9e8d" stroke-width="2"/><path d="M236.23273,216.70132c-0.7687,-0.53485 0.50244,7.77795 -0.21146,15.41677c-0.61032,6.53015 -3.94701,14.94027 -4.45161,15.23368c-2.5262,1.46904 -20.17645,-0.55168 -20.11434,-1.21389c0.30028,-3.20115 2.92055,-8.15091 4.46974,-13.64397c0.05355,-0.18988 3.35997,-0.50397 3.86567,-1.82845c0.24561,-0.64332 -2.54088,-2.12357 -2.1348,-2.79611c1.00923,-1.67138 5.97388,-3.08505 6.03222,-3.66865c0.23004,-2.30164 -6.032,-3.77671 -5.95729,-5.21394c0.42644,-8.20244 -0.09297,-14.9197 -0.09297,-14.9197l46.87386,-0.51406l4.36442,23.33033l-6.74651,-1.12174l-3.24619,4.02535l-9.48032,-1.34095l0.54453,-10.46688c0,0 -3.47058,0.63697 -7.0541,0.48279c-0.94318,-0.04059 -1.14599,-2.35559 -2.0436,-2.53046c-1.55676,-0.30327 -3.70106,1.40735 -4.61722,0.76989z" fill="#757ad6" stroke-width="2"/><path d="M237.01694,257.08957c0,4.79232 -26.74097,4.79232 -26.74097,0c0,-0.35324 -0.91492,-9.76037 0.61206,-10.02638c3.96013,-0.68983 13.13981,-2.28821 19.86794,0.46988c5.2202,2.13994 6.26094,8.54702 6.26094,9.55649z" fill="#5c422a" stroke-width="2"/><path d="M264.60768,248.92663c0,0 -0.51592,-4.02644 -1.23466,-5.41097c-0.78735,-1.51668 -4.33447,-4.30611 -4.33447,-4.30611l6.13664,-1.8476l3.25335,-3.84773l5.29113,-0.89399l2.99022,-2.33212c0,0 3.52845,2.75346 4.12824,3.90884c0.83396,1.60648 1.54445,5.5023 1.54445,5.5023z" fill="#757ad6" stroke-width="2"/><path d="M262.33758,249.11348c5.61844,-6.63099 16.23667,-9.99059 20.81747,-11.43964c1.76634,-0.55874 5.97624,9.92437 6.17077,10.29908c2.6391,5.08374 -25.72818,19.8099 -28.36727,14.72615c-0.5559,-1.07085 -2.98019,-8.44076 1.379,-13.58557z" data-paper-data="{&quot;index&quot;:null}" fill="#5c422a" stroke-width="2"/><g stroke-width="2"><path d="M232.37488,204.13336c0,0 3.08257,-13.99606 2.36164,-21.48556c-0.76425,-7.93956 -6.82474,-24.88045 -6.82474,-24.88045h15.41796c0,0 5.73664,16.33792 6.55901,24.16934c0.79996,7.618 -1.69021,22.19664 -1.69021,22.19664z" fill="#ffffff"/><path d="M248.08,204.86022c0.65651,-5.41105 2.41464,-16.75093 1.85473,-22.47175c-0.81728,-8.35078 -7.74423,-25.58541 -7.74423,-25.58541l12.57782,-5.18792c0,0 9.3519,13.46467 11.19036,26.6113c1.19988,8.5802 -0.3812,22.71321 -0.43323,27.7112c-0.01441,1.38607 -17.70363,1.0506 -17.44547,-1.07743z" data-paper-data="{&quot;index&quot;:null}" fill="#89623d"/><path d="M216.71729,205.21062c0.082,-5.2406 1.60617,-14.22198 1.46895,-23.86003c-0.17693,-12.42635 3.23377,-26.01629 3.23377,-26.01629l9.73764,3.22051c0,0 4.98896,16.88554 5.36636,24.10922c0.32901,6.29762 -1.12768,17.57667 -1.51804,22.54511c-0.11715,1.49099 -18.30366,0.95644 -18.28871,0.00152z" fill="#89623d"/></g><g><path d="M232.01855,189.74161c-0.10097,-6.19156 2.60217,-17.60838 3.52589,-22.27246c0.30927,-1.56157 5.36518,-1.80878 6.08413,-0.28236c2.14644,4.55717 4.71061,15.75784 4.99527,21.94703c0.02386,0.51866 -4.48719,11.97136 -6.97826,11.90297c-2.0987,-0.05764 -7.62221,-10.99949 -7.62703,-11.29517z" fill="#ff0000" stroke-width="1"/><path d="M246.16737,162.91161c0,0 -2.42732,5.57741 -7.60885,5.33489c-4.95651,-0.23198 -7.87125,-5.33489 -7.87125,-5.33489z" fill="#ff0000" stroke-width="1"/><path d="M231.86634,180.62934l0.25947,-1.67164l14.15134,2.3141l0.30649,1.8333z" fill="#ffffff" stroke-width="0"/><path d="M233.18899,174.23208l0.36586,-1.77941l11.22581,2.04466l0.412,1.72555z" fill="#ffffff" stroke-width="0"/><path d="M230.99176,187.9042l0.13755,-1.88719l16.51607,2.36799c0,0 0.07614,0.56148 0.05444,0.83399c-0.02391,0.30003 -0.19199,0.89156 -0.19199,0.89156z" fill="#ffffff" stroke-width="0"/><path d="M234.32545,195.71794l-1.05949,-1.99497l11.15282,2.36799l-0.79197,1.67164z" fill="#ffffff" stroke-width="0"/></g><g stroke-width="2"><path d="M253.66932,198.49536c1.33568,-5.66047 19.96809,-1.89429 18.63245,3.76619c-0.32597,1.38141 -2.27693,12.58269 -7.35207,16.18697c-1.98742,1.41145 -16.33756,-3.85239 -16.40057,-4.90172c-0.33756,-5.62021 4.77761,-13.59956 5.1202,-15.05144z" fill="#8a9e8d"/><path d="M257.13071,156.34806c0,0 2.9165,-3.77008 7.96709,-2.73741c0.99658,0.20378 3.50613,2.37085 4.44902,5.70151c3.21701,11.36388 6.05416,35.30033 2.73556,42.08106c-1.30381,2.66403 -18.96457,-2.88652 -18.7457,-3.37423c2.84862,-6.34731 3.59401,-41.67094 3.59401,-41.67094z" fill="#89623d"/></g><g><g><path d="M216.15866,153.41928l-5.09464,-16.50529l31.97954,-3.42512l3.10507,19.40807z" fill="#693939" stroke-width="0"/><path d="M210.99661,145.40703l0.16758,-7.34635l6.56048,-0.96929l2.65415,6.92944z" fill="#faffe0" stroke-width="1.125"/><path d="M224.18829,139.44641l-1.52402,-4.93749l5.77696,-0.27791l1.3435,4.94618z" fill="#faffe0" stroke-width="1.125"/><path d="M232.77544,141.00183l-0.24174,-4.64124l7.74417,-0.73048l-1.90602,5.1025z" data-paper-data="{&quot;index&quot;:null}" fill="#faffe0" stroke-width="1.125"/><path d="M234.63421,152.36567l-1.43647,-6.73125l7.74418,-0.73047l0.01083,7.15776z" fill="#faffe0" stroke-width="1.125"/><path d="M221.42772,152.10619l-1.08913,-3.17778l6.59404,-0.48722l-0.13048,3.40646z" fill="#faffe0" stroke-width="1.125"/><path d="M204.44526,137.33976c-8.42818,-24.21681 12.42225,-40.21864 31.08684,-41.11651c18.66456,-0.89786 34.57442,13.33557 35.53569,31.79127c0.96124,18.45569 -13.39013,34.14485 -32.05471,35.04272c-8.77642,0.42218 -17.96888,-3.4183 -24.25939,-8.5532c-2.72022,-2.22049 29.06507,-4.02354 29.51195,-4.18248c0.37499,-0.13339 0.95798,-11.49691 -3.70737,-13.25918c-11.72395,-4.42858 -34.94253,3.64042 -36.11297,0.27732z" fill="#8a9e8d" stroke-width="2"/></g><g><path d="M229.14728,120.51008c-0.33596,-6.45062 4.83291,-11.94169 11.54503,-12.26456c6.71211,-0.32288 12.42571,4.64462 12.76168,11.09526c0.33596,6.45062 -4.83291,11.9417 -11.54501,12.26458c-6.71211,0.32288 -12.42571,-4.64466 -12.76167,-11.09528z" fill="#fdfff3" stroke-width="2"/><path d="M242.07294,117.48973c-0.07004,-1.34498 1.00769,-2.4899 2.4072,-2.55722c1.39952,-0.06732 2.59078,0.96842 2.66084,2.31341c0.07006,1.34498 -1.00765,2.4899 -2.40716,2.55723c-1.39952,0.06733 -2.59081,-0.96844 -2.66088,-2.31343z" fill="#000000" stroke-width="0"/></g><g><path d="M194.21759,125.75407c-0.26803,-5.14602 3.85541,-9.52649 9.21004,-9.78408c5.35463,-0.25756 9.91265,3.70527 10.18067,8.85128c0.26803,5.14602 -3.85546,9.52651 -9.21005,9.78408c-5.35463,0.25756 -9.91262,-3.70525 -10.18066,-8.85127z" fill="#fdfff3" stroke-width="2"/><path d="M199.5691,124.50144c-0.07006,-1.34498 1.00769,-2.48989 2.4072,-2.55722c1.39951,-0.06733 2.59079,0.96844 2.66083,2.31341c0.07006,1.34498 -1.00768,2.48987 -2.40717,2.5572c-1.39951,0.06733 -2.59081,-0.9684 -2.66088,-2.3134z" fill="#000000" stroke-width="0"/></g></g></g></g></svg>