<svg version="1.1" xmlns="http://www.w3.org/2000/svg" xmlns:xlink="http://www.w3.org/1999/xlink" width="47.39893" height="60.77583" viewBox="0,0,47.39893,60.77583"><g transform="translate(-219.46991,-149.38699)"><g data-paper-data="{&quot;isPaintingLayer&quot;:true}" fill-rule="nonzero" stroke="#000000" stroke-width="0.5" stroke-linejoin="miter" stroke-miterlimit="10" stroke-dasharray="" stroke-dashoffset="0" style="mix-blend-mode: normal"><path d="M236.9056,205.06571l2.54324,-25.08025l4.38295,0.44445l-2.54324,25.08025z" fill="#00c902" stroke-linecap="butt"/><path d="M221.93096,162.60906c0,0 5.34203,-3.14596 7.9784,-2.4099c2.63636,0.73606 4.22105,3.31164 3.53952,5.75272c-0.68155,2.44107 -3.37124,3.82325 -6.00759,3.08719c-2.63636,-0.73606 -5.51031,-6.43001 -5.51031,-6.43001z" data-paper-data="{&quot;index&quot;:null}" fill="#fffc00" stroke-linecap="butt"/><path d="M223.45931,183.25431c0,0 1.2485,-6.07254 3.56243,-7.53468c2.31393,-1.46215 5.28725,-0.9106 6.6411,1.23194c1.35385,2.14254 0.57554,5.06471 -1.73841,6.52685c-2.31393,1.46215 -8.46514,-0.22411 -8.46514,-0.22411z" data-paper-data="{&quot;index&quot;:null}" fill="#fffc00" stroke-linecap="butt"/><path d="M219.91554,172.55191c0,0 3.79062,-4.90567 6.51173,-5.2019c2.72111,-0.29623 5.14935,1.50613 5.42364,4.02567c0.27429,2.51954 -1.70925,4.80219 -4.43036,5.09841c-2.72111,0.29623 -7.50501,-3.92218 -7.50501,-3.92218z" data-paper-data="{&quot;index&quot;:null}" fill="#fffc00" stroke-linecap="butt"/><path d="M263.92691,180.1418c0,0 -5.54503,2.77254 -8.12476,1.85758c-2.57973,-0.91497 -3.98423,-3.59307 -3.13704,-5.98172c0.8472,-2.38864 3.62527,-3.58328 6.205,-2.66832c2.57973,0.91497 5.0568,6.79245 5.0568,6.79245z" data-paper-data="{&quot;index&quot;:null}" fill="#fffc00" stroke-linecap="butt"/><path d="M263.81669,159.44036c0,0 -1.66163,5.97272 -4.07031,7.2729c-2.40868,1.30017 -5.33723,0.54618 -6.54108,-1.68408c-1.20387,-2.23026 -0.22716,-5.09224 2.18151,-6.39241c2.40868,-1.30017 8.42988,0.80359 8.42988,0.80359z" data-paper-data="{&quot;index&quot;:null}" fill="#fffc00" stroke-linecap="butt"/><path d="M266.61884,170.36041c0,0 -4.11783,4.63442 -6.85284,4.74351c-2.73501,0.10909 -5.03406,-1.8554 -5.13507,-4.38781c-0.10101,-2.53242 2.03426,-4.67378 4.76927,-4.78287c2.73501,-0.10909 7.21864,4.42718 7.21864,4.42718z" data-paper-data="{&quot;index&quot;:null}" fill="#fffc00" stroke-linecap="butt"/><path d="M233.98096,190.06203c0,0 -2.79586,-5.53332 -1.89176,-8.11687c0.9041,-2.58355 3.57627,-3.99932 5.96846,-3.16219c2.39219,0.83713 3.59851,3.61015 2.69441,6.19372c-0.9041,2.58355 -6.77111,5.08535 -6.77111,5.08535z" data-paper-data="{&quot;index&quot;:null}" fill="#fffc00" stroke-linecap="butt"/><path d="M254.68176,189.86466c0,0 -5.97966,-1.63648 -7.28996,-4.03966c-1.3103,-2.40318 -0.56864,-5.33488 1.65652,-6.54812c2.22517,-1.21324 5.09124,-0.2486 6.40153,2.15459c1.3103,2.40318 -0.7681,8.43319 -0.7681,8.43319z" data-paper-data="{&quot;index&quot;:null}" fill="#fffc00" stroke-linecap="butt"/><path d="M243.77359,192.71276c0,0 -4.65171,-4.09829 -4.77232,-6.83282c-0.1206,-2.73452 1.83419,-5.04182 4.36616,-5.15349c2.53197,-0.11167 4.6823,2.01458 4.8029,4.7491c0.1206,2.73452 -4.39676,7.23721 -4.39676,7.23721z" data-paper-data="{&quot;index&quot;:null}" fill="#fffc00" stroke-linecap="butt"/><path d="M239.38191,157.70112c1.12804,2.49393 0.17053,5.36238 -2.13867,6.40686c-2.3092,1.04448 -5.09563,-0.13054 -6.22367,-2.62447c-1.12804,-2.49393 1.16984,-8.25191 1.16984,-8.25191c0,0 6.06448,1.97557 7.19252,4.4695z" fill="#fffc00" stroke-linecap="butt"/><path d="M254.33474,159.93861c-1.09364,2.50921 -3.86366,3.72242 -6.187,2.7098c-2.32334,-1.01263 -3.32021,-3.86764 -2.22656,-6.37686c1.09364,-2.50921 6.90602,-4.66576 6.90602,-4.66576c0,0 2.60119,5.82361 1.50755,8.33283z" fill="#fffc00" stroke-linecap="butt"/><path d="M246.72746,156.55111c0.1206,2.73452 -1.83419,5.04182 -4.36616,5.15349c-2.53197,0.11167 -4.6823,-2.01458 -4.8029,-4.7491c-0.1206,-2.73452 4.15225,-7.22643 4.15225,-7.22643c0,0 4.89622,4.08751 5.01683,6.82204z" fill="#fffc00" stroke-linecap="butt"/><path d="M258.16208,171.21551c0.29183,6.61688 -6.39698,11.55141 -14.29672,11.89981c-7.89974,0.34841 -14.99699,-3.9781 -15.28882,-10.59498c-0.29183,-6.61688 6.33766,-12.8962 14.23741,-13.24461c7.89974,-0.34841 15.0563,5.32289 15.34813,11.93977z" fill="#efa900" stroke-linecap="butt"/><path d="M253.17882,175.06912c0,0 -6.63096,3.84472 -10.113,3.99829c-3.35983,0.14818 -10.42573,-3.09245 -10.42573,-3.09245" fill="none" stroke-linecap="round"/><g data-paper-data="{&quot;index&quot;:null}" stroke-linecap="butt"><path d="M238.88898,164.97586c1.50758,-0.06649 2.80126,1.5013 2.88949,3.50176c0.08823,2.00046 -1.06239,3.67605 -2.56999,3.74254c-1.50758,0.06649 -2.80126,-1.5013 -2.88949,-3.50176c-0.08823,-2.00046 1.06239,-3.67605 2.56999,-3.74254z" fill="#000000"/><path d="M239.61095,165.43907c0.84803,-0.0374 1.5757,0.84448 1.62533,1.96974c0.04963,1.12526 -0.59759,2.06778 -1.44561,2.10518c-0.84803,0.0374 -1.57571,-0.84448 -1.62534,-1.96974c-0.04963,-1.12526 0.59759,-2.06778 1.44562,-2.10518z" fill="#ffffff"/></g><g data-paper-data="{&quot;index&quot;:null}" stroke-linecap="butt"><path d="M246.74907,164.42891c1.50758,-0.06649 2.80126,1.5013 2.88949,3.50176c0.08823,2.00046 -1.06239,3.67605 -2.56999,3.74254c-1.50758,0.06649 -2.80126,-1.5013 -2.88949,-3.50176c-0.08823,-2.00046 1.06239,-3.67605 2.56999,-3.74254z" fill="#000000"/><path d="M247.47103,164.89213c0.84803,-0.0374 1.5757,0.84448 1.62533,1.96974c0.04963,1.12526 -0.59759,2.06778 -1.44561,2.10518c-0.84803,0.0374 -1.57571,-0.84448 -1.62534,-1.96974c-0.04963,-1.12526 0.59759,-2.06778 1.44562,-2.10518z" fill="#ffffff"/></g><path d="M228.13915,208.59954c-5.55155,-2.0855 -9.24915,-5.9132 -8.25883,-8.54941c0.99033,-2.63621 6.29356,-3.08265 11.8451,-0.99715c5.55155,2.0855 9.24915,5.91321 8.25883,8.54941c-0.99033,2.63621 -6.29356,3.08265 -11.8451,0.99714z" data-paper-data="{&quot;index&quot;:null}" fill="#00c902" stroke-linecap="butt"/><path d="M240.13172,207.29556c-0.99033,-2.63621 2.70728,-6.46391 8.25883,-8.54941c5.55155,-2.0855 10.85478,-1.63906 11.8451,0.99715c0.99033,2.63621 -2.70728,6.46391 -8.25883,8.54941c-5.55155,2.0855 -10.85478,1.63907 -11.8451,-0.99714z" data-paper-data="{&quot;index&quot;:null}" fill="#00c902" stroke-linecap="butt"/></g></g></svg>