<svg version="1.1" xmlns="http://www.w3.org/2000/svg" xmlns:xlink="http://www.w3.org/1999/xlink" width="51.11616" height="59.71639" viewBox="0,0,51.11616,59.71639"><g transform="translate(-209.52991,-150.6633)"><g data-paper-data="{&quot;isPaintingLayer&quot;:true}" fill-rule="nonzero" stroke="#000000" stroke-width="0.5" stroke-linejoin="miter" stroke-miterlimit="10" stroke-dasharray="" stroke-dashoffset="0" style="mix-blend-mode: normal"><path d="M237.66661,205.88441l-5.87771,-24.51407l4.28401,-1.02717l5.87771,24.51407z" fill="#00c902" stroke-linecap="butt"/><path d="M213.31098,161.4457c0,0 5.67777,-2.48945 8.20809,-1.44557c2.53032,1.04388 3.798,3.78939 2.83145,6.13228c-0.96655,2.34289 -3.80132,3.39594 -6.33164,2.35206c-2.53032,-1.04388 -4.70789,-7.03878 -4.70789,-7.03878z" data-paper-data="{&quot;index&quot;:null}" fill="#fffc00" stroke-linecap="butt"/><path d="M212.3773,182.12638c0,0 1.96066,-5.88135 4.43184,-7.05842c2.47117,-1.17707 5.35797,-0.27639 6.44785,2.01173c1.08988,2.28812 -0.02987,5.09722 -2.50105,6.27429c-2.47117,1.17707 -8.37865,-1.2276 -8.37865,-1.2276z" data-paper-data="{&quot;index&quot;:null}" fill="#fffc00" stroke-linecap="butt"/><path d="M210.1293,171.07892c0,0 4.34626,-4.42091 7.08329,-4.39196c2.73703,0.02895 4.93411,2.10686 4.90731,4.64115c-0.0268,2.53429 -2.26733,4.56527 -5.00436,4.53633c-2.73703,-0.02895 -6.98624,-4.78551 -6.98624,-4.78551z" data-paper-data="{&quot;index&quot;:null}" fill="#fffc00" stroke-linecap="butt"/><path d="M252.92819,183.84065c0,0 -5.835,2.09457 -8.28784,0.87978c-2.45285,-1.21479 -3.52944,-4.04071 -2.40463,-6.31187c1.1248,-2.27116 4.02508,-3.1275 6.47792,-1.91271c2.45285,1.21479 4.21456,7.34481 4.21456,7.34481z" data-paper-data="{&quot;index&quot;:null}" fill="#fffc00" stroke-linecap="butt"/><path d="M255.27665,163.27255c0,0 -2.35903,5.73319 -4.90504,6.73818c-2.54601,1.00499 -5.36432,-0.09137 -6.29487,-2.44879c-0.93054,-2.35742 0.37905,-5.0832 2.92506,-6.08818c2.54601,-1.00499 8.27484,1.7988 8.27484,1.7988z" data-paper-data="{&quot;index&quot;:null}" fill="#fffc00" stroke-linecap="butt"/><path d="M256.76243,174.44807c0,0 -4.63896,4.11272 -7.36757,3.89631c-2.72862,-0.21641 -4.77815,-2.43998 -4.57778,-4.96647c0.20038,-2.5265 2.5748,-4.39919 5.30341,-4.18278c2.72862,0.21641 6.64194,5.25294 6.64194,5.25294z" data-paper-data="{&quot;index&quot;:null}" fill="#fffc00" stroke-linecap="butt"/><path d="M222.01622,190.13519c0,0 -2.11911,-5.82613 -0.91465,-8.28407c1.20446,-2.45794 4.02582,-3.54642 6.30169,-2.43118c2.27587,1.11524 3.14443,4.01188 1.93997,6.46982c-1.20446,2.45794 -7.327,4.24543 -7.327,4.24543z" data-paper-data="{&quot;index&quot;:null}" fill="#fffc00" stroke-linecap="butt"/><path d="M242.59403,192.39705c0,0 -5.74306,-2.33487 -6.75876,-4.87663c-1.0157,-2.54176 0.0688,-5.36466 2.42227,-6.30512c2.35348,-0.94046 5.08473,0.35765 6.10043,2.89941c1.0157,2.54176 -1.76395,8.28234 -1.76395,8.28234z" data-paper-data="{&quot;index&quot;:null}" fill="#fffc00" stroke-linecap="butt"/><path d="M231.42486,193.92986c0,0 -4.13221,-4.62161 -3.92729,-7.35111c0.20492,-2.7295 2.41984,-4.78838 4.94716,-4.59864c2.52732,0.18974 4.40999,2.55626 4.20507,5.28576c-0.20492,2.7295 -5.22494,6.66399 -5.22494,6.66399z" data-paper-data="{&quot;index&quot;:null}" fill="#fffc00" stroke-linecap="butt"/><path d="M231.22121,158.64445c0.82395,2.61023 -0.46737,5.3447 -2.88424,6.10762c-2.41688,0.76292 -5.04409,-0.73462 -5.86804,-3.34485c-0.82395,-2.61023 2.14132,-8.05464 2.14132,-8.05464c0,0 5.78702,2.68163 6.61097,5.29186z" fill="#fffc00" stroke-linecap="butt"/><path d="M245.80262,162.64148c-1.38383,2.36161 -4.2783,3.23736 -6.46497,1.95604c-2.18667,-1.28132 -2.83751,-4.2345 -1.45368,-6.59611c1.38383,-2.36161 7.41113,-3.8128 7.41113,-3.8128c0,0 1.89135,6.09127 0.50752,8.45288z" fill="#fffc00" stroke-linecap="butt"/><path d="M238.65135,158.37471c-0.20492,2.7295 -2.41984,4.78839 -4.94716,4.59864c-2.52732,-0.18974 -4.40999,-2.55626 -4.20507,-5.28577c0.20492,-2.7295 4.98088,-6.68231 4.98088,-6.68231c0,0 4.37627,4.63993 4.17135,7.36943z" fill="#fffc00" stroke-linecap="butt"/><path d="M248.26397,174.29302c-0.49586,6.60472 -7.72323,10.71018 -15.60846,10.11818c-7.88523,-0.592 -14.41859,-5.73057 -13.92273,-12.33529c0.49586,-6.60472 7.82401,-12.0525 15.70924,-11.4605c7.88523,0.592 14.31781,7.07289 13.82195,13.67761z" fill="#efa900" stroke-linecap="butt"/><path d="M242.85842,177.52771c0,0 -7.04054,3.03023 -10.51618,2.76928c-3.35366,-0.25178 -9.98481,-4.30844 -9.98481,-4.30844" fill="none" stroke-linecap="round"/><g data-paper-data="{&quot;index&quot;:null}" stroke-linecap="butt"><path d="M229.86804,165.80921c1.50482,0.11298 2.60319,1.82327 2.45328,3.82006c-0.14991,1.99678 -1.49133,3.52391 -2.99616,3.41094c-1.50482,-0.11298 -2.60319,-1.82328 -2.45328,-3.82006c0.14991,-1.99678 1.49134,-3.52391 2.99616,-3.41093z" fill="#000000"/><path d="M230.5299,166.35485c0.84647,0.06355 1.46429,1.02559 1.37997,2.14878c-0.08433,1.12319 -0.83888,1.9822 -1.68534,1.91865c-0.84647,-0.06355 -1.4643,-1.02559 -1.37997,-2.14878c0.08433,-1.12319 0.83887,-1.9822 1.68534,-1.91865z" fill="#ffffff"/></g><g data-paper-data="{&quot;index&quot;:null}" stroke-linecap="butt"><path d="M237.73746,166.19938c1.50482,0.11298 2.60319,1.82328 2.45328,3.82006c-0.14991,1.99678 -1.49134,3.52391 -2.99616,3.41094c-1.50482,-0.11298 -2.60319,-1.82328 -2.45328,-3.82006c0.14991,-1.99678 1.49133,-3.52391 2.99616,-3.41093z" fill="#000000"/><path d="M238.39932,166.74502c0.84647,0.06355 1.46429,1.02559 1.37997,2.14879c-0.08433,1.12319 -0.83888,1.98219 -1.68534,1.91864c-0.84647,-0.06355 -1.4643,-1.02559 -1.37997,-2.14878c0.08433,-1.12319 0.83887,-1.9822 1.68534,-1.91865z" fill="#ffffff"/></g><path d="M228.13916,208.8164c-5.55155,-2.0855 -9.24915,-5.91321 -8.25883,-8.54942c0.99033,-2.63621 6.29355,-3.08264 11.8451,-0.99714c5.55155,2.0855 9.24915,5.91321 8.25883,8.54941c-0.99033,2.63621 -6.29355,3.08265 -11.8451,0.99715z" data-paper-data="{&quot;index&quot;:null}" fill="#00c902" stroke-linecap="butt"/><path d="M240.13172,207.29556c-0.99033,-2.63621 2.70728,-6.46391 8.25883,-8.54941c5.55155,-2.0855 10.85478,-1.63906 11.8451,0.99714c0.99032,2.63621 -2.70728,6.46391 -8.25883,8.54941c-5.55155,2.0855 -10.85478,1.63906 -11.8451,-0.99714z" data-paper-data="{&quot;index&quot;:null}" fill="#00c902" stroke-linecap="butt"/></g></g></svg>