<svg version="1.1" xmlns="http://www.w3.org/2000/svg" xmlns:xlink="http://www.w3.org/1999/xlink" width="47.62435" height="59.98457" viewBox="0,0,47.62435,59.98457"><g transform="translate(-213.18383,-150.39512)"><g data-paper-data="{&quot;isPaintingLayer&quot;:true}" fill-rule="nonzero" stroke="#000000" stroke-width="0.5" stroke-linejoin="miter" stroke-miterlimit="10" stroke-dasharray="" stroke-dashoffset="0" style="mix-blend-mode: normal"><path d="M237.55886,205.89073l-3.04259,-25.02458l4.37322,-0.53171l3.04259,25.02458z" fill="#00c902" stroke-linecap="butt"/><path d="M216.25523,162.73369c0,0 5.47546,-2.90754 8.07683,-2.05602c2.60137,0.85151 4.07104,3.49442 3.28261,5.90309c-0.78843,2.40867 -3.53642,3.671 -6.13779,2.81949c-2.60137,-0.85151 -5.22165,-6.66656 -5.22165,-6.66656z" data-paper-data="{&quot;index&quot;:null}" fill="#fffc00" stroke-linecap="butt"/><path d="M216.87245,183.42623c0,0 1.51484,-6.01163 3.89096,-7.37041c2.37611,-1.35878 5.32225,-0.67675 6.58037,1.52336c1.25813,2.20011 0.35182,5.08515 -2.02429,6.44393c-2.37611,1.35878 -8.44704,-0.59688 -8.44704,-0.59688z" data-paper-data="{&quot;index&quot;:null}" fill="#fffc00" stroke-linecap="butt"/><path d="M213.80368,172.57808c0,0 4.00309,-4.73389 6.7346,-4.90993c2.73152,-0.17604 5.078,1.73154 5.241,4.26073c0.163,2.52919 -1.91918,4.72221 -4.6507,4.89826c-2.73152,0.17604 -7.32491,-4.24905 -7.32491,-4.24905z" data-paper-data="{&quot;index&quot;:null}" fill="#fffc00" stroke-linecap="butt"/><path d="M257.43789,182.09979c0,0 -5.66181,2.52554 -8.19872,1.49779c-2.53691,-1.02775 -3.82205,-3.76513 -2.87043,-6.11413c0.95162,-2.349 3.77963,-3.42007 6.31654,-2.39233c2.53691,1.02775 4.75261,7.00867 4.75261,7.00867z" data-paper-data="{&quot;index&quot;:null}" fill="#fffc00" stroke-linecap="butt"/><path d="M258.2399,161.41359c0,0 -1.92318,5.89371 -4.38681,7.08649c-2.46362,1.19278 -5.35611,0.31049 -6.46053,-1.97065c-1.10442,-2.28114 -0.00258,-5.09731 2.46105,-6.29008c2.46363,-1.19278 8.38629,1.17424 8.38629,1.17424z" data-paper-data="{&quot;index&quot;:null}" fill="#fffc00" stroke-linecap="butt"/><path d="M260.55818,172.44651c0,0 -4.31804,4.44848 -7.05519,4.43696c-2.73716,-0.01152 -4.94741,-2.0754 -4.93675,-4.60981c0.01066,-2.53441 2.23822,-4.57961 4.97538,-4.56809c2.73716,0.01152 7.01656,4.74094 7.01656,4.74094z" data-paper-data="{&quot;index&quot;:null}" fill="#fffc00" stroke-linecap="butt"/><path d="M227.08391,190.69093c0,0 -2.54934,-5.65113 -1.53229,-8.19234c1.01706,-2.54121 3.74902,-3.83786 6.10199,-2.89614c2.35297,0.94172 3.43595,3.76521 2.41889,6.30642c-1.01706,2.54121 -6.9886,4.78206 -6.9886,4.78206z" data-paper-data="{&quot;index&quot;:null}" fill="#fffc00" stroke-linecap="butt"/><path d="M247.77331,191.40586c0,0 -5.90175,-1.89836 -7.10489,-4.35694c-1.20314,-2.45858 -0.33303,-5.35475 1.94343,-6.46877c2.27647,-1.11402 5.09724,-0.02403 6.30038,2.43456c1.20314,2.45858 -1.13893,8.39116 -1.13893,8.39116z" data-paper-data="{&quot;index&quot;:null}" fill="#fffc00" stroke-linecap="butt"/><path d="M236.75024,193.77056c0,0 -4.46661,-4.29927 -4.46661,-7.03646c0,-2.73719 2.05456,-4.95611 4.58899,-4.95611c2.53444,0 4.589,2.21892 4.589,4.95611c0,2.73719 -4.71137,7.03646 -4.71137,7.03646z" data-paper-data="{&quot;index&quot;:null}" fill="#fffc00" stroke-linecap="butt"/><path d="M233.90548,158.59942c1.01706,2.54121 -0.06591,5.3647 -2.41889,6.30642c-2.35298,0.94172 -5.08493,-0.35493 -6.10199,-2.89614c-1.01706,-2.54121 1.53229,-8.19234 1.53229,-8.19234c0,0 5.97154,2.24085 6.9886,4.78207z" fill="#fffc00" stroke-linecap="butt"/><path d="M248.7452,161.49358c-1.20314,2.45858 -4.02392,3.54858 -6.30039,2.43456c-2.27647,-1.11402 -3.14657,-4.01019 -1.94343,-6.46877c1.20314,-2.45858 7.10488,-4.35694 7.10488,-4.35694c0,0 2.34207,5.93257 1.13894,8.39116z" fill="#fffc00" stroke-linecap="butt"/><path d="M241.29457,157.77418c0,2.73719 -2.05456,4.95612 -4.58899,4.95612c-2.53443,0 -4.589,-2.21893 -4.589,-4.95612c0,-2.73719 4.46662,-7.03645 4.46662,-7.03645c0,0 4.71137,4.29927 4.71137,7.03645z" fill="#fffc00" stroke-linecap="butt"/><path d="M252.07195,172.92815c0,6.62331 -6.89973,11.25833 -14.80715,11.25833c-7.90742,0 -14.80715,-4.63502 -14.80715,-11.25833c0,-6.62331 6.89973,-12.60443 14.80715,-12.60443c7.90742,0 14.80715,5.98112 14.80715,12.60443z" fill="#efa900" stroke-linecap="butt"/><path d="M246.92374,176.55846c0,0 -6.79391,3.54882 -10.27935,3.54882c-3.36309,0 -10.27935,-3.54882 -10.27935,-3.54882" fill="none" stroke-linecap="round"/><g data-paper-data="{&quot;index&quot;:null}" stroke-linecap="butt"><path d="M233.0925,165.84538c1.50905,0 2.73238,1.62327 2.73238,3.62567c0,2.0024 -1.22332,3.62568 -2.73238,3.62568c-1.50905,0 -2.73239,-1.62327 -2.73239,-3.62568c0,-2.0024 1.22333,-3.62567 2.73239,-3.62567z" fill="#000000"/><path d="M233.79336,166.33995c0.84885,0 1.53697,0.91308 1.53697,2.03944c0,1.12635 -0.68813,2.03944 -1.53697,2.03944c-0.84885,0 -1.53697,-0.91309 -1.53697,-2.03944c0,-1.12635 0.68812,-2.03944 1.53697,-2.03944z" fill="#ffffff"/></g><g data-paper-data="{&quot;index&quot;:null}" stroke-linecap="butt"><path d="M240.96904,165.6453c1.50905,0 2.73239,1.62327 2.73239,3.62567c0,2.0024 -1.22333,3.62568 -2.73239,3.62568c-1.50905,0 -2.73239,-1.62327 -2.73239,-3.62568c0,-2.0024 1.22333,-3.62567 2.73239,-3.62567z" fill="#000000"/><path d="M241.6699,166.13986c0.84885,0 1.53696,0.91309 1.53696,2.03945c0,1.12635 -0.68812,2.03943 -1.53696,2.03943c-0.84885,0 -1.53697,-0.91308 -1.53697,-2.03943c0,-1.12635 0.68812,-2.03945 1.53697,-2.03945z" fill="#ffffff"/></g><path d="M228.13916,208.8164c-5.55155,-2.0855 -9.24915,-5.91321 -8.25883,-8.54942c0.99033,-2.63621 6.29355,-3.08264 11.8451,-0.99714c5.55155,2.0855 9.24915,5.91321 8.25883,8.54941c-0.99033,2.63621 -6.29355,3.08265 -11.8451,0.99715z" data-paper-data="{&quot;index&quot;:null}" fill="#00c902" stroke-linecap="butt"/><path d="M240.13172,207.29556c-0.99033,-2.63621 2.70728,-6.46391 8.25883,-8.54941c5.55155,-2.0855 10.85478,-1.63906 11.8451,0.99714c0.99032,2.63621 -2.70728,6.46391 -8.25883,8.54941c-5.55155,2.0855 -10.85478,1.63906 -11.8451,-0.99714z" data-paper-data="{&quot;index&quot;:null}" fill="#00c902" stroke-linecap="butt"/></g></g></svg>