<svg version="1.1" xmlns="http://www.w3.org/2000/svg" xmlns:xlink="http://www.w3.org/1999/xlink" width="55.31021" height="72.76703" viewBox="0,0,55.31021,72.76703"><g transform="translate(-214.83965,-143.28315)"><g data-paper-data="{&quot;isPaintingLayer&quot;:true}" fill-rule="nonzero" stroke="#000000" stroke-width="1.2" stroke-linejoin="miter" stroke-miterlimit="10" stroke-dasharray="" stroke-dashoffset="0" style="mix-blend-mode: normal"><path d="M229.80911,202.82471c-6.12434,-2.30068 -10.20345,-6.52331 -9.11095,-9.43151c1.09251,-2.9082 6.94291,-3.4007 13.06725,-1.10003c6.12434,2.30068 10.20345,6.52332 9.11095,9.43151c-1.09251,2.9082 -6.94291,3.4007 -13.06725,1.10002z" data-paper-data="{&quot;index&quot;:null}" fill="#00c902" stroke-linecap="butt"/><path d="M243.03904,201.14696c-1.09251,-2.9082 2.98661,-7.13083 9.11095,-9.43151c6.12434,-2.30068 11.97474,-1.80818 13.06725,1.10003c1.09251,2.9082 -2.98661,7.13083 -9.11095,9.43151c-6.12434,2.30068 -11.97474,1.80818 -13.06725,-1.10002z" data-paper-data="{&quot;index&quot;:null}" fill="#00c902" stroke-linecap="butt"/><path d="M240.39852,204.72098v-22.31124h5.61682v22.31124z" fill="#00ff0e" stroke-linecap="butt"/><path d="M250.12759,177.8168c0,3.31624 -3.00289,6.00458 -6.70716,6.00458c-3.70427,0 -6.70716,-2.68834 -6.70716,-6.00458c0,-3.31624 13.41431,-3.31624 13.41431,0z" fill="#00c902" stroke-linecap="butt"/><path d="M242.91647,202.56728c1.28787,3.42826 -3.52069,8.406 -10.7402,11.11809c-7.21951,2.71209 -14.11611,2.13152 -15.40397,-1.29673c-1.28787,-3.42826 3.52069,-8.406 10.7402,-11.11809c7.21951,-2.71209 14.11611,-2.13152 15.40397,1.29673z" fill="#00c902" stroke-linecap="butt"/><path d="M258.60105,201.32749c7.21951,2.71209 12.02806,7.68983 10.7402,11.11808c-1.28786,3.42826 -8.18446,4.00883 -15.40397,1.29673c-7.21951,-2.71209 -12.02806,-7.68983 -10.7402,-11.11809c1.28787,-3.42826 8.18445,-4.00883 15.40397,-1.29673z" data-paper-data="{&quot;index&quot;:null}" fill="#00c902" stroke-linecap="butt"/><path d="M242.18879,202.0952l-14.97817,6.24091" fill="none" stroke-linecap="round"/><path d="M259.19526,208.96019l-15.60226,-6.70897" fill="none" stroke-linecap="round"/><path d="M246.24538,199.59883l12.63784,-5.14875" fill="none" stroke-linecap="round"/><path d="M240.1605,199.59883l-14.04204,-4.99273" fill="none" stroke-linecap="round"/><path d="M228.88481,161.42469c0,-9.63833 6.66477,-17.45172 14.8862,-17.45172c8.22142,0 14.8862,7.8134 14.8862,17.45173c0,9.63833 -6.66477,17.45173 -14.8862,17.45173c-8.22142,0 -14.8862,-7.8134 -14.8862,-17.45172z" fill="#00ff0e" stroke-linecap="butt"/><g data-paper-data="{&quot;index&quot;:null}" stroke-linecap="butt"><path d="M243.37197,155.00759c1.77256,0 3.2095,2.23532 3.2095,4.99273c0,2.75741 -1.43695,4.99273 -3.2095,4.99273c-1.77256,0 -3.2095,-2.23532 -3.2095,-4.99273c0,-2.75741 1.43695,-4.99273 3.2095,-4.99273z" fill="#000000"/><path d="M244.1952,155.68863c0.99706,0 1.80534,1.25737 1.80534,2.80841c0,1.55104 -0.80828,2.80841 -1.80534,2.80841c-0.99706,0 -1.80534,-1.25737 -1.80534,-2.80841c0,-1.55104 0.80828,-2.80841 1.80534,-2.80841z" fill="#ffffff"/></g><g stroke-linecap="butt"><path d="M255.73549,162.0434c0,-8.8628 2.23669,-16.04753 4.99578,-16.04753c2.75909,0 4.99578,7.18472 4.99578,16.04753c0,8.8628 -2.23669,16.04752 -4.99578,16.04752c-2.75909,0 -4.99578,-7.18472 -4.99578,-16.04752z" fill="#00ff0e"/><path d="M257.34544,161.87214c0,-6.47953 1.52952,-11.73222 3.4163,-11.73222c1.88678,0 3.4163,5.25269 3.4163,11.73222c0,6.47953 -1.52952,11.73222 -3.4163,11.73222c-1.88678,0 -3.4163,-5.25269 -3.4163,-11.73222z" fill="#000000"/></g><path d="M224.20979,146.31095l1.23701,-1.83687l6.3718,5.89752l-1.23701,1.83686z" fill="#00c902" stroke-linecap="butt"/><path d="M223.97241,152.25159c-0.54586,1.24783 -2.56305,3.24613 -2.89101,4.34926c-0.89119,2.99773 0.49558,5.61383 0.29368,5.1978c-0.23386,-0.48187 -1.93109,-0.77402 -2.36602,-1.46339c-2.01098,-3.18729 -4.55612,-8.50685 -3.17728,-11.65876c2.02926,-4.63876 8.75026,-5.1785 9.69859,-4.60833c0.94834,0.57017 0.47132,3.54465 -1.55794,8.18341z" fill="#00c902" stroke-linecap="butt"/><g data-paper-data="{&quot;index&quot;:null}" stroke-linecap="butt"><path d="M250.50118,150.12844c1.61636,0 2.92667,2.03835 2.92667,4.55276c0,2.51443 -1.31032,4.55276 -2.92667,4.55276c-1.61636,0 -2.92667,-2.03835 -2.92667,-4.55276c0,-2.51443 1.31032,-4.55276 2.92667,-4.55276z" fill="#000000"/><path d="M251.25188,150.74947c0.90921,0 1.64626,1.14657 1.64626,2.56093c0,1.41436 -0.73706,2.56093 -1.64626,2.56093c-0.90921,0 -1.64626,-1.14657 -1.64626,-2.56093c0,-1.41436 0.73706,-2.56093 1.64626,-2.56093z" fill="#ffffff"/></g></g></g></svg>