<svg version="1.1" xmlns="http://www.w3.org/2000/svg" xmlns:xlink="http://www.w3.org/1999/xlink" width="52.07943" height="58.49471" viewBox="0,0,52.07943,58.49471"><g transform="translate(-219.4699,-151.66812)"><g data-paper-data="{&quot;isPaintingLayer&quot;:true}" fill-rule="nonzero" stroke="#000000" stroke-width="0.5" stroke-linejoin="miter" stroke-miterlimit="10" stroke-dasharray="" stroke-dashoffset="0" style="mix-blend-mode: normal"><path d="M236.38649,205.38254l6.6289,-24.32169l4.25039,1.15845l-6.6289,24.32169z" fill="#00c902" stroke-linecap="butt"/><path d="M225.86862,167.67569c0,0 4.81613,-3.90376 7.53252,-3.567c2.71639,0.33675 4.66569,2.6487 4.35389,5.16388c-0.31181,2.51517 -2.76666,4.28114 -5.48304,3.94438c-2.71639,-0.33675 -6.40336,-5.54126 -6.40336,-5.54126z" data-paper-data="{&quot;index&quot;:null}" fill="#fffc00" stroke-linecap="butt"/><path d="M230.44325,187.86567c0,0 0.33368,-6.19057 2.40506,-7.97986c2.07138,-1.7893 5.09363,-1.685 6.75038,0.23295c1.65675,1.91795 1.32063,4.92326 -0.75076,6.71255c-2.07138,1.7893 -8.40469,1.03436 -8.40469,1.03436z" data-paper-data="{&quot;index&quot;:null}" fill="#fffc00" stroke-linecap="butt"/><path d="M225.35076,177.80752c0,0 3.0208,-5.4138 5.66784,-6.11048c2.64704,-0.69669 5.31583,0.72544 5.96091,3.17639c0.64509,2.45096 -0.97782,5.00263 -3.62486,5.69932c-2.64704,0.69669 -8.00389,-2.76523 -8.00389,-2.76523z" data-paper-data="{&quot;index&quot;:null}" fill="#fffc00" stroke-linecap="butt"/><path d="M270.00112,178.78331c0,0 -5.07229,3.56459 -7.75922,3.04251c-2.68693,-0.52209 -4.47324,-2.96215 -3.98984,-5.45006c0.48341,-2.4879 3.05348,-4.08151 5.74041,-3.55944c2.68693,0.52209 6.00865,5.96698 6.00865,5.96698z" data-paper-data="{&quot;index&quot;:null}" fill="#fffc00" stroke-linecap="butt"/><path d="M266.82059,158.32737c0,0 -0.75705,6.15316 -2.94616,7.79632c-2.18911,1.64316 -5.19712,1.33204 -6.71856,-0.69492c-1.52145,-2.02695 -0.9802,-5.00217 1.2089,-6.64533c2.18911,-1.64316 8.45581,-0.45607 8.45581,-0.45607z" data-paper-data="{&quot;index&quot;:null}" fill="#fffc00" stroke-linecap="butt"/><path d="M271.21196,168.71078c0,0 -3.38463,5.19409 -6.07318,5.70778c-2.68855,0.51369 -5.25363,-1.08794 -5.72926,-3.57734c-0.47563,-2.4894 1.31829,-4.92388 4.00684,-5.43757c2.68855,-0.51369 7.79561,3.30712 7.79561,3.30712z" data-paper-data="{&quot;index&quot;:null}" fill="#fffc00" stroke-linecap="butt"/><path d="M241.85852,193.03691c0,0 -3.58591,-5.05724 -3.07515,-7.74634c0.51077,-2.6891 2.94329,-4.48567 5.43321,-4.01274c2.48992,0.47293 4.09433,3.03627 3.58357,5.72538c-0.51077,2.6891 -5.94164,6.03371 -5.94164,6.03371z" data-paper-data="{&quot;index&quot;:null}" fill="#fffc00" stroke-linecap="butt"/><path d="M262.3009,189.77029c0,0 -6.15628,-0.73115 -7.80865,-2.91332c-1.65236,-2.18217 -1.3539,-5.19146 0.66662,-6.72142c2.02053,-1.52997 4.998,-1.00125 6.65036,1.18093c1.65236,2.18217 0.49166,8.45382 0.49166,8.45382z" data-paper-data="{&quot;index&quot;:null}" fill="#fffc00" stroke-linecap="butt"/><path d="M251.93605,194.20533c0,0 -5.2083,-3.36274 -5.7333,-6.04911c-0.525,-2.68636 1.06582,-5.25816 3.5532,-5.74427c2.48738,-0.48611 4.92938,1.29756 5.45438,3.98391c0.525,2.68636 -3.27429,7.80947 -3.27429,7.80947z" data-paper-data="{&quot;index&quot;:null}" fill="#fffc00" stroke-linecap="butt"/><path d="M242.39821,160.23284c1.48559,2.29896 0.96427,5.27773 -1.1644,6.65327c-2.12867,1.37554 -5.0586,0.62696 -6.54418,-1.67199c-1.48559,-2.29896 -0.06747,-8.33415 -0.06747,-8.33415c0,0 6.29048,1.0539 7.77606,3.35285z" fill="#fffc00" stroke-linecap="butt"/><path d="M257.51751,160.22696c-0.70924,2.64371 -3.26858,4.25448 -5.71646,3.59779c-2.44788,-0.65671 -3.85731,-3.33221 -3.14807,-5.97592c0.70924,-2.64371 6.13731,-5.63878 6.13731,-5.63878c0,0 3.43646,5.37321 2.72722,8.01691z" fill="#fffc00" stroke-linecap="butt"/><path d="M249.49182,158.00566c0.525,2.68636 -1.06582,5.25816 -3.55319,5.74427c-2.48738,0.48611 -4.92938,-1.29756 -5.45438,-3.98391c-0.525,-2.68636 3.03408,-7.76253 3.03408,-7.76253c0,0 5.4485,3.3158 5.9735,6.00217z" fill="#fffc00" stroke-linecap="butt"/><path d="M262.97568,170.81116c1.27036,6.50034 -4.61226,12.37269 -12.37286,13.88935c-7.76061,1.51666 -15.42124,-1.70892 -16.69161,-8.20926c-1.27036,-6.50034 4.35407,-13.6938 12.11468,-15.21046c7.76061,-1.51666 15.67943,3.03003 16.94979,9.53037z" fill="#efa900" stroke-linecap="butt"/><path d="M258.61934,175.3615c0,0 -5.98711,4.78602 -9.40783,5.45453c-3.30066,0.64505 -10.76917,-1.51133 -10.76917,-1.51133" fill="none" stroke-linecap="round"/><g data-paper-data="{&quot;index&quot;:null}" stroke-linecap="butt"><path d="M242.99011,167.50019c1.48103,-0.28944 2.99301,1.06905 3.37707,3.03427c0.38407,1.96522 -0.50521,3.79299 -1.98625,4.08243c-1.48103,0.28944 -2.99301,-1.06905 -3.37707,-3.03427c-0.38407,-1.96522 0.50521,-3.79299 1.98625,-4.08243z" fill="#000000"/><path d="M243.77282,167.85115c0.83309,-0.16281 1.68355,0.60135 1.89959,1.70678c0.21604,1.10544 -0.28418,2.13355 -1.11726,2.29636c-0.83309,0.16281 -1.68356,-0.60134 -1.8996,-1.70678c-0.21604,-1.10544 0.28418,-2.13356 1.11727,-2.29637z" fill="#ffffff"/></g><g data-paper-data="{&quot;index&quot;:null}" stroke-linecap="butt"><path d="M250.68204,165.79308c1.48103,-0.28944 2.99301,1.06905 3.37707,3.03427c0.38407,1.96522 -0.5052,3.793 -1.98625,4.08244c-1.48103,0.28944 -2.99301,-1.06906 -3.37707,-3.03428c-0.38407,-1.96522 0.50521,-3.79299 1.98625,-4.08243z" fill="#000000"/><path d="M251.46474,166.14405c0.83309,-0.16281 1.68356,0.60135 1.8996,1.70678c0.21604,1.10544 -0.28418,2.13356 -1.11726,2.29637c-0.83309,0.16281 -1.68356,-0.60135 -1.8996,-1.70678c-0.21604,-1.10544 0.28417,-2.13356 1.11726,-2.29637z" fill="#ffffff"/></g><path d="M228.13915,208.59954c-5.55155,-2.0855 -9.24915,-5.9132 -8.25883,-8.54941c0.99033,-2.63621 6.29356,-3.08265 11.8451,-0.99715c5.55155,2.0855 9.24915,5.91321 8.25883,8.54941c-0.99033,2.63621 -6.29356,3.08265 -11.8451,0.99714z" data-paper-data="{&quot;index&quot;:null}" fill="#00c902" stroke-linecap="butt"/><path d="M240.13172,207.29556c-0.99033,-2.63621 2.70728,-6.46391 8.25883,-8.54941c5.55155,-2.0855 10.85478,-1.63906 11.8451,0.99715c0.99033,2.63621 -2.70728,6.46391 -8.25883,8.54941c-5.55155,2.0855 -10.85478,1.63907 -11.8451,-0.99714z" data-paper-data="{&quot;index&quot;:null}" fill="#00c902" stroke-linecap="butt"/></g></g></svg>