<svg version="1.1" xmlns="http://www.w3.org/2000/svg" xmlns:xlink="http://www.w3.org/1999/xlink" width="42.76174" height="45.08649" viewBox="0,0,42.76174,45.08649"><g transform="translate(-218.09996,-162.99454)"><g data-paper-data="{&quot;isPaintingLayer&quot;:true}" fill-rule="nonzero" stroke-width="0.5" stroke-linejoin="miter" stroke-miterlimit="10" stroke-dasharray="" stroke-dashoffset="0" style="mix-blend-mode: normal"><path d="M259.90772,180.46621c2.97602,11.98655 -3.75686,23.9742 -15.03833,26.77516c-11.28147,2.80096 -22.83943,-4.64544 -25.81545,-16.632c-2.97602,-11.98655 3.75688,-23.9742 15.03833,-26.77516c11.28147,-2.80096 22.83943,4.64544 25.81545,16.632z" fill="#d68d00" stroke="#000000" stroke-linecap="butt"/><path d="M248.76985,192.07183c0,0 -1.31995,3.03578 -3.71248,3.6298c-2.45551,0.60965 -4.97979,-1.07047 -4.97979,-1.07047" fill="none" stroke="#000000" stroke-linecap="round"/><g stroke-linecap="butt"><path d="M238.89984,180.48642c0.70024,2.82036 -0.92319,5.65072 -3.62606,6.32179c-2.70285,0.67106 -5.46159,-1.07129 -6.16183,-3.89165c-0.70024,-2.82036 0.92318,-5.65072 3.62604,-6.32178c2.70285,-0.67106 5.46161,1.07128 6.16185,3.89165z" fill="#ffffff" stroke="#000000"/><path d="M235.85067,181.44407c-0.09716,-0.39133 0.14132,-0.78733 0.53264,-0.88449c0.39133,-0.09716 0.78731,0.14132 0.88447,0.53265c0.09716,0.39133 -0.14131,0.78731 -0.53263,0.88447c-0.39133,0.09716 -0.78733,-0.14131 -0.88449,-0.53263z" fill="#000000" stroke="none"/></g><g stroke-linecap="butt"><path d="M252.1028,177.10809c0.70024,2.82036 -0.92319,5.65072 -3.62606,6.32179c-2.70285,0.67106 -5.46159,-1.07129 -6.16183,-3.89165c-0.70024,-2.82036 0.92319,-5.65072 3.62604,-6.32178c2.70285,-0.67106 5.46161,1.07128 6.16185,3.89165z" fill="#ffffff" stroke="#000000"/><path d="M249.33705,177.99538c-0.09716,-0.39133 0.14132,-0.78731 0.53265,-0.88447c0.39133,-0.09716 0.78731,0.14131 0.88447,0.53263c0.09716,0.39133 -0.14131,0.78733 -0.53263,0.88449c-0.39133,0.09716 -0.78733,-0.14132 -0.88449,-0.53264z" fill="#000000" stroke="none"/></g></g></g></svg>