<svg version="1.1" xmlns="http://www.w3.org/2000/svg" xmlns:xlink="http://www.w3.org/1999/xlink" width="93.72945" height="167.95851" viewBox="0,0,93.72945,167.95851"><g transform="translate(-196.05374,-95.15732)"><g data-paper-data="{&quot;isPaintingLayer&quot;:true}" fill-rule="nonzero" stroke="#000000" stroke-linecap="butt" stroke-linejoin="miter" stroke-miterlimit="10" stroke-dasharray="" stroke-dashoffset="0" style="mix-blend-mode: normal"><g data-paper-data="{&quot;index&quot;:null}" stroke-width="2"><path d="M220.65706,221.35332c-0.38485,0.88969 -14.47955,0.93606 -15.75797,-0.91278c-3.26463,-4.72122 -1.43057,-15.04405 -1.27835,-16.34399c0.62371,-5.32662 17.95882,-2.72724 17.33511,2.59938c-0.15998,1.36624 1.76251,9.89223 -0.2988,14.65738z" fill="#8a9e8d"/><path d="M221.22077,206.32479c0.03623,0.49162 -17.01825,-0.25538 -17.30996,-2.97477c-0.74248,-6.92163 9.24965,-26.77598 15.61437,-35.61336c1.86542,-2.59016 4.72261,-3.67872 5.65056,-3.54171c4.70264,0.69439 6.04408,4.87997 6.04408,4.87997c0,0 -10.47055,30.85179 -9.99902,37.24986z" fill="#89623d"/></g><path d="M264.20653,240.28087c0,0 -4.74319,-4.56059 -6.46554,-7.14144c-1.54772,-2.31917 -3.40077,-7.64272 -3.40077,-7.64272l7.8984,-5.19712c0,0 2.62466,5.22353 4.33293,7.0723c2.32195,2.51291 8.43973,6.8571 8.43973,6.8571z" fill="#8a9e8d" stroke-width="2"/><path d="M236.23274,216.70132c-0.7687,-0.53485 0.50244,7.77795 -0.21146,15.41677c-0.61032,6.53016 -3.94701,14.94027 -4.45161,15.23368c-2.5262,1.46903 -20.17644,-0.55168 -20.11434,-1.21389c0.30028,-3.20115 2.92055,-8.15091 4.46974,-13.64397c0.05355,-0.18988 3.35997,-0.50397 3.86567,-1.82845c0.24561,-0.64332 -2.54088,-2.12357 -2.1348,-2.79611c1.00923,-1.67138 5.97389,-3.08505 6.03223,-3.66865c0.23004,-2.30164 -6.032,-3.77671 -5.95729,-5.21394c0.42644,-8.20244 -0.09297,-14.9197 -0.09297,-14.9197l46.87386,-0.51406l4.36442,23.33033l-6.74651,-1.12174l-3.24618,4.02535l-9.48032,-1.34095l0.54452,-10.46688c0,0 -3.47058,0.63697 -7.0541,0.48279c-0.94318,-0.04059 -1.14598,-2.35559 -2.04359,-2.53046c-1.55676,-0.30327 -3.70106,1.40735 -4.61722,0.76989z" fill="#757ad6" stroke-width="2"/><path d="M237.01696,257.08957c0,4.79232 -26.74097,4.79232 -26.74097,0c0,-0.35323 -0.91492,-9.76037 0.61206,-10.02638c3.96013,-0.68983 13.13981,-2.28821 19.86794,0.46989c5.2202,2.13994 6.26094,8.54702 6.26094,9.55649z" fill="#5c422a" stroke-width="2"/><path d="M263.8949,247.32523c0,0 -0.40154,-4.03945 -1.08074,-5.4438c-0.74402,-1.53839 -4.21064,-4.42728 -4.21064,-4.42728l6.18656,-1.67286l3.36114,-3.75394l5.31435,-0.74361l3.05515,-2.24641c0,0 3.44896,2.85239 4.01575,4.02432c0.78808,1.62949 1.38782,5.54388 1.38782,5.54388z" fill="#757ad6" stroke-width="2"/><path d="M261.62041,247.44765c5.80419,-6.46903 16.51341,-9.52619 21.13347,-10.84479c1.78147,-0.50843 5.69245,10.08983 5.87626,10.4699c2.49389,5.15653 -26.27952,19.07243 -28.77341,13.9159c-0.52532,-1.08618 -2.73967,-8.52186 1.76365,-13.541z" data-paper-data="{&quot;index&quot;:null}" fill="#5c422a" stroke-width="2"/><g stroke-width="2"><path d="M232.37489,204.13336c0,0 3.08257,-13.99606 2.36164,-21.48556c-0.76425,-7.93956 -6.82474,-24.88045 -6.82474,-24.88045h15.41796c0,0 5.73664,16.33792 6.55901,24.16934c0.79996,7.618 -1.69021,22.19664 -1.69021,22.19664z" fill="#ffffff"/><path d="M248.08001,204.86021c0.65651,-5.41105 2.41463,-16.75093 1.85473,-22.47175c-0.81728,-8.35078 -7.74424,-25.58541 -7.74424,-25.58541l12.57782,-5.18792c0,0 9.3519,13.46467 11.19036,26.6113c1.19988,8.5802 -0.3812,22.71321 -0.43323,27.7112c-0.01441,1.38607 -17.70363,1.0506 -17.44546,-1.07743z" data-paper-data="{&quot;index&quot;:null}" fill="#89623d"/><path d="M216.7173,205.21062c0.082,-5.2406 1.60617,-14.22198 1.46895,-23.86003c-0.17693,-12.42635 3.23377,-26.01629 3.23377,-26.01629l9.73764,3.22051c0,0 4.98896,16.88554 5.36636,24.10922c0.32901,6.29762 -1.12768,17.57667 -1.51804,22.54511c-0.11715,1.49099 -18.30366,0.95644 -18.28871,0.00152z" fill="#89623d"/></g><g><path d="M232.01856,189.7416c-0.10097,-6.19156 2.60217,-17.60838 3.52589,-22.27246c0.30927,-1.56157 5.36519,-1.80878 6.08413,-0.28236c2.14644,4.55717 4.7106,15.75784 4.99527,21.94703c0.02386,0.51866 -4.48719,11.97136 -6.97826,11.90297c-2.0987,-0.05764 -7.62221,-10.99949 -7.62703,-11.29517z" fill="#ff0000" stroke-width="1"/><path d="M246.16738,162.91161c0,0 -2.42732,5.57741 -7.60886,5.33489c-4.95651,-0.23198 -7.87124,-5.33489 -7.87124,-5.33489z" fill="#ff0000" stroke-width="1"/><path d="M231.86636,180.62933l0.25947,-1.67164l14.15135,2.31409l0.30649,1.8333z" fill="#ffffff" stroke-width="0"/><path d="M233.189,174.23208l0.36586,-1.77941l11.22581,2.04466l0.412,1.72555z" fill="#ffffff" stroke-width="0"/><path d="M230.99177,187.90419l0.13755,-1.88719l16.51607,2.36799c0,0 0.07614,0.56148 0.05444,0.83399c-0.02391,0.30003 -0.19198,0.89156 -0.19198,0.89156z" fill="#ffffff" stroke-width="0"/><path d="M234.32546,195.71793l-1.05949,-1.99497l11.15282,2.36799l-0.79197,1.67164z" fill="#ffffff" stroke-width="0"/></g><g stroke-width="2"><path d="M263.11063,196.75895c-1.51729,-5.61452 16.66401,-11.16349 18.18134,-5.54898c0.37028,1.3702 3.98164,12.15134 1.23154,17.73568c-1.07693,2.18684 -16.20362,4.38166 -16.75814,3.48859c-2.97001,-4.78329 -2.26556,-14.2352 -2.65473,-15.67529z" fill="#8a9e8d"/><path d="M246.10946,158.03769c0,0 0.7724,-4.7035 5.7063,-6.19726c0.97356,-0.29474 4.21179,0.41794 6.62532,2.89931c8.23472,8.4662 22.115,28.17255 22.42083,35.71561c0.12015,2.96352 -18.05511,6.48076 -18.09455,5.94763c-0.5131,-6.93827 -16.65795,-38.36531 -16.65795,-38.36531z" fill="#89623d"/></g><g><g><path d="M208.48409,144.36098l0.68212,-17.07939l31.13706,7.77874l-3.50936,19.09414z" fill="#693939" stroke-width="0"/><path d="M206.29242,135.14844l2.58831,-6.76725l6.47588,1.34807l0.19704,7.34707z" fill="#faffe0" stroke-width="1.125"/><path d="M220.64152,134.13239l0.20407,-5.10922l5.51199,1.72181l-0.37632,5.05542z" fill="#faffe0" stroke-width="1.125"/><path d="M228.18338,138.52051l1.30909,-4.39452l7.50741,1.97562l-3.47679,4.0869z" data-paper-data="{&quot;index&quot;:null}" fill="#faffe0" stroke-width="1.125"/><path d="M226.16675,149.71449l0.87981,-6.7456l7.50742,1.97563l-2.35851,6.6532z" fill="#faffe0" stroke-width="1.125"/><path d="M213.86212,144.94704l0.02976,-3.32542l6.34784,1.80742l-1.24969,3.11985z" fill="#faffe0" stroke-width="1.125"/><path d="M202.81551,125.40862c0.10647,-25.38585 24.96397,-33.10514 42.77244,-27.54216c17.80845,5.56297 28.02512,24.23863 22.81957,41.71325c-5.20556,17.47462 -23.86209,27.13092 -41.67057,21.56794c-8.37386,-2.61583 -15.72744,-9.33421 -19.93002,-16.26048c-1.81733,-2.99514 28.60069,6.22391 29.07256,6.22942c0.39596,0.00461 4.70338,-10.35218 0.90947,-13.58832c-9.53403,-8.13237 -33.98822,-8.59426 -33.97342,-12.1197z" fill="#8a9e8d" stroke-width="2"/></g><g><path d="M231.56058,118.24035c1.81944,-6.10771 8.48607,-9.43728 14.89032,-7.43673c6.40424,2.00055 10.12095,8.57359 8.30149,14.68131c-1.81944,6.10771 -8.48608,9.4373 -14.8903,7.43675c-6.40424,-2.00055 -10.12093,-8.57362 -8.30149,-14.68134z" fill="#fdfff3" stroke-width="2"/><path d="M244.68709,119.86461c0.37937,-1.27348 1.76939,-1.96773 3.10471,-1.55059c1.33532,0.41713 2.11023,1.78762 1.73088,3.06112c-0.37935,1.27348 -1.76936,1.96774 -3.10468,1.55062c-1.33532,-0.41712 -2.11026,-1.78765 -1.7309,-3.06114z" fill="#000000" stroke-width="0"/></g><g><path d="M197.05374,111.14019c1.45146,-4.87247 6.76973,-7.52862 11.87875,-5.93267c5.10901,1.59596 8.07402,6.83961 6.62255,11.71207c-1.45146,4.87247 -6.76978,7.52862 -11.87876,5.93266c-5.10901,-1.59596 -8.07399,-6.83959 -6.62254,-11.71205z" fill="#fdfff3" stroke-width="2"/><path d="M202.48912,111.81069c0.37935,-1.27348 1.76938,-1.96771 3.10471,-1.55059c1.33532,0.41712 2.11023,1.78764 1.73086,3.06111c-0.37935,1.27348 -1.76937,1.96769 -3.10466,1.55058c-1.33532,-0.41712 -2.11028,-1.78761 -1.73091,-3.06111z" fill="#000000" stroke-width="0"/></g></g></g></g></svg>