<svg version="1.1" xmlns="http://www.w3.org/2000/svg" xmlns:xlink="http://www.w3.org/1999/xlink" width="72.32072" height="73.9337" viewBox="0,0,72.32072,73.9337"><g transform="translate(-213.08964,-141.86648)"><g data-paper-data="{&quot;isPaintingLayer&quot;:true}" fill-rule="nonzero" stroke="#000000" stroke-width="1.2" stroke-linejoin="miter" stroke-miterlimit="10" stroke-dasharray="" stroke-dashoffset="0" style="mix-blend-mode: normal"><path d="M230.05911,202.57471c-6.12434,-2.30068 -10.20345,-6.52331 -9.11095,-9.43151c1.09251,-2.9082 6.94291,-3.4007 13.06725,-1.10003c6.12434,2.30068 10.20345,6.52332 9.11095,9.43151c-1.09251,2.9082 -6.94291,3.4007 -13.06725,1.10002z" data-paper-data="{&quot;index&quot;:null}" fill="#00c902" stroke-linecap="butt"/><path d="M243.28904,200.89696c-1.09251,-2.9082 2.98661,-7.13083 9.11095,-9.43151c6.12434,-2.30068 11.97474,-1.80818 13.06725,1.10003c1.09251,2.9082 -2.98661,7.13083 -9.11095,9.43151c-6.12434,2.30068 -11.97474,1.80818 -13.06725,-1.10002z" data-paper-data="{&quot;index&quot;:null}" fill="#00c902" stroke-linecap="butt"/><path d="M240.42927,201.31536l6.75344,-21.26459l5.35332,1.70017l-6.75344,21.26458z" fill="#00ff0e" stroke-linecap="butt"/><path d="M259.90025,176.34004c-0.05384,3.31581 -3.65955,5.94595 -8.05359,5.87461c-4.39404,-0.07134 -7.91247,-2.81716 -7.85863,-6.13297c0.05383,-3.31581 15.96605,-3.05745 15.91222,0.25835z" fill="#00c902" stroke-linecap="butt"/><path d="M243.16647,202.31728c1.28787,3.42826 -3.52069,8.406 -10.7402,11.11809c-7.21951,2.71209 -14.11611,2.13152 -15.40397,-1.29673c-1.28787,-3.42826 3.52069,-8.406 10.7402,-11.11809c7.21951,-2.71209 14.11611,-2.13152 15.40397,1.29673z" fill="#00c902" stroke-linecap="butt"/><path d="M258.85105,201.07749c7.21951,2.71209 12.02806,7.68983 10.7402,11.11808c-1.28786,3.42826 -8.18446,4.00883 -15.40397,1.29673c-7.21951,-2.71209 -12.02806,-7.68983 -10.7402,-11.11809c1.28787,-3.42826 8.18445,-4.00883 15.40397,-1.29673z" data-paper-data="{&quot;index&quot;:null}" fill="#00c902" stroke-linecap="butt"/><path d="M242.43879,201.8452l-14.97817,6.24091" fill="none" stroke-linecap="round"/><path d="M243.843,202.00122l15.60226,6.70897" fill="none" stroke-linecap="round"/><path d="M246.49538,199.34883l12.63784,-5.14875" fill="none" stroke-linecap="round"/><path d="M240.4105,199.34883l-14.04204,-4.99273" fill="none" stroke-linecap="round"/><path d="M232.70494,160.00802c0,-9.63833 9.42589,-17.45172 21.05334,-17.45172c11.62745,0 21.05334,7.8134 21.05334,17.45173c0,9.63833 -9.42589,17.45173 -21.05334,17.45173c-11.62745,0 -21.05332,-7.8134 -21.05332,-17.45172z" fill="#00ff0e" stroke-linecap="butt"/><g data-paper-data="{&quot;index&quot;:null}" stroke-linecap="butt"><path d="M253.19393,156.09093c2.5069,0 4.53914,1.04141 4.53914,2.32606c0,1.28465 -2.03224,2.32606 -4.53914,2.32606c-2.5069,0 -4.53915,-1.04142 -4.53915,-2.32606c0,-1.28465 2.03225,-2.32606 4.53915,-2.32606z" fill="#000000"/><path d="M254.35821,156.40821c1.41013,0 2.55326,0.5858 2.55326,1.30841c0,0.72261 -1.14313,1.30841 -2.55326,1.30841c-1.41013,0 -2.55327,-0.5858 -2.55327,-1.30841c0,-0.72261 1.14314,-1.30841 2.55327,-1.30841z" fill="#ffffff"/></g><g stroke-linecap="butt"><path d="M270.67947,160.62673c0,-8.8628 3.16331,-16.04753 7.06545,-16.04753c3.90214,0 7.06545,7.18472 7.06545,16.04753c0,8.8628 -3.16331,16.04752 -7.06545,16.04752c-3.90214,0 -7.06545,-7.18472 -7.06545,-16.04752z" fill="#00ff0e"/><path d="M272.9564,160.45547c0,-6.47953 2.16319,-11.73222 4.83162,-11.73222c2.66844,0 4.83162,5.25269 4.83162,11.73222c0,6.47953 -2.16319,11.73222 -4.83162,11.73222c-2.66844,0 -4.83162,-5.25269 -4.83162,-11.73222z" fill="#000000"/></g><path d="M226.4467,145.14428l1.74948,-1.83687l9.01154,5.89752l-1.74948,1.83686z" fill="#00c902" stroke-linecap="butt"/><path d="M225.75741,150.83492c-0.77201,1.24783 -3.62489,3.24613 -4.0887,4.34926c-1.2604,2.99773 0.70089,5.61383 0.41534,5.1978c-0.33074,-0.48187 -2.73112,-0.77402 -3.34623,-1.46339c-2.8441,-3.18729 -6.44366,-8.50685 -4.49359,-11.65876c2.86997,-4.63876 12.37536,-5.1785 13.71656,-4.60833c1.34121,0.57017 0.66658,3.54465 -2.20337,8.18341z" fill="#00c902" stroke-linecap="butt"/><g data-paper-data="{&quot;index&quot;:null}" stroke-linecap="butt"><path d="M263.27666,152.71177c2.28598,0 4.13916,1.03099 4.13916,2.30276c0,1.27178 -1.85316,2.30276 -4.13916,2.30276c-2.28598,0 -4.13916,-1.03098 -4.13916,-2.30276c0,-1.27178 1.85316,-2.30276 4.13916,-2.30276z" fill="#000000"/><path d="M264.33836,153.02589c1.28588,0 2.32827,0.57993 2.32827,1.2953c0,0.71537 -1.0424,1.2953 -2.32827,1.2953c-1.28588,0 -2.32828,-0.57993 -2.32828,-1.2953c0,-0.71537 1.0424,-1.2953 2.32828,-1.2953z" fill="#ffffff"/></g></g></g></svg>