<svg version="1.1" xmlns="http://www.w3.org/2000/svg" xmlns:xlink="http://www.w3.org/1999/xlink" width="47.88437" height="56.19794" viewBox="0,0,47.88437,56.19794"><g transform="translate(-215.9038,-154.18175)"><g data-paper-data="{&quot;isPaintingLayer&quot;:true}" fill-rule="nonzero" stroke="#000000" stroke-width="0.5" stroke-linejoin="miter" stroke-miterlimit="10" stroke-dasharray="" stroke-dashoffset="0" style="mix-blend-mode: normal"><path d="M237.10572,205.71703v-25.20887h4.40543v25.20887z" fill="#00c902" stroke-linecap="butt"/><path d="M228.13915,208.8164c-5.55155,-2.0855 -9.24915,-5.9132 -8.25883,-8.54941c0.99033,-2.63621 6.29356,-3.08265 11.8451,-0.99715c5.55155,2.0855 9.24915,5.91321 8.25883,8.54941c-0.99033,2.63621 -6.29356,3.08265 -11.8451,0.99714z" data-paper-data="{&quot;index&quot;:null}" fill="#00c902" stroke-linecap="butt"/><path d="M240.13172,207.29557c-0.99033,-2.63621 2.70728,-6.46391 8.25883,-8.54941c5.55155,-2.0855 10.85478,-1.63906 11.8451,0.99715c0.99033,2.63621 -2.70728,6.46391 -8.25883,8.54941c-5.55155,2.0855 -10.85478,1.63907 -11.8451,-0.99714z" data-paper-data="{&quot;index&quot;:null}" fill="#00c902" stroke-linecap="butt"/><g><path d="M219.20542,165.99334c0,0 5.54846,-2.76568 8.12705,-1.84752c2.57861,0.91816 3.97978,3.598 3.12964,5.9856c-0.85015,2.38759 -3.6297,3.57879 -6.20829,2.66063c-2.57861,-0.91816 -5.04839,-6.7987 -5.04839,-6.7987z" data-paper-data="{&quot;index&quot;:null}" fill="#fffc00" stroke-linecap="butt"/><path d="M219.29002,186.69491c0,0 1.66902,-5.97066 4.0793,-7.26785c2.41029,-1.29719 5.3379,-0.5396 6.539,1.69216c1.20111,2.23175 0.22086,5.09252 -2.18943,6.3897c-2.41029,1.29719 -8.42889,-0.81402 -8.42889,-0.81402z" data-paper-data="{&quot;index&quot;:null}" fill="#fffc00" stroke-linecap="butt"/><path d="M216.50139,175.7714c0,0 4.12356,-4.62932 6.85871,-4.73504c2.73515,-0.10572 5.03175,1.86164 5.12963,4.39417c0.09788,2.53253 -2.04005,4.67126 -4.77519,4.77697c-2.73515,0.10572 -7.21317,-4.4361 -7.21317,-4.4361z" data-paper-data="{&quot;index&quot;:null}" fill="#fffc00" stroke-linecap="butt"/><path d="M259.87617,186.41262c0,0 -5.72492,2.37902 -8.23454,1.28634c-2.50963,-1.09268 -3.72391,-3.86222 -2.71217,-6.18596c1.01175,-2.32373 3.86637,-3.32169 6.37599,-2.22902c2.50963,1.09268 4.5707,7.12862 4.5707,7.12862z" data-paper-data="{&quot;index&quot;:null}" fill="#fffc00" stroke-linecap="butt"/><path d="M261.21015,165.75393c0,0 -2.07418,5.84228 -4.56768,6.97127c-2.4935,1.12899 -5.36232,0.17258 -6.40769,-2.13621c-1.04537,-2.3088 0.12857,-5.09569 2.62207,-6.22467c2.4935,-1.12899 8.3533,1.38962 8.3533,1.38962z" data-paper-data="{&quot;index&quot;:null}" fill="#fffc00" stroke-linecap="butt"/><path d="M263.2438,176.84283c0,0 -4.43106,4.3359 -7.16701,4.25396c-2.73595,-0.08194 -4.8924,-2.20201 -4.81652,-4.7353c0.07588,-2.5333 2.35532,-4.52051 5.09128,-4.43857c2.73595,0.08194 6.89226,4.91991 6.89226,4.91991z" data-paper-data="{&quot;index&quot;:null}" fill="#fffc00" stroke-linecap="butt"/><path d="M229.3112,194.21995c0,0 -2.40309,-5.71486 -1.321,-8.22905c1.08211,-2.5142 3.84652,-3.74014 6.17449,-2.73819c2.32797,1.00195 3.33795,3.85234 2.25583,6.36657c-1.08211,2.5142 -7.10933,4.60069 -7.10933,4.60069z" data-paper-data="{&quot;index&quot;:null}" fill="#fffc00" stroke-linecap="butt"/><path d="M249.97534,195.46695c0,0 -5.85095,-2.04958 -6.99045,-4.5383c-1.13949,-2.48872 -0.19514,-5.36155 2.10923,-6.41663c2.30438,-1.05508 5.09617,0.10712 6.23565,2.59586c1.13949,2.48872 -1.35445,8.35907 -1.35445,8.35907z" data-paper-data="{&quot;index&quot;:null}" fill="#fffc00" stroke-linecap="butt"/><path d="M238.89509,197.54726c0,0 -4.35452,-4.41277 -4.28411,-7.14905c0.07043,-2.73628 2.1814,-4.9016 4.71499,-4.83639c2.53359,0.06521 4.53038,2.33627 4.45996,5.07253c-0.07043,2.73628 -4.89085,6.91291 -4.89085,6.91291z" data-paper-data="{&quot;index&quot;:null}" fill="#fffc00" stroke-linecap="butt"/><path d="M236.95619,162.31458c0.95135,2.56654 -0.20391,5.36121 -2.58035,6.24209c-2.37643,0.88087 -5.07411,-0.48565 -6.02547,-3.05218c-0.95135,-2.56654 1.74256,-8.15022 1.74256,-8.15022c0,0 5.91191,2.39376 6.86325,4.9603z" fill="#fffc00" stroke-linecap="butt"/><path d="M251.71653,165.58959c-1.266,2.42681 -4.11388,3.44385 -6.36094,2.27164c-2.24705,-1.17222 -3.04235,-4.08982 -1.77635,-6.51664c1.266,-2.42681 7.21464,-4.17269 7.21464,-4.17269c0,0 2.18865,5.99087 0.92265,8.41768z" fill="#fffc00" stroke-linecap="butt"/><path d="M244.36407,161.67972c-0.07043,2.73628 -2.18139,4.90161 -4.71498,4.83639c-2.53359,-0.06521 -4.53038,-2.33626 -4.45996,-5.07254c0.07043,-2.73628 4.64619,-6.91921 4.64619,-6.91921c0,0 4.5992,4.41907 4.52878,7.15537z" fill="#fffc00" stroke-linecap="butt"/><path d="M254.748,177.10597c-0.1704,6.62112 -7.18712,11.07708 -15.09192,10.87363c-7.9048,-0.20345 -14.68298,-5.01446 -14.51258,-11.63558c0.1704,-6.62112 7.22175,-12.42273 15.12655,-12.21928c7.9048,0.20345 14.64836,6.36011 14.47794,12.98123z" fill="#efa900" stroke-linecap="butt"/><path d="M249.50808,180.60261c0,0 -6.88298,3.37284 -10.36726,3.28317c-3.36198,-0.08653 -10.18464,-3.81213 -10.18464,-3.81213" fill="none" stroke-linecap="round"/><g data-paper-data="{&quot;index&quot;:null}" stroke-linecap="butt"><path d="M235.95706,169.53721c1.50855,0.03883 2.68971,1.69303 2.63819,3.69477c-0.05152,2.00174 -1.31621,3.59299 -2.82477,3.55417c-1.50855,-0.03883 -2.68972,-1.69304 -2.6382,-3.69477c0.05152,-2.00174 1.31622,-3.59299 2.82477,-3.55416z" fill="#000000"/><path d="M236.64495,170.04964c0.84856,0.02184 1.51295,0.95232 1.48397,2.07832c-0.02898,1.12597 -0.74037,2.02107 -1.58892,1.99922c-0.84856,-0.02184 -1.51297,-0.95232 -1.48398,-2.07831c0.02898,-1.12597 0.74037,-2.02107 1.58893,-1.99922z" fill="#ffffff"/></g><g data-paper-data="{&quot;index&quot;:null}" stroke-linecap="butt"><path d="M243.83614,169.53985c1.50855,0.03883 2.68973,1.69303 2.63821,3.69477c-0.05152,2.00174 -1.31622,3.59299 -2.82477,3.55416c-1.50855,-0.03883 -2.68972,-1.69303 -2.6382,-3.69477c0.05152,-2.00174 1.31621,-3.593 2.82477,-3.55417z" fill="#000000"/><path d="M244.52403,170.05229c0.84856,0.02184 1.51295,0.95233 1.48397,2.07831c-0.02898,1.12597 -0.74037,2.02107 -1.58892,1.99922c-0.84856,-0.02184 -1.51296,-0.95233 -1.48399,-2.07831c0.02898,-1.12597 0.74037,-2.02105 1.58893,-1.99922z" fill="#ffffff"/></g></g></g></g></svg>