<svg version="1.1" xmlns="http://www.w3.org/2000/svg" xmlns:xlink="http://www.w3.org/1999/xlink" width="277.45075" height="198.36881" viewBox="0,0,277.45075,198.36881"><g transform="translate(-101.52038,-82.66609)"><g data-paper-data="{&quot;isPaintingLayer&quot;:true}" fill-rule="nonzero" stroke-linecap="butt" stroke-linejoin="miter" stroke-miterlimit="10" stroke-dasharray="" stroke-dashoffset="0" style="mix-blend-mode: normal"><path d="M103,275l17.31621,-40.92803c0,0 -17.31621,-34.1684 -17.31621,-47.07197c0,-12.80278 14,-49 14,-49l-14,-53l20.35781,0.93162l18.14219,14.06838l4.97662,-13.05297l23.97368,0.27269l28.70649,0.8654l6.9991,17.27423l11.34057,-21.6882l159.50353,1.32885l0.9657,75.88006l-22.9657,22.11994l22.45887,26.00983l-0.45887,65.99017l-114.66073,4.47337l-22.83927,-19.47337l-30.90823,20.02075z" fill="#ffe187" stroke="#000000" stroke-width="2"/><path d="M354,144c0,2.5 -2.5,2.5 -2.5,2.5l-0.20943,-0.12829c-2.25037,0.75012 -4.51706,1.45156 -6.79057,2.12829c-4.90909,-1.50235 -7.14416,0.15692 -12.19555,-0.00766c-2.89911,-0.09445 -3.56407,-1.66345 -6.2049,-2.02462c-1.32104,-0.18067 -2.6807,0.19295 -4,0c-3.6536,-0.53434 -7.18665,-2.57652 -10.905,-2.98645c-3.65059,-0.40246 -9.59376,-0.65304 -13.29409,-0.01355c-1.0387,0.17951 -1.95946,0.83152 -3,1c-0.34497,0.05586 -5.84871,0.00122 -6.38546,0.08114c-7.09286,1.05602 -14.50217,2.58016 -21.31602,4.85144c-2.73925,0.67396 -5.59435,0.73107 -8.39351,1.08097c-4.49098,0.56137 -7.99504,1.56534 -12.70591,0.98645c-1.04622,-0.12856 -1.96025,-0.82671 -3,-1c-0.98639,-0.1644 -2.01406,0.16709 -3,0c-5.32643,-0.90268 -10.42078,-3.25756 -15.84589,-3.97989c-3.50643,-0.46686 -6.46678,1.47287 -10.05911,0.99344c-6.82523,-0.9109 -13.46102,-4.17125 -20.2644,-5.00568c-3.81901,-0.4684 -5.28041,0.30715 -8.99289,1.26932c-12.3729,1.76139 -26.46694,1.53572 -38.74271,-0.26363c-7.97285,-1.16864 -15.84216,1.96113 -23.69454,2.01873c0,0 -2.5,0 -2.5,-2.5c0,-2.5 2.5,-2.5 2.5,-2.5c2.22328,0.01994 4.39852,-0.65329 6.59954,-0.96772c4.73959,-0.67707 9.56859,-1.04663 14.40046,-1.03228c2.4587,0.0073 4.87274,0.66215 7.30546,1.01873c4.02965,0.59066 8.603,-0.01873 12.69454,-0.01873c6.84811,0 13.67733,0.314 20.46224,-0.65911c4.66228,-1.17977 5.68847,-1.86125 10.69418,-1.31227c6.76615,0.74204 13.399,3.9434 20.14904,4.99012c3.42699,0.53142 6.41239,-1.41862 9.94089,-1.00656c7.55667,0.88246 14.74306,4.0764 22.15411,5.02011c4.21296,0.53647 7.26627,-0.51007 11.29409,-1.01355c2.53421,-0.31678 5.13164,-0.28837 7.60649,-0.91903c7.04778,-2.34926 14.75115,-3.95448 22.09562,-5.01246c2.04659,-0.29481 4.16512,0.29564 6.2029,-0.05496c1.03883,-0.17873 1.95936,-0.83216 3,-1c4.16109,-0.67111 10.61305,-0.47141 14.70591,-0.01355c3.78248,0.42314 7.39167,2.49819 11.095,3.01355c1.32061,0.18378 2.68109,-0.1956 4,0c2.01876,0.2994 3.75434,1.95659 5.7951,1.97538c4.43415,0.04081 7.38113,-1.63438 11.80445,-0.00766c1.7164,-0.67719 3.45896,-1.28822 5.20943,-1.87171l1.79057,-0.12829c0,0 2.5,0 2.5,2.5z" fill="#000000" stroke="none" stroke-width="0.5"/><path d="M349,182c0,2.5 -2.5,2.5 -2.5,2.5h-2c-5.10717,0 -9.83649,-1.17955 -14.90978,-1.00163c-3.12053,0.10944 -6.19431,1.10409 -9.31473,0.99153c-1.1114,-0.04009 -2.0798,-0.8343 -3.17594,-1.02218c-2.39056,-0.40973 -6.13553,-0.2479 -8.53227,0.05741c-3.3682,0.42905 -6.43698,1.58759 -9.82093,1.9627c-1.27418,0.14124 -2.57618,-0.19707 -3.84589,-0.02011c-4.6925,0.65396 -9.31501,3.2079 -14,4c-3.49761,0.59135 -6.51634,0.87267 -10,2c-13.9196,0.13214 -28.46121,4.74626 -42.41843,0.80044c-1.85565,-0.52461 -3.68498,-1.22251 -5.35825,-2.18106c-1.76065,-1.0086 -2.90157,-2.94542 -4.72215,-3.84131c-4.097,-2.01611 -9.30577,-1.77869 -13.21595,-4.11916c-1.98771,-1.18976 -2.9526,-3.6691 -4.8916,-4.93671c-0.58718,-0.38387 -1.40181,-0.16218 -2.07171,-0.37045c-1.55719,-0.48413 -3.05822,-1.13324 -4.58733,-1.69986c-9.20086,-1.25236 -19.53591,0.43463 -28.60798,2.32421c-2.03077,0.42298 -6.66371,1.81672 -8.2216,2.03746c-3.89122,0.55136 -6.13548,-1.51232 -9.70591,-2.01355c-2.60942,-0.36632 -5.2896,0.33435 -7.905,0.01355c-3.73312,-0.4579 -7.4232,-1.68252 -11.29409,-1.01355c-2.12949,0.36802 -4.2395,1.01177 -6.40046,1.03228c0,0 -2.5,0 -2.5,-2.5c0,-2.5 2.5,-2.5 2.5,-2.5c1.89404,0.02352 3.72953,-0.66612 5.59954,-0.96772c4.35788,-0.70285 8.49298,0.44918 12.70591,0.98645c2.67666,0.34135 5.42452,-0.37321 8.095,0.01355c2.93525,0.42511 5.20984,2.51386 8.29409,1.98645c12.90303,-2.20643 25.40729,-6.03915 38.64752,-4.25125c2.58685,0.94745 5.53797,1.06622 7.86387,2.5426c2.02416,1.28485 3.05457,3.82642 5.1084,5.06329c3.65239,2.19956 8.89717,1.91386 12.78405,3.88084c3.83163,1.93902 4.89124,4.55842 9.20436,5.69153c6.81674,1.79085 15.55968,1.49379 22.54192,1.05909c6.07972,-0.37851 11.64655,-2.0484 17.75489,-1.97255c3.40479,-1.17537 6.56106,-1.43628 10,-2c4.6863,-0.76819 9.29508,-3.31343 14,-4c1.37021,-0.19995 2.77761,0.1305 4.15411,-0.02011c3.30854,-0.36202 6.48793,-1.54816 9.79069,-1.95962c2.77609,-0.34584 7.09199,-0.46882 9.85611,-0.02027c0.98332,0.15957 1.82858,0.94024 2.82406,0.97782c2.91247,0.10995 5.77204,-0.92114 8.68527,-1.00847c5.18811,-0.15553 9.90977,0.99837 15.09022,0.99837h2c0,0 2.5,0 2.5,2.5z" fill="#000000" stroke="none" stroke-width="0.5"/><path d="M355,219c0,2.5 -2.5,2.5 -2.5,2.5h-2c-1.19146,-0.02229 -2.42545,0.2494 -3.57438,-0.06688c-2.54454,-0.70045 -4.23465,-2.54935 -6.82607,-2.9654c-3.93711,-0.6321 -8.61581,0.03228 -12.59954,0.03228c-1.66667,0 -3.34047,0.15407 -5,0c-0.79241,-0.07356 -1.71106,-1.22326 -2.28953,-0.67674c-0.69334,0.65505 0.74545,2.29617 -0.02286,2.86142c-1.75677,1.29245 -4.19628,1.19079 -6.29442,1.78619c-16.02026,3.20379 -31.94582,7.59613 -48.38868,7.97727c-7.48666,0.17354 -15.01247,-1.89722 -22.30997,-2.96687c-1.92371,-0.28197 -3.89242,0.1379 -5.83279,0.01491c-5.35594,-0.33949 -10.98274,-0.71879 -16.16721,-2.01491c-11.49126,0.04585 -22.43917,-2.27569 -33.84989,-2.9861c-17.46359,-1.08724 -35.34185,0.00483 -52.84466,0.00483c0,0 -2.5,0 -2.5,-2.5c0,-2.5 2.5,-2.5 2.5,-2.5c17.60736,0 35.58678,-1.08895 53.15534,0.00483c8.02968,0.49991 15.96903,2.54598 24,3c3.37798,0.19097 6.76676,0.00196 10.15011,0.0139c5.08799,1.272 10.5761,1.64846 15.83279,1.98509c0.85783,0.05493 5.4952,-0.0788 6.16721,0.01491c7.05886,0.98434 14.34295,3.11488 21.57783,2.93088c16.15343,-0.41083 31.78772,-4.73306 47.52933,-7.88164c1.17046,-0.05832 2.62931,0.5966 3.51139,-0.17497c0.81213,-0.71039 -0.54298,-2.63416 0.36553,-3.21626c1.61395,-1.03408 3.79747,-0.55586 5.71047,-0.67674c5.63395,-0.35598 12.83012,-0.92081 18.40046,0.03228c3.67319,0.62849 5.8407,3.07136 9.59954,2.96772h2c0,0 2.5,0 2.5,2.5z" fill="#000000" stroke="none" stroke-width="0.5"/></g></g></svg>