<svg version="1.1" xmlns="http://www.w3.org/2000/svg" xmlns:xlink="http://www.w3.org/1999/xlink" width="89.54228" height="164.45886" viewBox="0,0,89.54228,164.45886"><g transform="translate(-186.85267,-100.35816)"><g data-paper-data="{&quot;isPaintingLayer&quot;:true}" fill-rule="nonzero" stroke="#000000" stroke-linecap="butt" stroke-linejoin="miter" stroke-miterlimit="10" stroke-dasharray="" stroke-dashoffset="0" style="mix-blend-mode: normal"><g data-paper-data="{&quot;index&quot;:null}" stroke-width="2"><path d="M260.76193,200.89328c0.55246,0.79652 -6.84888,12.79165 -9.09398,12.90139c-5.73316,0.28027 -13.53215,-6.72689 -14.55583,-7.54241c-4.19465,-3.34168 7.16435,-16.69219 11.359,-13.3505c1.0759,0.85712 9.33194,3.72529 12.29081,7.99152z" fill="#8a9e8d"/><path d="M248.29575,192.48083c0.43666,0.22876 -9.20096,14.31881 -11.66454,13.13097c-6.27052,-3.02339 -17.85792,-21.991 -22.00353,-32.06188c-1.21506,-2.95167 -0.63124,-5.95295 -0.025,-6.66872c3.07231,-3.62738 7.33528,-2.55707 7.33528,-2.55707c0,0 20.67499,25.17956 26.3578,28.15668z" fill="#89623d"/></g><path d="M256.36492,242.7729c0,0 -2.28438,-6.17077 -2.71123,-9.24406c-0.38358,-2.76167 0.26605,-8.36096 0.26605,-8.36096l9.37325,-1.23977c0,0 0.08855,5.84519 0.82147,8.25329c0.99622,3.27318 4.61228,9.84762 4.61228,9.84762z" fill="#8a9e8d" stroke-width="2"/><path d="M235.73273,216.20133c-0.7687,-0.53485 0.50244,7.77795 -0.21146,15.41677c-0.61032,6.53015 -3.94701,14.94027 -4.45161,15.23368c-2.5262,1.46904 -20.17645,-0.55168 -20.11434,-1.21389c0.30028,-3.20115 2.92055,-8.15091 4.46974,-13.64397c0.05355,-0.18988 3.35997,-0.50397 3.86567,-1.82845c0.24561,-0.64332 -2.54088,-2.12357 -2.1348,-2.79611c1.00923,-1.67138 5.97388,-3.08505 6.03222,-3.66865c0.23004,-2.30164 -6.032,-3.77671 -5.95729,-5.21394c0.42644,-8.20244 -0.09297,-14.9197 -0.09297,-14.9197l46.87386,-0.51406l4.36442,23.33033l-6.74651,-1.12174l-3.24619,4.02535l-9.48032,-1.34095l0.54453,-10.46688c0,0 -3.47058,0.63697 -7.0541,0.48279c-0.94318,-0.04059 -1.14599,-2.35559 -2.0436,-2.53046c-1.55676,-0.30327 -3.70106,1.40735 -4.61722,0.76989z" fill="#757ad6" stroke-width="2"/><path d="M237.01694,257.08957c0,4.79232 -26.74097,4.79232 -26.74097,0c0,-0.35324 -0.91492,-9.76037 0.61206,-10.02638c3.96013,-0.68983 13.13981,-2.28821 19.86794,0.46988c5.2202,2.13994 6.26094,8.54702 6.26094,9.55649z" fill="#5c422a" stroke-width="2"/><path d="M253.01733,248.97884c0,0 1.39725,-3.81131 1.39725,-5.37128c0,-1.70887 -1.86299,-5.81889 -1.86299,-5.81889l6.29775,1.18759l4.66027,-1.91604l5.10796,1.64439l3.72843,-0.69212c0,0 1.86299,4.06949 1.86299,5.37128c0,1.81005 -1.16438,5.59507 -1.16438,5.59507z" fill="#757ad6" stroke-width="2"/><path d="M250.91645,248.09876c8.04173,-3.29659 19.01368,-1.38609 23.74694,-0.56161c1.82512,0.31792 0.73156,11.56172 0.73156,11.98392c0,5.72794 -31.96188,5.72794 -31.96188,0c0,-1.20654 1.24398,-8.86456 7.48334,-11.4223z" data-paper-data="{&quot;index&quot;:null}" fill="#5c422a" stroke-width="2"/><g stroke-width="2"><path d="M232.37488,204.13337c0,0 3.08257,-13.99606 2.36164,-21.48556c-0.76425,-7.93956 -6.82474,-24.88045 -6.82474,-24.88045h15.41796c0,0 5.73664,16.33792 6.55901,24.16934c0.79996,7.618 -1.69021,22.19664 -1.69021,22.19664z" fill="#ffffff"/><path d="M248.08,204.86023c0.65651,-5.41105 2.41464,-16.75093 1.85473,-22.47175c-0.81728,-8.35078 -7.74423,-25.58541 -7.74423,-25.58541l12.57782,-5.18792c0,0 9.3519,13.46467 11.19036,26.6113c1.19988,8.5802 -0.3812,22.71321 -0.43323,27.7112c-0.01441,1.38607 -17.70363,1.0506 -17.44547,-1.07743z" data-paper-data="{&quot;index&quot;:null}" fill="#89623d"/><path d="M216.71729,205.21063c0.082,-5.2406 1.60617,-14.22198 1.46895,-23.86003c-0.17693,-12.42635 3.23377,-26.01629 3.23377,-26.01629l9.73764,3.22051c0,0 4.98896,16.88554 5.36636,24.10922c0.32901,6.29762 -1.12768,17.57667 -1.51804,22.54511c-0.11715,1.49099 -18.30366,0.95644 -18.28871,0.00152z" fill="#89623d"/></g><g><path d="M232.01855,189.74162c-0.10097,-6.19156 2.60217,-17.60838 3.52589,-22.27246c0.30927,-1.56157 5.36518,-1.80878 6.08413,-0.28236c2.14644,4.55717 4.71061,15.75784 4.99527,21.94703c0.02386,0.51866 -4.48719,11.97136 -6.97826,11.90297c-2.0987,-0.05764 -7.62221,-10.99949 -7.62703,-11.29517z" fill="#ff0000" stroke-width="1"/><path d="M246.16737,162.91161c0,0 -2.42732,5.57741 -7.60885,5.33489c-4.95651,-0.23198 -7.87125,-5.33489 -7.87125,-5.33489z" fill="#ff0000" stroke-width="1"/><path d="M231.86634,180.62935l0.25947,-1.67164l14.15134,2.3141l0.30649,1.8333z" fill="#ffffff" stroke-width="0"/><path d="M233.18899,174.23209l0.36586,-1.77941l11.22581,2.04466l0.412,1.72555z" fill="#ffffff" stroke-width="0"/><path d="M230.99176,187.90421l0.13755,-1.88719l16.51607,2.36799c0,0 0.07614,0.56148 0.05444,0.83399c-0.02391,0.30003 -0.19199,0.89156 -0.19199,0.89156z" fill="#ffffff" stroke-width="0"/><path d="M234.32545,195.71795l-1.05949,-1.99497l11.15282,2.36799l-0.79197,1.67164z" fill="#ffffff" stroke-width="0"/></g><g stroke-width="2"><path d="M253.8924,199.47012c-0.36369,-5.80454 18.56008,-7.60503 18.92381,-1.80049c0.08875,1.41657 1.47084,12.70217 -2.34059,17.62363c-1.49255,1.92725 -16.75259,1.05231 -17.11727,0.06637c-1.95332,-5.28065 0.62735,-14.40069 0.53406,-15.88953z" fill="#8a9e8d"/><path d="M244.97923,158.13089c0,0 1.69752,-4.45398 6.8305,-4.93074c1.01284,-0.09406 4.0431,1.25189 5.91158,4.16584c6.37504,9.94213 16.03349,32.02645 14.82447,39.47827c-0.475,2.92769 -18.98649,2.73867 -18.9185,2.20844c0.88497,-6.90071 -8.64808,-40.92182 -8.64808,-40.92182z" fill="#89623d"/></g><g><g><path d="M223.96644,166.57152l-13.8863,-10.27378l23.72642,-21.71358l14.00443,13.79096z" fill="#693939" stroke-width="0"/><path d="M215.05985,163.17806l-4.21937,-6.01613l4.70934,-4.66921l6.2449,4.00785z" fill="#faffe0" stroke-width="1.125"/><path d="M222.15154,150.55834l-4.15401,-3.07337l4.48808,-3.64796l4.01377,3.18737z" fill="#faffe0" stroke-width="1.125"/><path d="M229.98963,146.72129l-2.94566,-3.5948l5.80424,-5.17847l1.48924,5.23933z" data-paper-data="{&quot;index&quot;:null}" fill="#faffe0" stroke-width="1.125"/><path d="M238.22229,154.77208l-5.1467,-4.56997l5.80425,-5.17847l4.25128,5.75849z" fill="#faffe0" stroke-width="1.125"/><path d="M227.43188,162.39087l-2.76073,-1.91386l5.0221,-4.30084l1.91399,2.82093z" fill="#faffe0" stroke-width="1.125"/><path d="M205.0017,160.56375c-21.14195,-14.50883 -13.83349,-39.75533 0.66693,-51.54138c14.50039,-11.78603 35.75077,-9.75244 47.46408,4.54215c11.71328,14.2946 9.45388,35.43713 -5.04652,47.22319c-6.81836,5.542 -16.49837,7.89742 -24.60836,7.49025c-3.50702,-0.17607 21.02438,-20.46808 21.2901,-20.86097c0.22296,-0.3297 -6.0429,-9.82751 -10.84495,-8.4816c-12.06747,3.38223 -25.98522,23.64321 -28.92128,21.62829z" fill="#8a9e8d" stroke-width="2"/></g><g><path d="M214.92158,132.36758c-4.09401,-4.99625 -3.18564,-12.4825 2.02898,-16.72096c5.21461,-4.23846 12.76073,-3.62418 16.85475,1.37208c4.09401,4.99625 3.18564,12.4825 -2.02895,16.72096c-5.21461,4.23846 -12.76075,3.62414 -16.85476,-1.3721z" fill="#fdfff3" stroke-width="2"/><path d="M223.54177,122.27364c-0.85361,-1.04174 -0.66422,-2.60266 0.42306,-3.4864c1.08728,-0.88375 2.66064,-0.75564 3.51427,0.2861c0.85363,1.04173 0.66425,2.60264 -0.42302,3.48639c-1.08728,0.88375 -2.66067,0.75564 -3.51431,-0.28609z" fill="#000000" stroke-width="0"/></g><g><path d="M189.89717,157.29471c-3.26603,-3.98578 -2.54138,-9.95789 1.6186,-13.33916c4.16,-3.38125 10.17992,-2.89119 13.44593,1.09458c3.26603,3.98578 2.54135,9.95794 -1.61861,13.33917c-4.16,3.38125 -10.17988,2.89119 -13.44592,-1.09458z" fill="#fdfff3" stroke-width="2"/><path d="M193.46486,153.11387c-0.85363,-1.04173 -0.66421,-2.60266 0.42306,-3.4864c1.08727,-0.88375 2.66066,-0.75563 3.51426,0.28611c0.85363,1.04173 0.66421,2.60263 -0.42304,3.48637c-1.08727,0.88375 -2.66065,0.75567 -3.51429,-0.28607z" fill="#000000" stroke-width="0"/></g></g></g></g></svg>