<svg version="1.1" xmlns="http://www.w3.org/2000/svg" xmlns:xlink="http://www.w3.org/1999/xlink" width="97.09788" height="169.78884" viewBox="0,0,97.09788,169.78884"><g transform="translate(-184.02899,-95.37697)"><g data-paper-data="{&quot;isPaintingLayer&quot;:true}" fill-rule="nonzero" stroke="#000000" stroke-linecap="butt" stroke-linejoin="miter" stroke-miterlimit="10" stroke-dasharray="" stroke-dashoffset="0" style="mix-blend-mode: normal"><g data-paper-data="{&quot;index&quot;:null}" stroke-width="2"><path d="M187.70362,180.89543c-0.94813,-0.20176 -3.77424,-14.01031 -2.21394,-15.62833c3.98438,-4.13188 14.46616,-4.3704 15.77057,-4.47762c5.34499,-0.4394 6.21663,17.06782 0.87164,17.50722c-1.37096,0.1127 -9.3501,3.67944 -14.42826,2.59873z" fill="#8a9e8d"/><path d="M202.548,178.48318c-0.47481,0.13251 -3.10706,-16.73416 -0.49867,-17.55662c6.63912,-2.09342 28.07454,3.78538 37.99388,8.28155c2.90727,1.31777 4.53811,3.90405 4.58686,4.84079c0.247,4.7472 -3.59166,6.88802 -3.59166,6.88802c0,0 -32.31112,-4.17821 -38.49041,-2.45371z" fill="#89623d"/></g><path d="M259.62172,243.21828c0,0 -2.84576,-5.93283 -3.55525,-8.95342c-0.63756,-2.71431 -0.50901,-8.34969 -0.50901,-8.34969l9.21825,-2.10207c0,0 0.62922,5.8119 1.58189,8.14182c1.29492,3.16691 5.50401,9.37842 5.50401,9.37842z" fill="#8a9e8d" stroke-width="2"/><path d="M236.23274,216.70133c-0.7687,-0.53485 0.50244,7.77795 -0.21146,15.41677c-0.61032,6.53015 -3.94701,14.94027 -4.45161,15.23368c-2.5262,1.46904 -20.17645,-0.55168 -20.11434,-1.21389c0.30028,-3.20115 2.92055,-8.15091 4.46974,-13.64397c0.05355,-0.18988 3.35997,-0.50397 3.86567,-1.82845c0.24561,-0.64332 -2.54088,-2.12357 -2.1348,-2.79611c1.00923,-1.67138 5.97388,-3.08505 6.03222,-3.66865c0.23004,-2.30164 -6.032,-3.77671 -5.95729,-5.21394c0.42644,-8.20244 -0.09297,-14.9197 -0.09297,-14.9197l46.87386,-0.51406l4.36442,23.33033l-6.74651,-1.12174l-3.24619,4.02535l-9.48032,-1.34095l0.54453,-10.46688c0,0 -3.47058,0.63697 -7.0541,0.48279c-0.94318,-0.04059 -1.14599,-2.35559 -2.0436,-2.53046c-1.55676,-0.30327 -3.70106,1.40735 -4.61722,0.76989z" fill="#757ad6" stroke-width="2"/><path d="M237.01695,257.08958c0,4.79232 -26.74097,4.79232 -26.74097,0c0,-0.35324 -0.91492,-9.76037 0.61206,-10.02638c3.96013,-0.68983 13.13981,-2.28821 19.86794,0.46988c5.2202,2.13994 6.26094,8.54702 6.26094,9.55649z" fill="#5c422a" stroke-width="2"/><path d="M256.86295,249.70746c0,0 1.03846,-3.92428 0.89407,-5.47756c-0.15819,-1.70154 -2.39361,-5.62147 -2.39361,-5.62147l6.38063,0.59956l4.46291,-2.33918l5.23824,1.16452l3.64836,-1.03427c0,0 2.23168,3.87958 2.35218,5.17578c0.16754,1.80228 -0.64148,5.67883 -0.64148,5.67883z" fill="#757ad6" stroke-width="2"/><path d="M254.68962,249.02561c7.70206,-4.0268 18.80375,-3.14012 23.593,-2.7573c1.84672,0.14762 1.79861,11.44437 1.83769,11.86475c0.53021,5.70335 -31.29447,8.66186 -31.82466,2.95851c-0.11168,-1.20137 0.41811,-8.94165 6.39392,-12.06595z" data-paper-data="{&quot;index&quot;:null}" fill="#5c422a" stroke-width="2"/><g stroke-width="2"><path d="M232.37489,204.13337c0,0 3.08257,-13.99606 2.36164,-21.48556c-0.76425,-7.93956 -6.82474,-24.88045 -6.82474,-24.88045h15.41796c0,0 5.73664,16.33792 6.55901,24.16934c0.79996,7.618 -1.69021,22.19664 -1.69021,22.19664z" fill="#ffffff"/><path d="M248.08001,204.86023c0.65651,-5.41105 2.41464,-16.75093 1.85473,-22.47175c-0.81728,-8.35078 -7.74423,-25.58541 -7.74423,-25.58541l12.57782,-5.18792c0,0 9.3519,13.46467 11.19036,26.6113c1.19988,8.5802 -0.3812,22.71321 -0.43323,27.7112c-0.01441,1.38607 -17.70363,1.0506 -17.44547,-1.07743z" data-paper-data="{&quot;index&quot;:null}" fill="#89623d"/><path d="M216.7173,205.21063c0.082,-5.2406 1.60617,-14.22198 1.46895,-23.86003c-0.17693,-12.42635 3.23377,-26.01629 3.23377,-26.01629l9.73764,3.22051c0,0 4.98896,16.88554 5.36636,24.10922c0.32901,6.29762 -1.12768,17.57667 -1.51804,22.54511c-0.11715,1.49099 -18.30366,0.95644 -18.28871,0.00152z" fill="#89623d"/></g><g><path d="M222.1951,182.23541c2.01964,-5.85377 8.45932,-15.66098 10.92038,-19.72916c0.82398,-1.36206 5.66033,0.13229 5.81475,1.81247c0.46102,5.01622 -0.95423,16.41916 -2.80042,22.33344c-0.15471,0.49562 -8.30585,9.71912 -10.62379,8.80409c-1.95283,-0.77092 -3.40738,-12.94128 -3.31093,-13.22083z" fill="#ff0000" stroke-width="1"/><path d="M244.65619,161.85068c0,0 -4.18617,4.41309 -8.97333,2.41555c-4.57927,-1.91078 -5.57602,-7.70232 -5.57602,-7.70232z" fill="#ff0000" stroke-width="1"/><path d="M225.16406,173.61904l0.81477,-1.48252l12.51017,7.00792l-0.33804,1.82775z" fill="#ffffff" stroke-width="0"/><path d="M228.59198,168.05812l0.95156,-1.54748l9.85257,5.75556l-0.20209,1.76251z" fill="#ffffff" stroke-width="0"/><path d="M221.85756,180.1578l0.77379,-1.72675l14.71432,7.86619c0,0 -0.12019,0.55372 -0.23366,0.80244c-0.12494,0.27383 -0.48493,0.77238 -0.48493,0.77238z" fill="#ffffff" stroke-width="0"/><path d="M222.32226,188.64026l-0.31446,-2.23686l9.67353,6.03452l-1.31525,1.30066z" fill="#ffffff" stroke-width="0"/></g><g stroke-width="2"><path d="M218.64234,178.55627c5.65643,-1.35269 10.67213,16.9829 5.0157,18.33563c-1.38042,0.33011 -12.26243,3.62511 -17.76408,0.71311c-2.15445,-1.14033 -3.90664,-16.32468 -2.99775,-16.85287c4.86797,-2.82906 14.29528,-1.8489 15.74612,-2.19586z" fill="#8a9e8d"/><path d="M257.84355,162.69306c0,0 4.67894,0.90941 6.02799,5.88484c0.26618,0.98176 -0.54076,4.19779 -3.09155,6.53784c-8.70304,7.98397 -28.80632,21.28291 -36.3551,21.36833c-2.96578,0.03357 -5.95075,-18.23665 -5.41672,-18.26049c6.95031,-0.31027 38.83538,-15.53054 38.83538,-15.53054z" fill="#89623d"/></g><g><g><path d="M219.00252,157.87241l-8.7873,-14.87156l30.31061,-10.75589l7.526,18.15692z" fill="#693939" stroke-width="0"/><path d="M212.12139,151.27749l-1.54252,-7.18454l6.1562,-2.46589l4.19037,6.12393z" fill="#faffe0" stroke-width="1.125"/><path d="M223.56883,142.41716l-2.62866,-4.44877l5.5546,-1.61149l2.4551,4.49913z" fill="#faffe0" stroke-width="1.125"/><path d="M232.28247,141.93649l-1.31264,-4.45831l7.36299,-2.50841l-0.66935,5.40559z" data-paper-data="{&quot;index&quot;:null}" fill="#faffe0" stroke-width="1.125"/><path d="M236.72868,152.55831l-2.95995,-6.21385l7.363,-2.5084l1.67228,6.95968z" fill="#faffe0" stroke-width="1.125"/><path d="M223.82278,155.37194l-1.79713,-2.8381l6.30076,-2.00478l0.66393,3.34367z" fill="#faffe0" stroke-width="1.125"/><path d="M203.87615,144.9516c-13.82007,-21.59846 2.7457,-42.00373 20.69188,-47.21023c17.94616,-5.20649 36.72575,4.94443 41.94542,22.67271c5.21964,17.72827 -5.09723,36.32058 -23.0434,41.52708c-8.43862,2.44818 -18.27153,0.84674 -25.58228,-2.68746c-3.16141,-1.5283 27.33684,-10.66134 27.73461,-10.91968c0.33378,-0.21681 -1.73731,-11.40519 -6.68432,-12.03621c-12.43176,-1.58575 -33.14267,11.6532 -35.0619,8.65371z" fill="#8a9e8d" stroke-width="2"/></g><g><path d="M223.99608,122.84693c-1.82435,-6.19638 1.92849,-12.73743 8.38226,-14.60976c6.45376,-1.87234 13.1645,1.63298 14.98887,7.82937c1.82435,6.19638 -1.92847,12.73743 -8.38223,14.60977c-6.45376,1.87234 -13.16452,-1.63301 -14.98887,-7.82939z" fill="#fdfff3" stroke-width="2"/><path d="M235.86737,116.90829c-0.38037,-1.29197 0.4021,-2.65582 1.74775,-3.0462c1.34565,-0.39039 2.74482,0.34049 3.12522,1.63246c0.3804,1.29197 -0.40206,2.6558 -1.7477,3.0462c-1.34565,0.3904 -2.74486,-0.3405 -3.12527,-1.63247z" fill="#000000" stroke-width="0"/></g><g><path d="M191.23819,136.05691c-1.4554,-4.94319 1.5384,-10.16127 6.68693,-11.65495c5.14853,-1.49365 10.50203,1.30271 11.95742,6.2459c1.4554,4.94319 -1.53845,10.1613 -6.68694,11.65496c-5.14853,1.49365 -10.502,-1.3027 -11.95741,-6.24589z" fill="#fdfff3" stroke-width="2"/><path d="M196.15268,133.5961c-0.3804,-1.29197 0.40211,-2.65581 1.74775,-3.04621c1.34564,-0.3904 2.74483,0.3405 3.12521,1.63247c0.3804,1.29197 -0.4021,2.65578 -1.74772,3.04618c-1.34564,0.3904 -2.74485,-0.34046 -3.12526,-1.63245z" fill="#000000" stroke-width="0"/></g></g></g></g></svg>