<svg version="1.1" xmlns="http://www.w3.org/2000/svg" xmlns:xlink="http://www.w3.org/1999/xlink" width="42.59412" height="45.22502" viewBox="0,0,42.59412,45.22502"><g transform="translate(-218.70294,-162.92528)"><g data-paper-data="{&quot;isPaintingLayer&quot;:true}" fill-rule="nonzero" stroke-width="0.5" stroke-linejoin="miter" stroke-miterlimit="10" stroke-dasharray="" stroke-dashoffset="0" style="mix-blend-mode: normal"><path d="M261.04706,185.53779c0,12.35047 -9.42308,22.36251 -21.04706,22.36251c-11.62398,0 -21.04706,-10.01204 -21.04706,-22.36251c0,-12.35047 9.4231,-22.36251 21.04706,-22.36251c11.62398,0 21.04706,10.01204 21.04706,22.36251z" fill="#d68d00" stroke="#000000" stroke-linecap="butt"/><path d="M247.44085,194.11762c0,0 -2.01257,2.62827 -4.47774,2.62827c-2.53006,0 -4.57511,-2.23888 -4.57511,-2.23888" fill="none" stroke="#000000" stroke-linecap="round"/><g stroke-linecap="butt"><path d="M240.65333,180.49527c0,2.90599 -2.25761,5.26176 -5.04254,5.26176c-2.78491,0 -5.04252,-2.35577 -5.04252,-5.26176c0,-2.90599 2.2576,-5.26176 5.04252,-5.26176c2.78491,0 5.04254,2.35577 5.04254,5.26176z" fill="#ffffff" stroke="#000000"/><path d="M237.46325,180.68996c0,-0.40321 0.32687,-0.73008 0.73008,-0.73008c0.40321,0 0.73006,0.32687 0.73006,0.73008c0,0.40321 -0.32686,0.73006 -0.73006,0.73006c-0.40321,0 -0.73008,-0.32686 -0.73008,-0.73006z" fill="#000000" stroke="none"/></g><g stroke-linecap="butt"><path d="M254.28131,180.39792c0,2.90599 -2.25761,5.26176 -5.04254,5.26176c-2.78491,0 -5.04252,-2.35577 -5.04252,-5.26176c0,-2.90599 2.25761,-5.26176 5.04252,-5.26176c2.78491,0 5.04254,2.35577 5.04254,5.26176z" fill="#ffffff" stroke="#000000"/><path d="M251.38325,180.59262c0,-0.40321 0.32687,-0.73006 0.73008,-0.73006c0.40321,0 0.73006,0.32686 0.73006,0.73006c0,0.40321 -0.32686,0.73008 -0.73006,0.73008c-0.40321,0 -0.73008,-0.32687 -0.73008,-0.73008z" fill="#000000" stroke="none"/></g></g></g></svg>