<svg version="1.1" xmlns="http://www.w3.org/2000/svg" xmlns:xlink="http://www.w3.org/1999/xlink" width="23.56354" height="29.31277" viewBox="0,0,23.56354,29.31277"><g transform="translate(-229.36115,-167.65187)"><g data-paper-data="{&quot;isPaintingLayer&quot;:true}" fill-rule="nonzero" stroke-linejoin="miter" stroke-miterlimit="10" stroke-dasharray="" stroke-dashoffset="0" style="mix-blend-mode: normal"><path d="M229.625,195.38738v-26.52889h23.04969v26.52889z" fill="#ffffff" stroke="#000000" stroke-width="0.5" stroke-linecap="butt"/><path d="M252.48588,180.05408c0,6.71148 -5.12069,12.15221 -11.43737,12.15221c-6.31669,0 -11.43737,-5.44073 -11.43737,-12.15221c0,-6.71148 5.12069,-12.15221 11.43737,-12.15221c6.31669,0 11.43737,5.44073 11.43737,12.15221z" fill="#d68d00" stroke="#000000" stroke-width="0.5" stroke-linecap="butt"/><path d="M245.09202,184.71652c0,0 -1.09368,1.42824 -2.4333,1.42824c-1.37488,0 -2.4862,-1.21665 -2.4862,-1.21665" fill="none" stroke="#000000" stroke-width="0.5" stroke-linecap="round"/><g stroke-width="0.5" stroke-linecap="butt"><path d="M241.40355,177.31388c0,1.57917 -1.22683,2.85934 -2.7402,2.85934c-1.51337,0 -2.7402,-1.28017 -2.7402,-2.85934c0,-1.57917 1.22683,-2.85934 2.7402,-2.85934c1.51337,0 2.7402,1.28017 2.7402,2.85934z" fill="#ffffff" stroke="#000000"/><path d="M239.66999,177.41967c0,-0.21911 0.17762,-0.39673 0.39673,-0.39673c0.21911,0 0.39673,0.17762 0.39673,0.39673c0,0.21911 -0.17762,0.39673 -0.39673,0.39673c-0.21911,0 -0.39673,-0.17762 -0.39673,-0.39673z" fill="#000000" stroke="none"/></g><g stroke-width="0.5" stroke-linecap="butt"><path d="M248.80925,177.26098c0,1.57917 -1.22683,2.85934 -2.7402,2.85934c-1.51337,0 -2.7402,-1.28017 -2.7402,-2.85934c0,-1.57917 1.22683,-2.85934 2.7402,-2.85934c1.51337,0 2.7402,1.28017 2.7402,2.85934z" fill="#ffffff" stroke="#000000"/><path d="M247.23438,177.36678c0,-0.21911 0.17762,-0.39673 0.39673,-0.39673c0.21911,0 0.39673,0.17762 0.39673,0.39673c0,0.21911 -0.17762,0.39673 -0.39673,0.39673c-0.21911,0 -0.39673,-0.17762 -0.39673,-0.39673z" fill="#000000" stroke="none"/></g><text transform="translate(236.38757,194.22944) scale(0.16577,0.16577)" font-size="40" xml:space="preserve" fill="#000000" fill-rule="nonzero" stroke="none" stroke-width="1" stroke-linecap="butt" stroke-linejoin="miter" stroke-miterlimit="10" stroke-dasharray="" stroke-dashoffset="0" font-family="Handwriting" font-weight="normal" text-anchor="start" style="mix-blend-mode: normal"><tspan x="0" dy="0">50</tspan></text></g></g></svg>