<svg version="1.1" xmlns="http://www.w3.org/2000/svg" xmlns:xlink="http://www.w3.org/1999/xlink" width="46.26557" height="63.75538" viewBox="0,0,46.26557,63.75538"><g transform="translate(-216.80792,-146.62431)"><g data-paper-data="{&quot;isPaintingLayer&quot;:true}" fill-rule="nonzero" stroke="#000000" stroke-width="0.5" stroke-linejoin="miter" stroke-miterlimit="10" stroke-dasharray="" stroke-dashoffset="0" style="mix-blend-mode: normal"><path d="M237.10572,205.71703v-25.20887h4.40543v25.20887z" fill="#00c902" stroke-linecap="butt"/><path d="M228.13915,208.8164c-5.55155,-2.0855 -9.24915,-5.9132 -8.25883,-8.54941c0.99033,-2.63621 6.29356,-3.08265 11.8451,-0.99715c5.55155,2.0855 9.24915,5.91321 8.25883,8.54941c-0.99033,2.63621 -6.29356,3.08265 -11.8451,0.99714z" data-paper-data="{&quot;index&quot;:null}" fill="#00c902" stroke-linecap="butt"/><path d="M240.13172,207.29557c-0.99033,-2.63621 2.70728,-6.46391 8.25883,-8.54941c5.55155,-2.0855 10.85478,-1.63906 11.8451,0.99715c0.99033,2.63621 -2.70728,6.46391 -8.25883,8.54941c-5.55155,2.0855 -10.85478,1.63907 -11.8451,-0.99714z" data-paper-data="{&quot;index&quot;:null}" fill="#00c902" stroke-linecap="butt"/><g><path d="M217.08606,168.34015c0,0 3.85421,-4.85587 6.57895,-5.11661c2.72474,-0.26076 5.1293,1.57308 5.37075,4.09599c0.24143,2.5229 -1.77168,4.7795 -4.49641,5.04026c-2.72474,0.26076 -7.45328,-4.01962 -7.45328,-4.01962z" data-paper-data="{&quot;index&quot;:null}" fill="#fffc00" stroke-linecap="butt"/><path d="M225.93308,187.05626c0,0 -1.01769,-6.11545 0.61604,-8.31162c1.63372,-2.19616 4.60658,-2.75022 6.64007,-1.2375c2.0335,1.51271 2.35755,4.51935 0.72382,6.7155c-1.63372,2.19616 -7.97995,2.8336 -7.97995,2.8336z" data-paper-data="{&quot;index&quot;:null}" fill="#fffc00" stroke-linecap="butt"/><path d="M218.77924,178.34293c0,0 1.77396,-5.94032 4.20674,-7.19485c2.43277,-1.25453 5.34657,-0.44543 6.50816,1.80712c1.16159,2.25256 0.1311,5.09562 -2.30167,6.35013c-2.43277,1.25453 -8.41324,-0.9624 -8.41324,-0.9624z" data-paper-data="{&quot;index&quot;:null}" fill="#fffc00" stroke-linecap="butt"/><path d="M262.57732,169.6059c0,0 -4.17787,4.58038 -6.91406,4.65383c-2.7362,0.07345 -5.00946,-1.92082 -5.07748,-4.45434c-0.06799,-2.53352 2.09499,-4.64689 4.83118,-4.72033c2.7362,-0.07345 7.16034,4.52084 7.16034,4.52084z" data-paper-data="{&quot;index&quot;:null}" fill="#fffc00" stroke-linecap="butt"/><path d="M255.03345,150.32765c0,0 0.59629,6.17081 -1.18407,8.24987c-1.78036,2.07906 -4.7842,2.42812 -6.70925,0.77964c-1.92506,-1.64848 -2.04237,-4.67026 -0.262,-6.7493c1.78036,-2.07906 8.15533,-2.28019 8.15533,-2.28019z" data-paper-data="{&quot;index&quot;:null}" fill="#fffc00" stroke-linecap="butt"/><path d="M261.57348,159.51064c0,0 -2.17682,5.8048 -4.68981,6.8897c-2.51301,1.08488 -5.36454,0.07808 -6.36906,-2.24879c-1.00452,-2.32686 0.21836,-5.09263 2.73135,-6.17752c2.51301,-1.08488 8.32752,1.53659 8.32752,1.53659z" data-paper-data="{&quot;index&quot;:null}" fill="#fffc00" stroke-linecap="butt"/><path d="M238.19853,189.62705c0,0 -4.59792,-4.15856 -4.68289,-6.8944c-0.08496,-2.73586 1.89972,-5.01751 4.43294,-5.09619c2.53321,-0.07868 4.65566,2.07539 4.74063,4.81128c0.08496,2.73586 -4.49068,7.17933 -4.49068,7.17933z" data-paper-data="{&quot;index&quot;:null}" fill="#fffc00" stroke-linecap="butt"/><path d="M257.44487,182.00208c0,0 -6.16824,0.62225 -8.25479,-1.14933c-2.08655,-1.77158 -2.44823,-4.77393 -0.80787,-6.70592c1.64037,-1.93198 4.66161,-2.062 6.74815,-0.29039c2.08655,1.77158 2.3145,8.14566 2.3145,8.14566z" data-paper-data="{&quot;index&quot;:null}" fill="#fffc00" stroke-linecap="butt"/><path d="M248.28947,188.58071c0,0 -5.81393,-2.15235 -6.90939,-4.66078c-1.09545,-2.50841 -0.10064,-5.36415 2.22196,-6.37845c2.32262,-1.01431 5.0935,0.19691 6.18895,2.70532c1.09545,2.50841 -1.50153,8.33393 -1.50153,8.33393z" data-paper-data="{&quot;index&quot;:null}" fill="#fffc00" stroke-linecap="butt"/><path d="M231.60656,157.4876c1.94908,1.92178 2.08662,4.94269 0.30718,6.7474c-1.77943,1.80471 -4.80199,1.70978 -6.75108,-0.21199c-1.94908,-1.92178 -1.87445,-8.1209 -1.87445,-8.1209c0,0 6.36927,-0.33631 8.31836,1.58547z" fill="#fffc00" stroke-linecap="butt"/><path d="M246.3643,154.20083c-0.11863,2.73461 -2.26743,4.8624 -4.79947,4.75256c-2.53205,-0.10983 -4.48852,-2.41573 -4.36989,-5.15035c0.11863,-2.73461 4.76739,-6.83626 4.76739,-6.83626c0,0 4.52061,4.49943 4.40198,7.23404z" fill="#fffc00" stroke-linecap="butt"/><path d="M238.04782,153.77412c1.09545,2.50841 0.10064,5.36415 -2.22195,6.37845c-2.32262,1.01431 -5.0935,-0.19691 -6.18895,-2.70533c-1.09545,-2.50841 1.27724,-8.23596 1.27724,-8.23596c0,0 6.03823,2.0544 7.1337,4.56284z" fill="#fffc00" stroke-linecap="butt"/><path d="M253.98927,163.34832c2.65073,6.06975 -1.81736,13.07874 -9.0639,16.24339c-7.24653,3.16464 -15.42459,1.67836 -18.07532,-4.39139c-2.65073,-6.06975 1.27864,-14.31233 8.52517,-17.47698c7.24653,-3.16464 15.96332,-0.44477 18.61405,5.62499z" fill="#efa900" stroke-linecap="butt"/><path d="M250.72421,168.73559c0,0 -4.80582,5.97123 -7.99996,7.36615c-3.08202,1.34595 -10.84051,0.86169 -10.84051,0.86169" fill="none" stroke-linecap="round"/><g data-paper-data="{&quot;index&quot;:null}" stroke-linecap="butt"><path d="M233.76146,164.4533c1.38293,-0.60395 3.15366,0.39407 3.95505,2.22912c0.80139,1.83505 0.32995,3.81224 -1.05299,4.41618c-1.38293,0.60395 -3.15367,-0.39407 -3.95506,-2.22912c-0.80139,-1.83505 -0.32994,-3.81224 1.053,-4.41618z" fill="#000000"/><path d="M234.60166,164.62605c0.7779,-0.33971 1.77393,0.22166 2.22472,1.25389c0.45078,1.03221 0.18561,2.14439 -0.5923,2.4841c-0.7779,0.33971 -1.77394,-0.22165 -2.22472,-1.25388c-0.45078,-1.03221 -0.18561,-2.14439 0.59231,-2.48411z" fill="#ffffff"/></g><g data-paper-data="{&quot;index&quot;:null}" stroke-linecap="butt"><path d="M240.89962,161.11766c1.38293,-0.60395 3.15368,0.39407 3.95506,2.2291c0.80139,1.83505 0.32994,3.81224 -1.053,4.41618c-1.38293,0.60395 -3.15367,-0.39406 -3.95506,-2.22912c-0.80139,-1.83505 -0.32995,-3.81224 1.05299,-4.41618z" fill="#000000"/><path d="M241.73983,161.29041c0.7779,-0.33971 1.77393,0.22166 2.22471,1.25388c0.45078,1.03221 0.18561,2.14439 -0.5923,2.4841c-0.7779,0.33971 -1.77394,-0.22166 -2.22473,-1.25388c-0.45078,-1.03221 -0.18559,-2.14438 0.59231,-2.48411z" fill="#ffffff"/></g></g></g></g></svg>