<svg version="1.1" xmlns="http://www.w3.org/2000/svg" xmlns:xlink="http://www.w3.org/1999/xlink" width="68.97688" height="65.60038" viewBox="0,0,68.97688,65.60038"><g transform="translate(-201.01156,-150.44982)"><g data-paper-data="{&quot;isPaintingLayer&quot;:true}" fill-rule="nonzero" stroke="#000000" stroke-width="1.2" stroke-linejoin="miter" stroke-miterlimit="10" stroke-dasharray="" stroke-dashoffset="0" style="mix-blend-mode: normal"><path d="M229.6477,203.62069c-6.12434,-2.15563 -10.20344,-6.11205 -9.11095,-8.83691c1.0925,-2.72486 6.9429,-3.1863 13.06724,-1.03067c6.12434,2.15563 10.20345,6.11205 9.11095,8.8369c-1.0925,2.72486 -6.94291,3.1863 -13.06725,1.03067z" data-paper-data="{&quot;index&quot;:null}" fill="#00c902" stroke-linecap="butt"/><path d="M242.87762,202.04871c-1.0925,-2.72486 2.98661,-6.68127 9.11095,-8.8369c6.12434,-2.15563 11.97474,-1.69418 13.06724,1.03068c1.09251,2.72486 -2.98661,6.68127 -9.11095,8.8369c-6.12434,2.15563 -11.97474,1.69418 -13.06724,-1.03067z" data-paper-data="{&quot;index&quot;:null}" fill="#00c902" stroke-linecap="butt"/><path d="M239.99833,205.96944l-7.61983,-19.64769l5.27909,-1.79734l7.61984,19.64769z" fill="#00ff0e" stroke-linecap="butt"/><path d="M241.7582,182.49077c-0.1453,3.10418 -3.8222,5.47437 -8.2126,5.29396c-4.3904,-0.1804 -7.83173,-2.84309 -7.68643,-5.94726c0.1453,-3.10418 16.04432,-2.45088 15.89902,0.6533z" fill="#00c902" stroke-linecap="butt"/><path d="M217.3739,167.48545c0,-9.03068 7.8134,-16.35148 17.45173,-16.35148c9.63833,0 17.45173,7.32081 17.45173,16.35148c0,9.03068 -7.8134,16.35147 -17.45173,16.35147c-9.63833,0 -17.45173,-7.3208 -17.45173,-16.35147z" fill="#00ff0e" stroke-linecap="butt"/><g data-paper-data="{&quot;index&quot;:null}" stroke-linecap="butt"><path d="M234.35782,161.47292c2.07804,0 3.76263,2.09439 3.76263,4.67796c0,2.58357 -1.68458,4.67796 -3.76263,4.67796c-2.07804,0 -3.76263,-2.09439 -3.76263,-4.67796c0,-2.58357 1.68458,-4.67796 3.76263,-4.67796z" fill="#000000"/><path d="M235.32293,162.11102c1.1689,0 2.11648,1.1781 2.11648,2.63135c0,1.45325 -0.94758,2.63135 -2.11648,2.63135c-1.1689,0 -2.11649,-1.1781 -2.11649,-2.63135c0,-1.45325 0.94758,-2.63135 2.11649,-2.63135z" fill="#ffffff"/></g><g stroke-linecap="butt"><path d="M248.8521,168.06516c0,-8.30405 2.62216,-15.03581 5.85676,-15.03581c3.2346,0 5.85676,6.73176 5.85676,15.03581c0,8.30405 -2.62216,15.0358 -5.85676,15.0358c-3.2346,0 -5.85676,-6.73176 -5.85676,-15.0358z" fill="#00ff0e"/><path d="M250.73952,167.90469c0,-6.07102 1.79313,-10.99256 4.00507,-10.99256c2.21195,0 4.00508,4.92153 4.00508,10.99256c0,6.07102 -1.79313,10.99257 -4.00508,10.99257c-2.21195,0 -4.00507,-4.92154 -4.00507,-10.99257z" fill="#000000"/></g><path d="M212.18626,153.55879l1.4502,-1.72105l7.46994,5.5257l-1.45021,1.72105z" fill="#00c902" stroke-linecap="butt"/><path d="M211.61489,158.89067c-0.63995,1.16916 -3.00478,3.04148 -3.38924,4.07506c-1.04477,2.80874 0.58099,5.2599 0.34429,4.87009c-0.27416,-0.45149 -2.2639,-0.72522 -2.7738,-1.37112c-2.35756,-2.98635 -5.34134,-7.97054 -3.72487,-10.92373c2.379,-4.34631 10.2583,-4.85202 11.37007,-4.3178c1.11177,0.53422 0.55254,3.32119 -1.82645,7.66748z" fill="#00c902" stroke-linecap="butt"/><path d="M242.75505,203.37949c1.28787,3.21212 -3.52068,7.87604 -10.74019,10.41715c-7.21952,2.54111 -14.11611,1.99715 -15.40396,-1.21498c-1.28787,-3.21212 3.52068,-7.87604 10.7402,-10.41715c7.21952,-2.54111 14.11611,-1.99714 15.40397,1.21498z" fill="#00c902" stroke-linecap="butt"/><path d="M258.43963,202.21786c7.21952,2.54111 12.02806,7.20503 10.7402,10.41715c-1.28786,3.21212 -8.18446,3.75609 -15.40397,1.21498c-7.21952,-2.54111 -12.02806,-7.20503 -10.74019,-10.41715c1.28787,-3.21212 8.18445,-3.75609 15.40397,-1.21498z" data-paper-data="{&quot;index&quot;:null}" fill="#00c902" stroke-linecap="butt"/><path d="M246.08397,200.5982l12.63784,-4.82415" fill="none" stroke-linecap="round"/><path d="M225.95704,195.92023l14.04204,4.67796" fill="none" stroke-linecap="round"/><g data-paper-data="{&quot;index&quot;:null}" stroke-linecap="butt"><path d="M242.7157,156.90137c1.89493,0 3.43108,1.90983 3.43108,4.26573c0,2.3559 -1.53615,4.26573 -3.43108,4.26573c-1.89493,0 -3.43107,-1.90983 -3.43107,-4.26573c0,-2.3559 1.53614,-4.26573 3.43107,-4.26573z" fill="#000000"/><path d="M243.59577,157.48325c1.0659,0 1.92997,1.07428 1.92997,2.39948c0,1.32519 -0.86408,2.39948 -1.92997,2.39948c-1.0659,0 -1.92998,-1.07428 -1.92998,-2.39948c0,-1.32519 0.86408,-2.39948 1.92998,-2.39948z" fill="#ffffff"/></g><path d="M242.02738,202.0952l-14.97817,6.2409" fill="none" stroke-linecap="round"/><path d="M259.03384,208.96019l-15.60226,-6.70897" fill="none" stroke-linecap="round"/></g></g></svg>