<svg version="1.1" xmlns="http://www.w3.org/2000/svg" xmlns:xlink="http://www.w3.org/1999/xlink" width="103.63055" height="164.22436" viewBox="0,0,103.63055,164.22436"><g transform="translate(-186.15265,-98.89148)"><g data-paper-data="{&quot;isPaintingLayer&quot;:true}" fill-rule="nonzero" stroke="#000000" stroke-linecap="butt" stroke-linejoin="miter" stroke-miterlimit="10" stroke-dasharray="" stroke-dashoffset="0" style="mix-blend-mode: normal"><g data-paper-data="{&quot;index&quot;:null}" stroke-width="2"><path d="M237.6716,216.3754c0.01254,0.96928 -12.83132,6.77427 -14.75391,5.60971c-4.90959,-2.97383 -7.45636,-13.1443 -7.84893,-14.39286c-1.60861,-5.11608 15.27417,-9.83142 16.88278,-4.71534c0.4126,1.31224 5.65295,8.30704 5.72005,13.49849z" fill="#8a9e8d"/><path d="M232.04156,202.42989c0.23407,0.43384 -15.63526,6.72493 -17.01331,4.36248c-3.50753,-6.01311 -2.50625,-28.21751 -0.31101,-38.88474c0.64338,-3.12646 2.80579,-5.28806 3.70865,-5.54242c4.57553,-1.28899 7.51102,1.98231 7.51102,1.98231c0,0 3.05847,32.43626 6.10466,38.08235z" fill="#89623d"/></g><path d="M264.20652,240.28087c0,0 -4.74319,-4.56059 -6.46554,-7.14144c-1.54772,-2.31917 -3.40077,-7.64272 -3.40077,-7.64272l7.8984,-5.19712c0,0 2.62466,5.22353 4.33293,7.0723c2.32195,2.51291 8.43973,6.8571 8.43973,6.8571z" fill="#8a9e8d" stroke-width="2"/><path d="M236.23273,216.70132c-0.7687,-0.53485 0.50244,7.77795 -0.21146,15.41677c-0.61032,6.53016 -3.94701,14.94027 -4.45161,15.23368c-2.5262,1.46903 -20.17644,-0.55168 -20.11434,-1.21389c0.30028,-3.20115 2.92055,-8.15091 4.46974,-13.64397c0.05355,-0.18988 3.35997,-0.50397 3.86567,-1.82845c0.24561,-0.64332 -2.54088,-2.12357 -2.1348,-2.79611c1.00923,-1.67138 5.97389,-3.08505 6.03223,-3.66865c0.23004,-2.30164 -6.032,-3.77671 -5.95729,-5.21394c0.42644,-8.20244 -0.09297,-14.9197 -0.09297,-14.9197l46.87386,-0.51406l4.36442,23.33033l-6.74651,-1.12174l-3.24618,4.02535l-9.48032,-1.34095l0.54452,-10.46688c0,0 -3.47058,0.63697 -7.0541,0.48279c-0.94318,-0.04059 -1.14598,-2.35559 -2.04359,-2.53046c-1.55676,-0.30327 -3.70106,1.40735 -4.61722,0.76989z" fill="#757ad6" stroke-width="2"/><path d="M237.01695,257.08957c0,4.79232 -26.74097,4.79232 -26.74097,0c0,-0.35323 -0.91492,-9.76037 0.61206,-10.02638c3.96013,-0.68983 13.13981,-2.28821 19.86794,0.46989c5.2202,2.13994 6.26094,8.54702 6.26094,9.55649z" fill="#5c422a" stroke-width="2"/><path d="M263.89489,247.32523c0,0 -0.40154,-4.03945 -1.08074,-5.4438c-0.74402,-1.53839 -4.21064,-4.42728 -4.21064,-4.42728l6.18656,-1.67286l3.36114,-3.75394l5.31435,-0.74361l3.05515,-2.24641c0,0 3.44896,2.85239 4.01575,4.02432c0.78808,1.62949 1.38782,5.54388 1.38782,5.54388z" fill="#757ad6" stroke-width="2"/><path d="M261.62041,247.44765c5.80419,-6.46903 16.51341,-9.52619 21.13347,-10.84479c1.78147,-0.50843 5.69245,10.08983 5.87626,10.4699c2.49389,5.15653 -26.27952,19.07243 -28.77341,13.9159c-0.52532,-1.08618 -2.73967,-8.52186 1.76365,-13.541z" data-paper-data="{&quot;index&quot;:null}" fill="#5c422a" stroke-width="2"/><g stroke-width="2"><path d="M232.37488,204.13336c0,0 3.08257,-13.99606 2.36164,-21.48556c-0.76425,-7.93956 -6.82474,-24.88045 -6.82474,-24.88045h15.41796c0,0 5.73664,16.33792 6.55901,24.16934c0.79996,7.618 -1.69021,22.19664 -1.69021,22.19664z" fill="#ffffff"/><path d="M248.08,204.86021c0.65651,-5.41105 2.41463,-16.75093 1.85473,-22.47175c-0.81728,-8.35078 -7.74424,-25.58541 -7.74424,-25.58541l12.57782,-5.18792c0,0 9.3519,13.46467 11.19036,26.6113c1.19988,8.5802 -0.3812,22.71321 -0.43323,27.7112c-0.01441,1.38607 -17.70363,1.0506 -17.44546,-1.07743z" data-paper-data="{&quot;index&quot;:null}" fill="#89623d"/><path d="M216.71729,205.21062c0.082,-5.2406 1.60617,-14.22198 1.46895,-23.86003c-0.17693,-12.42635 3.23377,-26.01629 3.23377,-26.01629l9.73764,3.22051c0,0 4.98896,16.88554 5.36636,24.10922c0.32901,6.29762 -1.12768,17.57667 -1.51804,22.54511c-0.11715,1.49099 -18.30366,0.95644 -18.28871,0.00152z" fill="#89623d"/></g><g><path d="M232.01855,189.7416c-0.10097,-6.19156 2.60217,-17.60838 3.52589,-22.27246c0.30927,-1.56157 5.36519,-1.80878 6.08413,-0.28236c2.14644,4.55717 4.7106,15.75784 4.99527,21.94703c0.02386,0.51866 -4.48719,11.97136 -6.97826,11.90297c-2.0987,-0.05764 -7.62221,-10.99949 -7.62703,-11.29517z" fill="#ff0000" stroke-width="1"/><path d="M246.16737,162.91161c0,0 -2.42732,5.57741 -7.60886,5.33489c-4.95651,-0.23198 -7.87124,-5.33489 -7.87124,-5.33489z" fill="#ff0000" stroke-width="1"/><path d="M231.86635,180.62933l0.25947,-1.67164l14.15135,2.31409l0.30649,1.8333z" fill="#ffffff" stroke-width="0"/><path d="M233.18899,174.23208l0.36586,-1.77941l11.22581,2.04466l0.412,1.72555z" fill="#ffffff" stroke-width="0"/><path d="M230.99176,187.90419l0.13755,-1.88719l16.51607,2.36799c0,0 0.07614,0.56148 0.05444,0.83399c-0.02391,0.30003 -0.19198,0.89156 -0.19198,0.89156z" fill="#ffffff" stroke-width="0"/><path d="M234.32545,195.71793l-1.05949,-1.99497l11.15282,2.36799l-0.79197,1.67164z" fill="#ffffff" stroke-width="0"/></g><g stroke-width="2"><path d="M243.24104,196.52996c2.05198,-5.44191 20.04596,0.68734 17.99401,6.12926c-0.50078,1.32807 -3.87495,12.18578 -9.37117,15.10802c-2.15232,1.14436 -15.70706,-5.91985 -15.63472,-6.96858c0.38744,-5.617 6.48556,-12.87288 7.01188,-14.2687z" fill="#8a9e8d"/><path d="M252.08972,155.17688c0,0 3.37679,-3.36405 8.2528,-1.69094c0.96213,0.33015 3.1724,2.80173 3.67948,6.22594c1.73007,11.68306 1.46782,35.78563 -2.69459,42.0837c-1.63533,2.47439 -18.43643,-5.29956 -18.1567,-5.75511c3.64064,-5.92863 8.91899,-40.86363 8.91899,-40.86363z" fill="#89623d"/></g><g><g><path d="M216.39903,161.12969l-9.47079,-14.22937l29.77644,-11.9745l8.36396,17.51987z" fill="#693939" stroke-width="0"/><path d="M209.21804,154.95655l-1.87565,-6.99835l6.0346,-2.70887l4.4712,5.83324z" fill="#faffe0" stroke-width="1.125"/><path d="M220.24013,145.71304l-2.83313,-4.25666l5.47347,-1.84059l2.66209,4.31418z" fill="#faffe0" stroke-width="1.125"/><path d="M228.92191,144.84011l-1.51898,-4.32646l7.2381,-2.8061l-0.41672,5.3495z" data-paper-data="{&quot;index&quot;:null}" fill="#faffe0" stroke-width="1.125"/><path d="M233.85828,155.08726l-3.2463,-5.97819l7.23811,-2.8061l1.99479,6.77115z" fill="#faffe0" stroke-width="1.125"/><path d="M221.09751,158.44811l-1.92744,-2.71003l6.20049,-2.2618l0.81903,3.25951z" fill="#faffe0" stroke-width="1.125"/><path d="M200.68696,149.11072c-14.81157,-20.61723 0.78529,-41.4552 18.46934,-47.40186c17.68403,-5.94665 36.91627,3.17921 42.95642,20.38319c6.04014,17.20398 -3.3991,35.97127 -21.08315,41.91793c-8.31536,2.79621 -18.21221,1.67186 -25.67972,-1.47c-3.22919,-1.35864 26.81031,-11.74496 27.19561,-12.01742c0.32331,-0.22864 -2.26692,-11.14228 -7.23796,-11.53609c-12.49215,-0.98964 -32.5636,12.98739 -34.62053,10.12418z" fill="#8a9e8d" stroke-width="2"/></g><g><path d="M219.75492,126.43748c-2.11114,-6.01312 1.33281,-12.62138 7.69232,-14.7599c6.3595,-2.13852 13.2263,1.00246 15.33744,7.0156c2.11114,6.01312 -1.33281,12.6214 -7.69229,14.75991c-6.3595,2.13852 -13.22631,-1.0025 -15.33745,-7.01562z" fill="#fdfff3" stroke-width="2"/><path d="M231.33657,120.04929c-0.44017,-1.25376 0.2779,-2.63163 1.60389,-3.07751c1.32599,-0.44589 2.75771,0.20903 3.19791,1.46279c0.44019,1.25375 -0.27786,2.63162 -1.60385,3.07752c-1.32599,0.4459 -2.75775,-0.20903 -3.19794,-1.4628z" fill="#000000" stroke-width="0"/></g><g><path d="M187.64822,140.93899c-1.68419,-4.797 1.06321,-10.06871 6.13653,-11.77473c5.07333,-1.706 10.55133,0.79972 12.2355,5.59672c1.68419,4.797 -1.06325,10.06874 -6.13655,11.77473c-5.07333,1.706 -10.55129,-0.79972 -12.23548,-5.59671z" fill="#fdfff3" stroke-width="2"/><path d="M192.44269,138.29211c-0.44019,-1.25375 0.2779,-2.63161 1.60389,-3.07751c1.32599,-0.4459 2.75772,0.20904 3.19789,1.4628c0.44019,1.25375 -0.2779,2.63159 -1.60386,3.07748c-1.32599,0.4459 -2.75774,-0.20899 -3.19793,-1.46277z" fill="#000000" stroke-width="0"/></g></g></g></g></svg>