<svg version="1.1" xmlns="http://www.w3.org/2000/svg" xmlns:xlink="http://www.w3.org/1999/xlink" width="116.68772" height="162.42483" viewBox="0,0,116.68772,162.42483"><g transform="translate(-179.16594,-100.87506)"><g data-paper-data="{&quot;isPaintingLayer&quot;:true}" fill-rule="nonzero" stroke="#000000" stroke-linecap="butt" stroke-linejoin="miter" stroke-miterlimit="10" stroke-dasharray="" stroke-dashoffset="0" style="mix-blend-mode: normal"><g data-paper-data="{&quot;index&quot;:null}" stroke-width="2"><path d="M231.42195,224.60799c-0.15157,0.95744 -13.79219,4.50657 -15.49012,3.03362c-4.33591,-3.76133 -5.1259,-14.21602 -5.30165,-15.51298c-0.72018,-5.31444 16.71689,-7.10653 17.43706,-1.79209c0.18472,1.36312 4.16657,9.14343 3.3547,14.27144z" fill="#8a9e8d"/><path d="M228.23157,209.91119c0.15732,0.46718 -16.54739,3.98371 -17.50603,1.42223c-2.44002,-6.5197 2.30218,-28.23489 6.26991,-38.37718c1.16288,-2.97261 3.65972,-4.73735 4.5926,-4.83535c4.72762,-0.49658 7.06756,3.22407 7.06756,3.22407c0,0 -2.47142,32.48627 -0.42401,38.56621z" fill="#89623d"/></g><path d="M271.214,237.01086c0,0 -4.22505,-5.04439 -5.65976,-7.79554c-1.28925,-2.47221 -2.55885,-7.96421 -2.55885,-7.96421l8.41166,-4.31727c0,0 2.04749,5.47557 3.54696,7.49738c2.03814,2.74812 7.65308,7.72523 7.65308,7.72523z" fill="#8a9e8d" stroke-width="2"/><path d="M245.35199,216.22964c-0.87754,-0.32694 2.42042,7.40881 3.6281,14.98527c1.03237,6.47686 -5.10863,16.45247 -5.52444,16.86212c-2.08165,2.05097 -21.68008,3.48191 -21.78457,2.82505c-0.50502,-3.17529 7.80237,-8.62109 7.93723,-14.32683c0.00466,-0.19723 3.12917,-1.3235 3.2897,-2.73212c0.07796,-0.68418 -2.98906,-1.42518 -2.76294,-2.17756c0.562,-1.86982 5.01931,-4.47341 4.93073,-5.05319c-0.34942,-2.28656 -6.78157,-2.15845 -7.06653,-3.56913c-1.62624,-8.05091 -3.79938,-14.42812 -3.79938,-14.42812l45.27427,-12.15169l10.02777,21.5127l-6.81356,0.5908l-2.14347,4.70602l-9.51604,1.05815l-2.07485,-10.27361c0,0 -3.20324,1.47983 -6.71258,2.22142c-0.92366,0.19518 -1.69564,-1.99671 -2.60855,-1.94293c-1.58328,0.09329 -3.23496,2.28332 -4.28083,1.89365z" fill="#757ad6" stroke-width="2"/><path d="M249.91644,257.94899c0.26473,4.78597 -28.39627,6.16236 -28.661,1.37639c-0.01951,-0.35276 -1.51978,-9.70034 0.10215,-10.04459c2.14828,-0.45595 0.27031,-1.2307 4.25428,-1.54709c3.8167,-0.3031 13.46331,-0.18453 17.06615,0.99372c5.71323,1.86841 7.18262,8.21343 7.23838,9.22156z" fill="#5c422a" stroke-width="2"/><path d="M270.14636,243.98082c0,0 0.03535,-4.0592 -0.48884,-5.52847c-0.57421,-1.6095 -3.70993,-4.85456 -3.70993,-4.85456l6.33062,-0.99762l3.74547,-3.37057l5.36351,-0.16759l3.27908,-1.90471c0,0 3.12209,3.20687 3.55952,4.43297c0.60821,1.70481 0.78337,5.66101 0.78337,5.66101z" fill="#757ad6" stroke-width="2"/><path d="M267.8719,243.85784c6.46643,-5.80709 17.44238,-7.69443 22.17748,-8.50836c1.82583,-0.31383 4.57397,10.64366 4.71583,11.04129c1.92469,5.39489 -28.17878,16.13465 -30.10347,10.73976c-0.40542,-1.13639 -1.80701,-8.76713 3.21013,-13.27269z" data-paper-data="{&quot;index&quot;:null}" fill="#5c422a" stroke-width="2"/><g stroke-width="2"><path d="M238.49063,205.01543c0,0 -0.49392,-14.32299 -3.05425,-21.39809c-2.71419,-7.50026 -12.79623,-22.40247 -12.79623,-22.40247l14.93385,-3.83321c0,0 9.61845,14.39869 12.36204,21.77975c2.66883,7.17992 3.88139,21.91991 3.88139,21.91991z" fill="#ffffff"/><path d="M253.88334,201.81486c-0.7094,-5.40437 -1.8258,-16.82529 -3.79043,-22.22729c-2.86779,-7.88538 -13.86212,-22.85669 -13.86212,-22.85669l10.89307,-8.15212c0,0 12.40585,10.71683 17.45509,22.99359c3.29541,8.01248 5.27772,22.09481 6.46993,26.94881c0.33065,1.34613 -16.88656,5.41909 -17.16556,3.29369z" data-paper-data="{&quot;index&quot;:null}" fill="#89623d"/><path d="M223.5925,209.95166c-1.22349,-5.09644 -1.98013,-14.17475 -4.50925,-23.47606c-3.26081,-11.99219 -3.33593,-26.00339 -3.33593,-26.00339l10.23257,0.69842c0,0 9.03039,15.115 11.19189,22.01803c1.88439,6.01808 3.27764,17.30515 4.13479,22.21463c0.25722,1.4733 -17.49116,5.47706 -17.71409,4.54841z" fill="#89623d"/></g><g><path d="M225.83343,188.74567c0.11076,-6.19139 3.20264,-17.50912 4.28527,-22.1389c0.36248,-1.55008 5.42389,-1.6243 6.09023,-0.07419c1.98939,4.62789 4.16912,15.90967 4.24203,22.10498c0.00611,0.51917 -4.89384,11.81095 -7.38112,11.65744c-2.0955,-0.12936 -7.24171,-11.25365 -7.23641,-11.54932z" fill="#ff0000" stroke-width="1"/><path d="M240.89123,162.41508c0,0 -2.61658,5.49116 -7.7868,5.07164c-4.94568,-0.4013 -7.68425,-5.60087 -7.68425,-5.60087z" fill="#ff0000" stroke-width="1"/><path d="M225.99284,179.63353l0.31647,-1.66179l14.06396,2.79654l0.24363,1.84271z" fill="#ffffff" stroke-width="0"/><path d="M227.53342,173.28523l0.42648,-1.76586l11.14935,2.42725l0.35277,1.73863z" fill="#ffffff" stroke-width="0"/><path d="M224.87005,186.87423l0.20199,-1.88138l16.42546,2.93125c0,0 0.0569,0.56375 0.0259,0.83536c-0.03415,0.29904 -0.22235,0.88448 -0.22235,0.88448z" fill="#ffffff" stroke-width="0"/><path d="M227.93466,194.79738l-0.99067,-2.03003l11.06534,2.7479l-0.84866,1.64359z" fill="#ffffff" stroke-width="0"/></g><g stroke-width="2"><path d="M266.42788,190.23106c-2.86553,-5.061 13.36531,-14.95597 16.23088,-9.89499c0.69931,1.23512 6.87769,10.77989 5.60231,16.87261c-0.49942,2.38592 -14.60548,8.27262 -15.36462,7.54546c-4.06598,-3.8947 -5.73358,-13.22497 -6.46856,-14.52308z" fill="#8a9e8d"/><path d="M240.33365,156.95243c0,0 -0.42124,-4.74785 3.98637,-7.42137c0.86971,-0.52753 4.18345,-0.64232 7.13812,1.16109c10.08102,6.15306 28.42487,21.78974 30.59645,29.01992c0.85317,2.8406 -15.87695,10.76613 -16.0477,10.25955c-2.22198,-6.59285 -25.67329,-33.01919 -25.67329,-33.01919z" fill="#89623d"/></g><g><g><path d="M215.76153,166.1402l-13.55083,-10.41853l24.32953,-20.93083l13.56336,13.89018z" fill="#693939" stroke-width="0"/><path d="M206.97436,162.61032l-4.03072,-6.02066l4.83981,-4.50894l6.11238,4.08131z" fill="#faffe0" stroke-width="1.125"/><path d="M214.42994,150.30815l-4.05366,-3.11667l4.58841,-3.50617l3.91028,3.22624z" fill="#faffe0" stroke-width="1.125"/><path d="M222.36733,146.68419l-2.8321,-3.60621l5.94778,-4.9888l1.32931,5.19844z" data-paper-data="{&quot;index&quot;:null}" fill="#faffe0" stroke-width="1.125"/><path d="M230.3424,154.79407l-4.99953,-4.61323l5.9478,-4.98881l4.07029,5.76718z" fill="#faffe0" stroke-width="1.125"/><path d="M219.34529,162.08763l-2.6979,-1.94439l5.14092,-4.13918l1.82567,2.82172z" fill="#faffe0" stroke-width="1.125"/><path d="M197.0146,159.82534c-20.66513,-14.74467 -12.61497,-39.49699 2.20957,-50.8249c14.82452,-11.32789 35.97159,-8.88614 47.23329,5.45381c11.2617,14.33996 8.37347,35.14785 -6.45108,46.47576c-6.97078,5.32657 -16.70203,7.45132 -24.78363,6.88335c-3.49474,-0.24561 21.59557,-19.75773 21.87253,-20.13981c0.23239,-0.32062 -5.73645,-9.81746 -10.56923,-8.58842c-12.14471,3.08857 -26.64162,22.78781 -29.51147,20.74015z" fill="#8a9e8d" stroke-width="2"/></g><g><path d="M207.75932,132.21711c-3.93618,-5.01208 -2.80535,-12.37763 2.52583,-16.45135c5.33117,-4.07371 12.84383,-3.31301 16.78001,1.6991c3.93618,5.01208 2.80536,12.37765 -2.5258,16.45134c-5.33117,4.07371 -12.84385,3.31297 -16.78003,-1.69912z" fill="#fdfff3" stroke-width="2"/><path d="M216.66468,122.43764c-0.8207,-1.04505 -0.58494,-2.5808 0.52665,-3.43019c1.11158,-0.84939 2.67797,-0.69076 3.4987,0.35428c0.82071,1.04503 0.58496,2.58079 -0.52661,3.43018c-1.11157,0.8494 -2.67801,0.69076 -3.49873,-0.35428z" fill="#000000" stroke-width="0"/></g><g><path d="M182.03812,156.29105c-3.14012,-3.99842 -2.23801,-9.87424 2.01496,-13.12407c4.25297,-3.24981 10.24621,-2.64296 13.38632,1.35546c3.14012,3.99842 2.23798,9.87428 -2.01497,13.12407c-4.25297,3.24981 -10.24618,2.64295 -13.38629,-1.35545z" fill="#fdfff3" stroke-width="2"/><path d="M185.72394,152.2404c-0.82071,-1.04503 -0.58493,-2.58078 0.52665,-3.43019c1.11157,-0.8494 2.67798,-0.69074 3.49868,0.3543c0.82071,1.04503 0.58492,2.58077 -0.52663,3.43014c-1.11157,0.8494 -2.67799,0.6908 -3.49871,-0.35425z" fill="#000000" stroke-width="0"/></g></g></g></g></svg>