<svg version="1.1" xmlns="http://www.w3.org/2000/svg" xmlns:xlink="http://www.w3.org/1999/xlink" width="45.83537" height="52.1878" viewBox="0,0,45.83537,52.1878"><g transform="translate(-216.81068,-158.19189)"><g data-paper-data="{&quot;isPaintingLayer&quot;:true}" fill-rule="nonzero" stroke="#000000" stroke-width="0.5" stroke-linejoin="miter" stroke-miterlimit="10" stroke-dasharray="" stroke-dashoffset="0" style="mix-blend-mode: normal"><path d="M237.10572,205.71703v-25.20887h4.40543v25.20887z" fill="#00c902" stroke-linecap="butt"/><path d="M228.13915,208.8164c-5.55155,-2.0855 -9.24915,-5.9132 -8.25883,-8.54941c0.99033,-2.63621 6.29356,-3.08265 11.8451,-0.99715c5.55155,2.0855 9.24915,5.91321 8.25883,8.54941c-0.99033,2.63621 -6.29356,3.08265 -11.8451,0.99714z" data-paper-data="{&quot;index&quot;:null}" fill="#00c902" stroke-linecap="butt"/><path d="M240.13172,207.29557c-0.99033,-2.63621 2.70728,-6.46391 8.25883,-8.54941c5.55155,-2.0855 10.85478,-1.63906 11.8451,0.99715c0.99033,2.63621 -2.70728,6.46391 -8.25883,8.54941c-5.55155,2.0855 -10.85478,1.63907 -11.8451,-0.99714z" data-paper-data="{&quot;index&quot;:null}" fill="#00c902" stroke-linecap="butt"/><g><path d="M217.13307,177.06978c0,0 4.35987,-4.40748 7.0968,-4.37009c2.73694,0.03738 4.92759,2.12206 4.89298,4.65626c-0.03462,2.53419 -2.2814,4.55826 -5.01833,4.52087c-2.73694,-0.03738 -6.97145,-4.80703 -6.97145,-4.80703z" data-paper-data="{&quot;index&quot;:null}" fill="#fffc00" stroke-linecap="butt"/><path d="M223.89027,196.63768c0,0 -0.34597,-6.18989 1.5171,-8.19517c1.86307,-2.00528 4.87857,-2.23245 6.73532,-0.50737c1.85675,1.72507 1.85161,4.74911 -0.01147,6.75439c-1.86307,2.00528 -8.24097,1.94815 -8.24097,1.94815z" data-paper-data="{&quot;index&quot;:null}" fill="#fffc00" stroke-linecap="butt"/><path d="M217.72739,187.19742c0,0 2.41003,-5.71193 4.9649,-6.69419c2.55487,-0.98227 5.36329,0.13919 6.27278,2.5048c0.9095,2.36561 -0.42434,5.07961 -2.97921,6.06186c-2.55487,0.98227 -8.25849,-1.87247 -8.25849,-1.87247z" data-paper-data="{&quot;index&quot;:null}" fill="#fffc00" stroke-linecap="butt"/><path d="M262.21625,183.27975c0,0 -4.65162,4.0984 -7.37955,3.87358c-2.72794,-0.22482 -4.77061,-2.45469 -4.56245,-4.98056c0.20818,-2.52587 2.58835,-4.39123 5.31628,-4.16641c2.72794,0.22482 6.6257,5.27339 6.6257,5.27339z" data-paper-data="{&quot;index&quot;:null}" fill="#fffc00" stroke-linecap="butt"/><path d="M256.81565,163.29489c0,0 -0.07895,6.19905 -2.07504,8.07196c-1.99609,1.87291 -5.02007,1.89293 -6.75425,0.0447c-1.73418,-1.84823 -1.52187,-4.86482 0.47422,-6.73772c1.99609,-1.87291 8.35507,-1.37893 8.35507,-1.37893z" data-paper-data="{&quot;index&quot;:null}" fill="#fffc00" stroke-linecap="butt"/><path d="M262.31725,173.13521c0,0 -2.79574,5.53337 -5.41189,6.33827c-2.61616,0.8049 -5.34116,-0.50632 -6.08643,-2.9287c-0.74527,-2.42238 0.77139,-5.0386 3.38755,-5.8435c2.61616,-0.8049 8.11078,2.43392 8.11078,2.43392z" data-paper-data="{&quot;index&quot;:null}" fill="#fffc00" stroke-linecap="butt"/><path d="M235.80301,200.52829c0,0 -4.11794,-4.63433 -3.90461,-7.36317c0.21334,-2.72885 2.43459,-4.78091 4.96132,-4.58338c2.52672,0.19753 4.40209,2.56983 4.18875,5.29871c-0.21334,2.72885 -5.24546,6.64786 -5.24546,6.64786z" data-paper-data="{&quot;index&quot;:null}" fill="#fffc00" stroke-linecap="butt"/><path d="M255.76497,195.0436c0,0 -6.19932,-0.05286 -8.08063,-2.04104c-1.88131,-1.98818 -1.91404,-5.01206 -0.07313,-6.75401c1.84092,-1.74195 4.85836,-1.54233 6.73966,0.44587c1.88131,1.98818 1.41409,8.34919 1.41409,8.34919z" data-paper-data="{&quot;index&quot;:null}" fill="#fffc00" stroke-linecap="butt"/><path d="M245.94789,200.58657c0,0 -5.5451,-2.77241 -6.36101,-5.38517c-0.8159,-2.61275 0.48384,-5.34323 2.90306,-6.09869c2.41922,-0.75546 5.0418,0.75017 5.8577,3.36291c0.8159,2.61275 -2.39976,8.12096 -2.39976,8.12096z" data-paper-data="{&quot;index&quot;:null}" fill="#fffc00" stroke-linecap="butt"/><path d="M232.7486,167.86227c1.72832,2.12252 1.5362,5.14045 -0.42911,6.74075c-1.9653,1.60029 -4.95957,1.17692 -6.68789,-0.94559c-1.72832,-2.12252 -0.97935,-8.27668 -0.97935,-8.27668c0,0 6.36804,0.35899 8.09635,2.48151z" fill="#fffc00" stroke-linecap="butt"/><path d="M247.77641,166.20142c-0.41559,2.70545 -2.78323,4.5867 -5.28828,4.2019c-2.50505,-0.3848 -4.19889,-2.88995 -3.7833,-5.59541c0.41559,-2.70545 5.48319,-6.27671 5.48319,-6.27671c0,0 4.00398,4.96476 3.58839,7.67021z" fill="#fffc00" stroke-linecap="butt"/><path d="M239.5558,164.87199c0.8159,2.61275 -0.48384,5.34323 -2.90305,6.09869c-2.41922,0.75546 -5.0418,-0.75017 -5.8577,-3.36292c-0.8159,-2.61275 2.16614,-8.048 2.16614,-8.048c0,0 5.77873,2.69946 6.59464,5.31223z" fill="#fffc00" stroke-linecap="butt"/><path d="M254.36037,176.12454c1.97429,6.32222 -3.23019,12.80321 -10.77814,15.16026c-7.54795,2.35705 -15.51563,-0.01059 -17.48992,-6.33281c-1.97429,-6.32222 2.82894,-14.08811 10.37689,-16.44516c7.54795,-2.35705 15.91688,1.29549 17.89116,7.61771z" fill="#efa900" stroke-linecap="butt"/><path d="M250.52831,181.1244c0,0 -5.42724,5.41263 -8.75423,6.45158c-3.21021,1.00247 -10.86989,-0.32342 -10.86989,-0.32342" fill="none" stroke-linecap="round"/><g data-paper-data="{&quot;index&quot;:null}" stroke-linecap="butt"><path d="M234.13247,175.02115c1.44045,-0.44982 3.09203,0.73501 3.68891,2.64638c0.59688,1.91138 -0.08697,3.8255 -1.52743,4.27532c-1.44045,0.44982 -3.09204,-0.73501 -3.68892,-2.64638c-0.59688,-1.91138 0.08698,-3.8255 1.52744,-4.27532z" fill="#000000"/><path d="M234.94888,175.28432c0.81026,-0.25302 1.73926,0.41344 2.07501,1.4886c0.33574,1.07514 -0.04892,2.15185 -0.85917,2.40487c-0.81026,0.25302 -1.73927,-0.41343 -2.07501,-1.48859c-0.33574,-1.07514 0.04892,-2.15185 0.85918,-2.40487z" fill="#ffffff"/></g><g data-paper-data="{&quot;index&quot;:null}" stroke-linecap="butt"><path d="M241.59131,172.48232c1.44045,-0.44982 3.09205,0.735 3.68893,2.64637c0.59688,1.91138 -0.08698,3.8255 -1.52744,4.27532c-1.44045,0.44982 -3.09204,-0.735 -3.68892,-2.64638c-0.59688,-1.91138 0.08697,-3.8255 1.52743,-4.27532z" fill="#000000"/><path d="M242.40772,172.7455c0.81026,-0.25302 1.73926,0.41344 2.075,1.48859c0.33574,1.07514 -0.04892,2.15185 -0.85917,2.40487c-0.81026,0.25302 -1.73927,-0.41344 -2.07502,-1.48859c-0.33574,-1.07514 0.04893,-2.15184 0.85918,-2.40487z" fill="#ffffff"/></g></g></g></g></svg>