<svg version="1.1" xmlns="http://www.w3.org/2000/svg" xmlns:xlink="http://www.w3.org/1999/xlink" width="63.47688" height="69.10037" viewBox="0,0,63.47688,69.10037"><g transform="translate(-206.76156,-147.19982)"><g data-paper-data="{&quot;isPaintingLayer&quot;:true}" fill-rule="nonzero" stroke="#000000" stroke-width="1.2" stroke-linejoin="miter" stroke-miterlimit="10" stroke-dasharray="" stroke-dashoffset="0" style="mix-blend-mode: normal"><path d="M229.8977,203.63729c-6.12434,-2.19816 -10.20344,-6.23264 -9.11095,-9.01126c1.0925,-2.77862 6.9429,-3.24917 13.06724,-1.051c6.12434,2.19816 10.20345,6.23264 9.11095,9.01125c-1.0925,2.77862 -6.94291,3.24917 -13.06725,1.051z" data-paper-data="{&quot;index&quot;:null}" fill="#00c902" stroke-linecap="butt"/><path d="M243.12762,202.0343c-1.0925,-2.77862 2.98661,-6.81309 9.11095,-9.01125c6.12434,-2.19816 11.97474,-1.72761 13.06724,1.05101c1.09251,2.77862 -2.98661,6.81309 -9.11095,9.01125c-6.12434,2.19816 -11.97474,1.72761 -13.06724,-1.051z" data-paper-data="{&quot;index&quot;:null}" fill="#00c902" stroke-linecap="butt"/><path d="M240.10852,205.68089l-2.63851,-21.16749l5.5774,-0.63464l2.63851,21.16749z" fill="#00ff0e" stroke-linecap="butt"/><path d="M248.0082,179.70186c-0.1453,3.16542 -3.8222,5.58238 -8.2126,5.39841c-4.3904,-0.18396 -7.83173,-2.89918 -7.68643,-6.06461c0.1453,-3.16542 16.04432,-2.49923 15.89903,0.66619z" fill="#00c902" stroke-linecap="butt"/><path d="M223.1239,164.55973c0,-9.20886 7.8134,-16.6741 17.45173,-16.6741c9.63833,0 17.45173,7.46525 17.45173,16.6741c0,9.20886 -7.8134,16.67409 -17.45173,16.67409c-9.63833,0 -17.45173,-7.46524 -17.45173,-16.67409z" fill="#00ff0e" stroke-linecap="butt"/><g data-paper-data="{&quot;index&quot;:null}" stroke-linecap="butt"><path d="M240.10782,158.42857c2.07804,0 3.76263,2.13572 3.76263,4.77026c0,2.63454 -1.68458,4.77026 -3.76263,4.77026c-2.07804,0 -3.76263,-2.13572 -3.76263,-4.77026c0,-2.63454 1.68458,-4.77026 3.76263,-4.77026z" fill="#000000"/><path d="M241.07293,159.07926c1.1689,0 2.11648,1.20134 2.11648,2.68327c0,1.48193 -0.94758,2.68327 -2.11648,2.68327c-1.1689,0 -2.11649,-1.20134 -2.11649,-2.68327c0,-1.48193 0.94758,-2.68327 2.11649,-2.68327z" fill="#ffffff"/></g><g stroke-linecap="butt"><path d="M254.6021,165.15088c0,-8.46789 2.62216,-15.33247 5.85676,-15.33247c3.2346,0 5.85676,6.86458 5.85676,15.33247c0,8.46789 -2.62216,15.33246 -5.85676,15.33246c-3.2346,0 -5.85676,-6.86458 -5.85676,-15.33246z" fill="#00ff0e"/><path d="M256.48952,164.98724c0,-6.1908 1.79313,-11.20945 4.00507,-11.20945c2.21195,0 4.00508,5.01864 4.00508,11.20945c0,6.1908 -1.79313,11.20946 -4.00508,11.20946c-2.21195,0 -4.00507,-5.01865 -4.00507,-11.20946z" fill="#000000"/></g><path d="M217.93626,150.3583l1.4502,-1.75501l7.46994,5.63472l-1.45021,1.75501z" fill="#00c902" stroke-linecap="butt"/><path d="M217.36489,155.79537c-0.63995,1.19223 -3.00478,3.10149 -3.38924,4.15546c-1.04477,2.86415 0.58099,5.36368 0.34429,4.96618c-0.27416,-0.4604 -2.2639,-0.73953 -2.7738,-1.39817c-2.35756,-3.04527 -5.34134,-8.1278 -3.72487,-11.13926c2.379,-4.43206 10.2583,-4.94775 11.37007,-4.40299c1.11177,0.54476 0.55254,3.38671 -1.82645,7.81877z" fill="#00c902" stroke-linecap="butt"/><path d="M243.00505,203.39133c1.28787,3.2755 -3.52068,8.03144 -10.74019,10.62268c-7.21952,2.59124 -14.11611,2.03655 -15.40396,-1.23895c-1.28787,-3.2755 3.52068,-8.03144 10.7402,-10.62268c7.21952,-2.59124 14.11611,-2.03654 15.40397,1.23895z" fill="#00c902" stroke-linecap="butt"/><path d="M258.68963,202.20678c7.21952,2.59124 12.02806,7.34719 10.7402,10.62268c-1.28786,3.2755 -8.18446,3.8302 -15.40397,1.23895c-7.21952,-2.59124 -12.02806,-7.34719 -10.74019,-10.62268c1.28787,-3.2755 8.18445,-3.8302 15.40397,-1.23895z" data-paper-data="{&quot;index&quot;:null}" fill="#00c902" stroke-linecap="butt"/><path d="M227.29921,208.90309l14.97817,-5.96281" fill="none" stroke-linecap="round"/><path d="M243.68158,203.08935l15.60226,6.41003" fill="none" stroke-linecap="round"/><path d="M258.97181,195.63583l-12.63784,4.91933" fill="none" stroke-linecap="round"/><path d="M226.20704,195.7849l14.04204,4.77026" fill="none" stroke-linecap="round"/><g data-paper-data="{&quot;index&quot;:null}" stroke-linecap="butt"><path d="M248.4657,153.76682c1.89493,0 3.43108,1.94751 3.43108,4.34989c0,2.40238 -1.53615,4.34989 -3.43108,4.34989c-1.89493,0 -3.43107,-1.94751 -3.43107,-4.34989c0,-2.40238 1.53614,-4.34989 3.43107,-4.34989z" fill="#000000"/><path d="M249.34577,154.36017c1.0659,0 1.92997,1.09548 1.92997,2.44682c0,1.35134 -0.86408,2.44682 -1.92997,2.44682c-1.0659,0 -1.92998,-1.09548 -1.92998,-2.44682c0,-1.35134 0.86408,-2.44682 1.92998,-2.44682z" fill="#ffffff"/></g></g></g></svg>