<svg version="1.1" xmlns="http://www.w3.org/2000/svg" xmlns:xlink="http://www.w3.org/1999/xlink" width="86.72317" height="170.24076" viewBox="0,0,86.72317,170.24076"><g transform="translate(-194.4037,-94.92505)"><g data-paper-data="{&quot;isPaintingLayer&quot;:true}" fill-rule="nonzero" stroke="#000000" stroke-linecap="butt" stroke-linejoin="miter" stroke-miterlimit="10" stroke-dasharray="" stroke-dashoffset="0" style="mix-blend-mode: normal"><g data-paper-data="{&quot;index&quot;:null}" stroke-width="2"><path d="M209.89555,209.50686c-0.66634,0.70403 -13.92413,-4.08071 -14.49185,-6.25562c-1.44979,-5.5539 3.80949,-14.62388 4.39781,-15.79301c2.41067,-4.79068 17.80648,3.58975 15.39581,8.38044c-0.61832,1.22878 -1.73282,9.89748 -5.30177,13.66819z" fill="#8a9e8d"/><path d="M215.57334,195.58072c-0.13437,0.47429 -15.90109,-6.06972 -15.24359,-8.72449c1.67352,-6.75719 17.8624,-21.98735 26.86937,-28.10972c2.63985,-1.79442 5.69706,-1.83836 6.52193,-1.39175c4.18023,2.26332 4.00669,6.65517 4.00669,6.65517c0,0 -20.40565,25.39833 -22.15438,31.57081z" fill="#89623d"/></g><path d="M259.62172,243.21828c0,0 -2.84576,-5.93283 -3.55525,-8.95342c-0.63756,-2.71431 -0.50901,-8.34969 -0.50901,-8.34969l9.21825,-2.10207c0,0 0.62922,5.8119 1.58189,8.14182c1.29492,3.16691 5.50401,9.37842 5.50401,9.37842z" fill="#8a9e8d" stroke-width="2"/><path d="M236.23274,216.70133c-0.7687,-0.53485 0.50244,7.77795 -0.21146,15.41677c-0.61032,6.53015 -3.94701,14.94027 -4.45161,15.23368c-2.5262,1.46904 -20.17645,-0.55168 -20.11434,-1.21389c0.30028,-3.20115 2.92055,-8.15091 4.46974,-13.64397c0.05355,-0.18988 3.35997,-0.50397 3.86567,-1.82845c0.24561,-0.64332 -2.54088,-2.12357 -2.1348,-2.79611c1.00923,-1.67138 5.97388,-3.08505 6.03222,-3.66865c0.23004,-2.30164 -6.032,-3.77671 -5.95729,-5.21394c0.42644,-8.20244 -0.09297,-14.9197 -0.09297,-14.9197l46.87386,-0.51406l4.36442,23.33033l-6.74651,-1.12174l-3.24619,4.02535l-9.48032,-1.34095l0.54453,-10.46688c0,0 -3.47058,0.63697 -7.0541,0.48279c-0.94318,-0.04059 -1.14599,-2.35559 -2.0436,-2.53046c-1.55676,-0.30327 -3.70106,1.40735 -4.61722,0.76989z" fill="#757ad6" stroke-width="2"/><path d="M237.01695,257.08958c0,4.79232 -26.74097,4.79232 -26.74097,0c0,-0.35324 -0.91492,-9.76037 0.61206,-10.02638c3.96013,-0.68983 13.13981,-2.28821 19.86794,0.46988c5.2202,2.13994 6.26094,8.54702 6.26094,9.55649z" fill="#5c422a" stroke-width="2"/><path d="M256.86295,249.70746c0,0 1.03846,-3.92428 0.89407,-5.47756c-0.15819,-1.70154 -2.39361,-5.62147 -2.39361,-5.62147l6.38063,0.59956l4.46291,-2.33918l5.23824,1.16452l3.64836,-1.03427c0,0 2.23168,3.87958 2.35218,5.17578c0.16754,1.80228 -0.64148,5.67883 -0.64148,5.67883z" fill="#757ad6" stroke-width="2"/><path d="M254.68962,249.02561c7.70206,-4.0268 18.80375,-3.14012 23.593,-2.7573c1.84672,0.14762 1.79861,11.44437 1.83769,11.86475c0.53021,5.70335 -31.29447,8.66186 -31.82466,2.95851c-0.11168,-1.20137 0.41811,-8.94165 6.39392,-12.06595z" data-paper-data="{&quot;index&quot;:null}" fill="#5c422a" stroke-width="2"/><g stroke-width="2"><path d="M232.37489,204.13337c0,0 3.08257,-13.99606 2.36164,-21.48556c-0.76425,-7.93956 -6.82474,-24.88045 -6.82474,-24.88045h15.41796c0,0 5.73664,16.33792 6.55901,24.16934c0.79996,7.618 -1.69021,22.19664 -1.69021,22.19664z" fill="#ffffff"/><path d="M248.08001,204.86023c0.65651,-5.41105 2.41464,-16.75093 1.85473,-22.47175c-0.81728,-8.35078 -7.74423,-25.58541 -7.74423,-25.58541l12.57782,-5.18792c0,0 9.3519,13.46467 11.19036,26.6113c1.19988,8.5802 -0.3812,22.71321 -0.43323,27.7112c-0.01441,1.38607 -17.70363,1.0506 -17.44547,-1.07743z" data-paper-data="{&quot;index&quot;:null}" fill="#89623d"/><path d="M216.7173,205.21063c0.082,-5.2406 1.60617,-14.22198 1.46895,-23.86003c-0.17693,-12.42635 3.23377,-26.01629 3.23377,-26.01629l9.73764,3.22051c0,0 4.98896,16.88554 5.36636,24.10922c0.32901,6.29762 -1.12768,17.57667 -1.51804,22.54511c-0.11715,1.49099 -18.30366,0.95644 -18.28871,0.00152z" fill="#89623d"/></g><g><path d="M242.08966,183.71342c-2.68496,-5.58002 -5.01217,-17.07936 -6.12688,-21.70152c-0.37321,-1.54753 4.11431,-3.88963 5.40649,-2.80468c3.85782,3.23917 10.87753,12.33607 13.7283,17.837c0.2389,0.46098 0.93945,12.75013 -1.35123,13.73139c-1.92989,0.82668 -11.52845,-6.79571 -11.65667,-7.06219z" fill="#ff0000" stroke-width="1"/><path d="M243.70016,153.42407c0,0 0.13189,6.08128 -4.67483,8.03129c-4.59797,1.86533 -9.38203,-1.5476 -9.38203,-1.5476z" fill="#ff0000" stroke-width="1"/><path d="M238.13486,175.50268l-0.46453,-1.62662l13.8195,-3.82581l1.04617,1.53638z" fill="#ffffff" stroke-width="0"/><path d="M236.65648,169.1396l-0.41307,-1.76905l11.0501,-2.84515l1.09685,1.39434z" fill="#ffffff" stroke-width="0"/><path d="M240.3877,182.475l-0.66553,-1.7713l15.9894,-4.76732c0,0 0.30431,0.47797 0.39874,0.73451c0.10395,0.28246 0.19908,0.89 0.19908,0.89z" fill="#ffffff" stroke-width="0"/><path d="M246.68759,188.17406l-1.79765,-1.3678l11.11924,-2.52097l-0.019,1.84966z" fill="#ffffff" stroke-width="0"/></g><g stroke-width="2"><path d="M244.67913,201.6129c2.66722,-5.16826 19.83217,2.9997 17.16498,8.16798c-0.65093,1.26129 -5.25744,11.65623 -11.05458,13.92362c-2.27016,0.88792 -14.91758,-7.69564 -14.72449,-8.72897c1.03407,-5.53456 7.92998,-12.03698 8.6141,-13.36262z" fill="#8a9e8d"/><path d="M258.2482,161.55973c0,0 3.74297,-2.95121 8.39293,-0.72573c0.91752,0.43915 2.82731,3.14964 2.93521,6.60951c0.36811,11.80472 -2.67821,35.71545 -7.54068,41.4902c-1.91037,2.2688 -17.70032,-7.39497 -17.36981,-7.81513c4.30149,-5.46811 13.58233,-39.55887 13.58233,-39.55887z" fill="#89623d"/></g><g><g><path d="M214.46919,149.23617l-2.19335,-17.13386l32.09374,2.10104l-0.26386,19.65312z" fill="#693939" stroke-width="0"/><path d="M210.75523,140.45839l1.42296,-7.20917l6.62956,0.16831l1.42849,7.28156z" fill="#faffe0" stroke-width="1.125"/><path d="M224.77269,136.84449l-0.65611,-5.12552l5.73923,0.71533l0.47677,5.10317z" fill="#faffe0" stroke-width="1.125"/><path d="M232.96671,139.84724l0.55651,-4.61409l7.75488,0.60627l-2.75153,4.7008z" data-paper-data="{&quot;index&quot;:null}" fill="#faffe0" stroke-width="1.125"/><path d="M232.8523,151.36153l-0.26272,-6.8778l7.75489,0.60628l-1.21489,7.05391z" fill="#faffe0" stroke-width="1.125"/><path d="M219.88526,148.84465l-0.52894,-3.31733l6.58009,0.64902l-0.71181,3.33381z" fill="#faffe0" stroke-width="1.125"/><path d="M205.68192,131.38852c-4.15729,-25.30227 19.12509,-37.49777 37.66779,-35.1866c18.54267,2.31117 31.78051,19.05851 29.56758,37.40626c-2.21296,18.34773 -19.03871,31.34795 -37.5814,29.03678c-8.7191,-1.08676 -17.11824,-6.44448 -22.43666,-12.58062c-2.29986,-2.65346 29.32477,1.01244 29.79226,0.93236c0.39229,-0.06721 2.91235,-11.1631 -1.38237,-13.69816c-10.79255,-6.37057 -35.04984,-2.39624 -35.62716,-5.91008z" fill="#8a9e8d" stroke-width="2"/></g><g><path d="M232.90075,119.03689c0.77349,-6.41289 6.80621,-10.93785 13.47449,-10.1067c6.66827,0.83114 11.44695,6.70358 10.67348,13.11649c-0.77349,6.41289 -6.80621,10.93785 -13.47447,10.10671c-6.66827,-0.83114 -11.44696,-6.70361 -10.67347,-13.1165z" fill="#fdfff3" stroke-width="2"/><path d="M246.15268,118.27428c0.16129,-1.33711 1.41913,-2.2806 2.8095,-2.10729c1.39038,0.1733 2.38671,1.39772 2.22544,2.73484c-0.16126,1.33711 -1.41909,2.2806 -2.80946,2.10731c-1.39038,-0.17329 -2.38673,-1.39774 -2.22548,-2.73486z" fill="#000000" stroke-width="0"/></g><g><path d="M197.589,118.22273c0.61704,-5.11592 5.42961,-8.72568 10.74927,-8.06264c5.31965,0.66307 9.13185,5.34781 8.5148,10.46372c-0.61704,5.11592 -5.42966,8.72569 -10.74928,8.06264c-5.31965,-0.66307 -9.13182,-5.34779 -8.51479,-10.46371z" fill="#fdfff3" stroke-width="2"/><path d="M203.07596,117.90489c0.16126,-1.33711 1.41913,-2.28059 2.8095,-2.10729c1.39037,0.17329 2.38671,1.39773 2.22543,2.73484c-0.16126,1.33711 -1.41912,2.28057 -2.80947,2.10728c-1.39037,-0.17329 -2.38674,-1.3977 -2.22548,-2.73484z" fill="#000000" stroke-width="0"/></g></g></g></g></svg>