<svg version="1.1" xmlns="http://www.w3.org/2000/svg" xmlns:xlink="http://www.w3.org/1999/xlink" width="60.15406" height="72.76703" viewBox="0,0,60.15406,72.76703"><g transform="translate(-209.92297,-143.61649)"><g data-paper-data="{&quot;isPaintingLayer&quot;:true}" fill-rule="nonzero" stroke="#000000" stroke-width="1.2" stroke-linejoin="miter" stroke-miterlimit="10" stroke-dasharray="" stroke-dashoffset="0" style="mix-blend-mode: normal"><g><path d="M229.5591,203.15804c-6.12434,-2.30068 -10.20345,-6.52331 -9.11095,-9.43151c1.09251,-2.9082 6.94291,-3.4007 13.06725,-1.10003c6.12434,2.30068 10.20345,6.52332 9.11095,9.43151c-1.09251,2.9082 -6.94291,3.4007 -13.06725,1.10002z" data-paper-data="{&quot;index&quot;:null}" fill="#00c902" stroke-linecap="butt"/><path d="M242.78903,201.48029c-1.09251,-2.9082 2.98661,-7.13083 9.11095,-9.43151c6.12434,-2.30068 11.97474,-1.80818 13.06725,1.10003c1.09251,2.9082 -2.98661,7.13083 -9.11095,9.43151c-6.12434,2.30068 -11.97474,1.80818 -13.06725,-1.10002z" data-paper-data="{&quot;index&quot;:null}" fill="#00c902" stroke-linecap="butt"/><path d="M240.14851,205.05431v-22.31124h5.61682v22.31124z" fill="#00ff0e" stroke-linecap="butt"/><path d="M251.04425,177.65012c0,3.31624 -3.56254,6.00458 -7.95716,6.00458c-4.39462,0 -7.95716,-2.68834 -7.95716,-6.00458c0,-3.31624 15.91431,-3.31624 15.91431,0z" fill="#00c902" stroke-linecap="butt"/><path d="M226.28531,161.75802c0,-9.63833 7.8134,-17.45172 17.45173,-17.45172c9.63833,0 17.45173,7.8134 17.45173,17.45173c0,9.63833 -7.8134,17.45173 -17.45173,17.45173c-9.63833,0 -17.45172,-7.8134 -17.45172,-17.45172z" fill="#00ff0e" stroke-linecap="butt"/><g data-paper-data="{&quot;index&quot;:null}" stroke-linecap="butt"><path d="M243.26923,155.34092c2.07804,0 3.76263,2.23532 3.76263,4.99273c0,2.75741 -1.68459,4.99273 -3.76263,4.99273c-2.07804,0 -3.76263,-2.23532 -3.76263,-4.99273c0,-2.75741 1.68459,-4.99273 3.76263,-4.99273z" fill="#000000"/><path d="M244.23434,156.02196c1.1689,0 2.11647,1.25737 2.11647,2.80841c0,1.55104 -0.94758,2.80841 -2.11647,2.80841c-1.1689,0 -2.11648,-1.25737 -2.11648,-2.80841c0,-1.55104 0.94758,-2.80841 2.11648,-2.80841z" fill="#ffffff"/></g><g stroke-linecap="butt"><path d="M257.76351,162.37673c0,-8.8628 2.62216,-16.04753 5.85676,-16.04753c3.2346,0 5.85676,7.18472 5.85676,16.04753c0,8.8628 -2.62216,16.04752 -5.85676,16.04752c-3.2346,0 -5.85676,-7.18472 -5.85676,-16.04752z" fill="#00ff0e"/><path d="M259.65093,162.20547c0,-6.47953 1.79313,-11.73222 4.00507,-11.73222c2.21195,0 4.00507,5.25269 4.00507,11.73222c0,6.47953 -1.79313,11.73222 -4.00507,11.73222c-2.21195,0 -4.00507,-5.25269 -4.00507,-11.73222z" fill="#000000"/></g><path d="M221.09767,146.89428l1.4502,-1.83687l7.46993,5.89752l-1.4502,1.83686z" fill="#00c902" stroke-linecap="butt"/><path d="M220.5263,152.58492c-0.63994,1.24783 -3.00478,3.24613 -3.38925,4.34926c-1.04478,2.99773 0.58099,5.61383 0.34429,5.1978c-0.27416,-0.48187 -2.2639,-0.77402 -2.77379,-1.46339c-2.35756,-3.18729 -5.34134,-8.50685 -3.72487,-11.65876c2.379,-4.63876 10.2583,-5.1785 11.37006,-4.60833c1.11177,0.57017 0.55255,3.54465 -1.82644,8.18341z" fill="#00c902" stroke-linecap="butt"/><path d="M242.66646,202.90061c1.28787,3.42826 -3.52069,8.406 -10.7402,11.11809c-7.21951,2.71209 -14.11611,2.13152 -15.40397,-1.29673c-1.28787,-3.42826 3.52069,-8.406 10.7402,-11.11809c7.21951,-2.71209 14.11611,-2.13152 15.40397,1.29673z" fill="#00c902" stroke-linecap="butt"/><path d="M258.35104,201.66082c7.21951,2.71209 12.02806,7.68983 10.7402,11.11808c-1.28786,3.42826 -8.18446,4.00883 -15.40397,1.29673c-7.21951,-2.71209 -12.02806,-7.68983 -10.7402,-11.11809c1.28787,-3.42826 8.18445,-4.00883 15.40397,-1.29673z" data-paper-data="{&quot;index&quot;:null}" fill="#00c902" stroke-linecap="butt"/><path d="M241.93878,202.42853l-14.97817,6.24091" fill="none" stroke-linecap="round"/><path d="M243.34299,202.58455l15.60226,6.70897" fill="none" stroke-linecap="round"/><path d="M258.63321,194.78341l-12.63784,5.14875" fill="none" stroke-linecap="round"/><path d="M239.91049,199.93216l-14.04204,-4.99273" fill="none" stroke-linecap="round"/><g data-paper-data="{&quot;index&quot;:null}" stroke-linecap="butt"><path d="M251.62711,150.46177c1.89492,0 3.43107,2.03835 3.43107,4.55276c0,2.51443 -1.53614,4.55276 -3.43107,4.55276c-1.89492,0 -3.43107,-2.03835 -3.43107,-4.55276c0,-2.51443 1.53614,-4.55276 3.43107,-4.55276z" fill="#000000"/><path d="M252.50718,151.0828c1.0659,0 1.92997,1.14657 1.92997,2.56093c0,1.41436 -0.86408,2.56093 -1.92997,2.56093c-1.0659,0 -1.92998,-1.14657 -1.92998,-2.56093c0,-1.41436 0.86408,-2.56093 1.92998,-2.56093z" fill="#ffffff"/></g></g></g></g></svg>