<svg version="1.1" xmlns="http://www.w3.org/2000/svg" xmlns:xlink="http://www.w3.org/1999/xlink" width="43.05614" height="44.80662" viewBox="0,0,43.05614,44.80662"><g transform="translate(-219.85637,-163.13448)"><g data-paper-data="{&quot;isPaintingLayer&quot;:true}" fill-rule="nonzero" stroke-width="0.5" stroke-linejoin="miter" stroke-miterlimit="10" stroke-dasharray="" stroke-dashoffset="0" style="mix-blend-mode: normal"><path d="M260.58769,194.15255c-5.05516,11.26852 -17.75076,16.54651 -28.35643,11.7887c-10.60567,-4.7578 -15.10522,-17.7497 -10.05006,-29.01822c5.05516,-11.26852 17.75078,-16.5465 28.35643,-11.7887c10.60567,4.7578 15.10522,17.7497 10.05006,29.01822z" fill="#d68d00" stroke="#000000" stroke-linecap="butt"/><path d="M244.66164,196.4116c0,0 -2.91204,1.57426 -5.16125,0.56524c-2.30842,-1.03558 -3.25791,-3.91538 -3.25791,-3.91538" fill="none" stroke="#000000" stroke-linecap="round"/><g stroke-linecap="butt"><path d="M244.04449,181.20443c-1.18945,2.65141 -4.21352,3.87675 -6.75448,2.73685c-2.54094,-1.13989 -3.63653,-4.21335 -2.44708,-6.86476c1.18945,-2.65141 4.21351,-3.87675 6.75446,-2.73686c2.54094,1.13989 3.63655,4.21335 2.4471,6.86477z" fill="#ffffff" stroke="#000000"/><path d="M241.05419,180.07634c0.16504,-0.36789 0.59706,-0.53233 0.96495,-0.36729c0.36789,0.16504 0.53231,0.59705 0.36727,0.96494c-0.16504,0.36789 -0.59705,0.53232 -0.96493,0.36728c-0.36789,-0.16504 -0.53233,-0.59705 -0.3673,-0.96493z" fill="#000000" stroke="none"/></g><g stroke-linecap="butt"><path d="M256.51844,186.69367c-1.18945,2.65141 -4.21352,3.87675 -6.75447,2.73685c-2.54094,-1.13989 -3.63654,-4.21335 -2.44709,-6.86476c1.18945,-2.65141 4.21352,-3.87675 6.75446,-2.73686c2.54094,1.13989 3.63655,4.21335 2.4471,6.86477z" fill="#ffffff" stroke="#000000"/><path d="M253.79457,185.68511c0.16504,-0.36789 0.59706,-0.53231 0.96494,-0.36727c0.36789,0.16504 0.53232,0.59704 0.36728,0.96492c-0.16504,0.36789 -0.59706,0.53234 -0.96494,0.3673c-0.36789,-0.16504 -0.53233,-0.59706 -0.36729,-0.96495z" fill="#000000" stroke="none"/></g></g></g></svg>