<svg version="1.1" xmlns="http://www.w3.org/2000/svg" xmlns:xlink="http://www.w3.org/1999/xlink" width="43.04979" height="44.81287" viewBox="0,0,43.04979,44.81287"><g transform="translate(-217.26371,-163.13136)"><g data-paper-data="{&quot;isPaintingLayer&quot;:true}" fill-rule="nonzero" stroke-width="0.5" stroke-linejoin="miter" stroke-miterlimit="10" stroke-dasharray="" stroke-dashoffset="0" style="mix-blend-mode: normal"><path d="M258.01949,176.98493c5.01884,11.28474 0.47747,24.26208 -10.14347,28.9857c-10.62094,4.72362 -23.29947,-0.59523 -28.31831,-11.87997c-5.01884,-11.28474 -0.47745,-24.26208 10.14347,-28.9857c10.62094,-4.72362 23.29947,0.59523 28.31831,11.87997z" fill="#d68d00" stroke="#000000" stroke-linecap="butt"/><path d="M249.07395,190.35353c0,0 -0.77086,3.21932 -3.0233,4.22109c-2.31174,1.02814 -5.09013,-0.18651 -5.09013,-0.18651" fill="none" stroke="#000000" stroke-linecap="round"/><g stroke-linecap="butt"><path d="M237.33643,180.6649c1.1809,2.65523 0.07542,5.72514 -2.4692,6.85685c-2.5446,1.1317 -5.56471,-0.10337 -6.74561,-2.75859c-1.1809,-2.65523 -0.07542,-5.72514 2.46918,-6.85684c2.5446,-1.1317 5.56472,0.10336 6.74563,2.75859z" fill="#ffffff" stroke="#000000"/><path d="M234.50075,182.13914c-0.16385,-0.36842 0.00198,-0.79991 0.37039,-0.96376c0.36842,-0.16385 0.7999,0.00199 0.96375,0.37041c0.16385,0.36842 -0.00198,0.79989 -0.37039,0.96373c-0.36842,0.16385 -0.79991,-0.00197 -0.96375,-0.37038z" fill="#000000" stroke="none"/></g><g stroke-linecap="butt"><path d="M249.74888,175.03797c1.1809,2.65523 0.07542,5.72514 -2.4692,6.85685c-2.5446,1.1317 -5.56471,-0.10337 -6.74561,-2.7586c-1.1809,-2.65523 -0.07542,-5.72514 2.46918,-6.85684c2.5446,-1.1317 5.56472,0.10336 6.74563,2.75859z" fill="#ffffff" stroke="#000000"/><path d="M247.18002,176.39355c-0.16385,-0.36842 0.00199,-0.79989 0.37041,-0.96374c0.36842,-0.16385 0.79989,0.00198 0.96373,0.37039c0.16385,0.36842 -0.00197,0.79991 -0.37038,0.96375c-0.36842,0.16385 -0.79991,-0.00198 -0.96376,-0.3704z" fill="#000000" stroke="none"/></g></g></g></svg>