<svg version="1.1" xmlns="http://www.w3.org/2000/svg" xmlns:xlink="http://www.w3.org/1999/xlink" width="93.58955" height="169.59376" viewBox="0,0,93.58955,169.59376"><g transform="translate(-193.20522,-95.22324)"><g data-paper-data="{&quot;isPaintingLayer&quot;:true}" fill-rule="nonzero" stroke="#000000" stroke-linecap="butt" stroke-linejoin="miter" stroke-miterlimit="10" stroke-dasharray="" stroke-dashoffset="0" style="mix-blend-mode: normal"><g data-paper-data="{&quot;index&quot;:null}" stroke-width="2"><path d="M217.80593,215.26939c-0.37222,0.89505 -14.46486,1.14075 -15.76929,-0.68982c-3.33107,-4.67458 -1.64321,-15.02232 -1.50939,-16.32427c0.54831,-5.33491 17.91845,-2.98098 17.37014,2.35394c-0.14064,1.36837 1.90225,9.86632 -0.09146,14.66015z" fill="#8a9e8d"/><path d="M218.15702,200.23438c0.04318,0.49106 -17.02016,-0.01465 -17.3503,-2.72964c-0.84031,-6.91044 8.87001,-26.90413 15.1091,-35.83064c1.8286,-2.61629 4.67011,-3.74515 5.5999,-3.62127c4.71199,0.62781 6.11249,4.79399 6.11249,4.79399c0,0 -10.03314,30.9968 -9.47117,37.38756z" fill="#89623d"/></g><path d="M256.36492,242.77289c0,0 -2.28438,-6.17077 -2.71123,-9.24406c-0.38358,-2.76167 0.26605,-8.36096 0.26605,-8.36096l9.37325,-1.23977c0,0 0.08855,5.84519 0.82147,8.25329c0.99622,3.27318 4.61228,9.84762 4.61228,9.84762z" fill="#8a9e8d" stroke-width="2"/><path d="M236.23273,216.70132c-0.7687,-0.53485 0.50244,7.77795 -0.21146,15.41677c-0.61032,6.53015 -3.94701,14.94027 -4.45161,15.23368c-2.5262,1.46904 -20.17645,-0.55168 -20.11434,-1.21389c0.30028,-3.20115 2.92055,-8.15091 4.46974,-13.64397c0.05355,-0.18988 3.35997,-0.50397 3.86567,-1.82845c0.24561,-0.64332 -2.54088,-2.12357 -2.1348,-2.79611c1.00923,-1.67138 5.97388,-3.08505 6.03222,-3.66865c0.23004,-2.30164 -6.032,-3.77671 -5.95729,-5.21394c0.42644,-8.20244 -0.09297,-14.9197 -0.09297,-14.9197l46.87386,-0.51406l4.36442,23.33033l-6.74651,-1.12174l-3.24619,4.02535l-9.48032,-1.34095l0.54453,-10.46688c0,0 -3.47058,0.63697 -7.0541,0.48279c-0.94318,-0.04059 -1.14599,-2.35559 -2.0436,-2.53046c-1.55676,-0.30327 -3.70106,1.40735 -4.61722,0.76989z" fill="#757ad6" stroke-width="2"/><path d="M237.01694,257.08957c0,4.79232 -26.74097,4.79232 -26.74097,0c0,-0.35324 -0.91492,-9.76037 0.61206,-10.02638c3.96013,-0.68983 13.13981,-2.28821 19.86794,0.46988c5.2202,2.13994 6.26094,8.54702 6.26094,9.55649z" fill="#5c422a" stroke-width="2"/><path d="M253.01733,248.97884c0,0 1.39725,-3.81131 1.39725,-5.37128c0,-1.70887 -1.86299,-5.81889 -1.86299,-5.81889l6.29775,1.18759l4.66027,-1.91604l5.10796,1.64439l3.72843,-0.69212c0,0 1.86299,4.06949 1.86299,5.37128c0,1.81005 -1.16438,5.59507 -1.16438,5.59507z" fill="#757ad6" stroke-width="2"/><path d="M250.91645,248.09875c8.04173,-3.29659 19.01368,-1.38609 23.74694,-0.56161c1.82512,0.31792 0.73156,11.56172 0.73156,11.98392c0,5.72794 -31.96188,5.72794 -31.96188,0c0,-1.20654 1.24398,-8.86456 7.48334,-11.4223z" data-paper-data="{&quot;index&quot;:null}" fill="#5c422a" stroke-width="2"/><g stroke-width="2"><path d="M232.37488,204.13336c0,0 3.08257,-13.99606 2.36164,-21.48556c-0.76425,-7.93956 -6.82474,-24.88045 -6.82474,-24.88045h15.41796c0,0 5.73664,16.33792 6.55901,24.16934c0.79996,7.618 -1.69021,22.19664 -1.69021,22.19664z" fill="#ffffff"/><path d="M248.08,204.86022c0.65651,-5.41105 2.41464,-16.75093 1.85473,-22.47175c-0.81728,-8.35078 -7.74423,-25.58541 -7.74423,-25.58541l12.57782,-5.18792c0,0 9.3519,13.46467 11.19036,26.6113c1.19988,8.5802 -0.3812,22.71321 -0.43323,27.7112c-0.01441,1.38607 -17.70363,1.0506 -17.44547,-1.07743z" data-paper-data="{&quot;index&quot;:null}" fill="#89623d"/><path d="M216.71729,205.21062c0.082,-5.2406 1.60617,-14.22198 1.46895,-23.86003c-0.17693,-12.42635 3.23377,-26.01629 3.23377,-26.01629l9.73764,3.22051c0,0 4.98896,16.88554 5.36636,24.10922c0.32901,6.29762 -1.12768,17.57667 -1.51804,22.54511c-0.11715,1.49099 -18.30366,0.95644 -18.28871,0.00152z" fill="#89623d"/></g><g><path d="M232.01855,189.74161c-0.10097,-6.19156 2.60217,-17.60838 3.52589,-22.27246c0.30927,-1.56157 5.36518,-1.80878 6.08413,-0.28236c2.14644,4.55717 4.71061,15.75784 4.99527,21.94703c0.02386,0.51866 -4.48719,11.97136 -6.97826,11.90297c-2.0987,-0.05764 -7.62221,-10.99949 -7.62703,-11.29517z" fill="#ff0000" stroke-width="1"/><path d="M246.16737,162.91161c0,0 -2.42732,5.57741 -7.60885,5.33489c-4.95651,-0.23198 -7.87125,-5.33489 -7.87125,-5.33489z" fill="#ff0000" stroke-width="1"/><path d="M231.86634,180.62934l0.25947,-1.67164l14.15134,2.3141l0.30649,1.8333z" fill="#ffffff" stroke-width="0"/><path d="M233.18899,174.23208l0.36586,-1.77941l11.22581,2.04466l0.412,1.72555z" fill="#ffffff" stroke-width="0"/><path d="M230.99176,187.9042l0.13755,-1.88719l16.51607,2.36799c0,0 0.07614,0.56148 0.05444,0.83399c-0.02391,0.30003 -0.19199,0.89156 -0.19199,0.89156z" fill="#ffffff" stroke-width="0"/><path d="M234.32545,195.71794l-1.05949,-1.99497l11.15282,2.36799l-0.79197,1.67164z" fill="#ffffff" stroke-width="0"/></g><g stroke-width="2"><path d="M266.36611,199.06612c-0.59458,-5.78545 18.24247,-8.33819 18.83709,-2.55274c0.1451,1.41191 1.97557,12.63351 -1.63683,17.70287c-1.41461,1.98517 -16.69739,1.71868 -17.10105,0.74805c-2.16208,-5.19867 0.05331,-14.41425 -0.0992,-15.89819z" fill="#8a9e8d"/><path d="M255.81359,158.11468c0,0 1.51878,-4.51805 6.6287,-5.19887c1.00829,-0.13432 4.08975,1.08987 6.0728,3.92709c6.76595,9.68034 17.29629,31.36247 16.38502,38.85653c-0.35802,2.94428 -18.86235,3.49268 -18.81553,2.96016c0.60943,-6.93048 -10.27102,-40.54492 -10.27102,-40.54492z" fill="#89623d"/></g><g><g><path d="M216.15866,153.41928l-5.09464,-16.50529l31.97954,-3.42512l3.10507,19.40807z" fill="#693939" stroke-width="0"/><path d="M210.99661,145.40703l0.16758,-7.34635l6.56048,-0.96929l2.65415,6.92944z" fill="#faffe0" stroke-width="1.125"/><path d="M224.18829,139.44641l-1.52402,-4.93749l5.77696,-0.27791l1.3435,4.94618z" fill="#faffe0" stroke-width="1.125"/><path d="M232.77544,141.00183l-0.24174,-4.64124l7.74417,-0.73048l-1.90602,5.1025z" data-paper-data="{&quot;index&quot;:null}" fill="#faffe0" stroke-width="1.125"/><path d="M234.63421,152.36567l-1.43647,-6.73125l7.74418,-0.73047l0.01083,7.15776z" fill="#faffe0" stroke-width="1.125"/><path d="M221.42772,152.10619l-1.08913,-3.17778l6.59404,-0.48722l-0.13048,3.40646z" fill="#faffe0" stroke-width="1.125"/><path d="M204.44526,137.33976c-8.42818,-24.21681 12.42225,-40.21864 31.08684,-41.11651c18.66456,-0.89786 34.57442,13.33557 35.53569,31.79127c0.96124,18.45569 -13.39013,34.14485 -32.05471,35.04272c-8.77642,0.42218 -17.96888,-3.4183 -24.25939,-8.5532c-2.72022,-2.22049 29.06507,-4.02354 29.51195,-4.18248c0.37499,-0.13339 0.95798,-11.49691 -3.70737,-13.25918c-11.72395,-4.42858 -34.94253,3.64042 -36.11297,0.27732z" fill="#8a9e8d" stroke-width="2"/></g><g><path d="M229.14728,120.51008c-0.33596,-6.45062 4.83291,-11.94169 11.54503,-12.26456c6.71211,-0.32288 12.42571,4.64462 12.76168,11.09526c0.33596,6.45062 -4.83291,11.9417 -11.54501,12.26458c-6.71211,0.32288 -12.42571,-4.64466 -12.76167,-11.09528z" fill="#fdfff3" stroke-width="2"/><path d="M242.07294,117.48973c-0.07004,-1.34498 1.00769,-2.4899 2.4072,-2.55722c1.39952,-0.06732 2.59078,0.96842 2.66084,2.31341c0.07006,1.34498 -1.00765,2.4899 -2.40716,2.55723c-1.39952,0.06733 -2.59081,-0.96844 -2.66088,-2.31343z" fill="#000000" stroke-width="0"/></g><g><path d="M194.21759,125.75407c-0.26803,-5.14602 3.85541,-9.52649 9.21004,-9.78408c5.35463,-0.25756 9.91265,3.70527 10.18067,8.85128c0.26803,5.14602 -3.85546,9.52651 -9.21005,9.78408c-5.35463,0.25756 -9.91262,-3.70525 -10.18066,-8.85127z" fill="#fdfff3" stroke-width="2"/><path d="M199.5691,124.50144c-0.07006,-1.34498 1.00769,-2.48989 2.4072,-2.55722c1.39951,-0.06733 2.59079,0.96844 2.66083,2.31341c0.07006,1.34498 -1.00768,2.48987 -2.40717,2.5572c-1.39951,0.06733 -2.59081,-0.9684 -2.66088,-2.3134z" fill="#000000" stroke-width="0"/></g></g></g></g></svg>