<svg version="1.1" xmlns="http://www.w3.org/2000/svg" xmlns:xlink="http://www.w3.org/1999/xlink" width="47.36514" height="56.47728" viewBox="0,0,47.36514,56.47728"><g transform="translate(-216.43597,-153.9024)"><g data-paper-data="{&quot;isPaintingLayer&quot;:true}" fill-rule="nonzero" stroke="#000000" stroke-width="0.5" stroke-linejoin="miter" stroke-miterlimit="10" stroke-dasharray="" stroke-dashoffset="0" style="mix-blend-mode: normal"><path d="M237.10572,205.71703v-25.20887h4.40543v25.20887z" fill="#00c902" stroke-linecap="butt"/><path d="M228.13915,208.8164c-5.55155,-2.0855 -9.24915,-5.9132 -8.25883,-8.54941c0.99033,-2.63621 6.29356,-3.08265 11.8451,-0.99715c5.55155,2.0855 9.24915,5.91321 8.25883,8.54941c-0.99033,2.63621 -6.29356,3.08265 -11.8451,0.99714z" data-paper-data="{&quot;index&quot;:null}" fill="#00c902" stroke-linecap="butt"/><path d="M240.13172,207.29557c-0.99033,-2.63621 2.70728,-6.46391 8.25883,-8.54941c5.55155,-2.0855 10.85478,-1.63906 11.8451,0.99715c0.99033,2.63621 -2.70728,6.46391 -8.25883,8.54941c-5.55155,2.0855 -10.85478,1.63907 -11.8451,-0.99714z" data-paper-data="{&quot;index&quot;:null}" fill="#00c902" stroke-linecap="butt"/><g><path d="M217.94072,169.28599c0,0 4.94959,-3.73309 7.65255,-3.30164c2.70298,0.43145 4.5703,2.8101 4.17081,5.31285c-0.3995,2.50275 -2.91454,4.18185 -5.6175,3.7504c-2.70298,-0.43145 -6.20584,-5.7616 -6.20584,-5.7616z" data-paper-data="{&quot;index&quot;:null}" fill="#fffc00" stroke-linecap="butt"/><path d="M221.80714,189.62347c0,0 0.54977,-6.17512 2.68239,-7.89095c2.13264,-1.71583 5.14939,-1.50602 6.73812,0.46865c1.58874,1.97466 1.14781,4.9664 -0.98483,6.68221c-2.13264,1.71583 -8.4357,0.74008 -8.4357,0.74008z" data-paper-data="{&quot;index&quot;:null}" fill="#fffc00" stroke-linecap="butt"/><path d="M217.06918,179.39355c0,0 3.2081,-5.30494 5.87787,-5.90874c2.66977,-0.60379 5.28723,0.91073 5.84628,3.38272c0.55905,2.47199 -1.15201,4.96541 -3.82177,5.56919c-2.66977,0.60379 -7.9024,-3.04318 -7.9024,-3.04318z" data-paper-data="{&quot;index&quot;:null}" fill="#fffc00" stroke-linecap="butt"/><path d="M261.65819,181.92876c0,0 -5.19374,3.38519 -7.86078,2.76955c-2.66705,-0.61564 -4.36702,-3.11663 -3.79699,-5.58613c0.57005,-2.4695 3.19421,-3.97233 5.86126,-3.3567c2.66705,0.61564 5.79649,6.17327 5.79649,6.17327z" data-paper-data="{&quot;index&quot;:null}" fill="#fffc00" stroke-linecap="butt"/><path d="M259.1943,161.37419c0,0 -0.97156,6.12295 -3.21675,7.68862c-2.24518,1.56567 -5.24047,1.14964 -6.69017,-0.92922c-1.4497,-2.07888 -0.80484,-5.03337 1.44035,-6.59903c2.24518,-1.56567 8.46658,-0.16036 8.46658,-0.16036z" data-paper-data="{&quot;index&quot;:null}" fill="#fffc00" stroke-linecap="butt"/><path d="M263.22022,171.9047c0,0 -3.56405,5.07266 -6.26889,5.4921c-2.70485,0.41944 -5.21243,-1.27083 -5.60079,-3.77533c-0.38836,-2.5045 1.48952,-4.87482 4.19438,-5.29426c2.70485,-0.41944 7.67531,3.57748 7.67531,3.57748z" data-paper-data="{&quot;index&quot;:null}" fill="#fffc00" stroke-linecap="butt"/><path d="M233.03476,195.1904c0,0 -3.40702,-5.17945 -2.80262,-7.84905c0.60441,-2.66962 3.09823,-4.38011 5.5701,-3.82047c2.47187,0.55964 3.98576,3.17745 3.38134,5.8471c-0.60441,2.66962 -6.14882,5.82245 -6.14882,5.82245z" data-paper-data="{&quot;index&quot;:null}" fill="#fffc00" stroke-linecap="butt"/><path d="M253.57879,192.64c0,0 -6.12698,-0.94579 -7.70211,-3.18436c-1.57512,-2.23856 -1.17168,-5.23559 0.90106,-6.69403c2.07275,-1.45844 5.02992,-0.82602 6.60503,1.41257c1.57512,2.23856 0.19599,8.46582 0.19599,8.46582z" data-paper-data="{&quot;index&quot;:null}" fill="#fffc00" stroke-linecap="butt"/><path d="M243.06532,196.71021c0,0 -5.08763,-3.54266 -5.51846,-6.24573c-0.43082,-2.70307 1.24889,-5.21771 3.75173,-5.61661c2.50284,-0.39891 4.88104,1.46899 5.31186,4.17204c0.43082,2.70307 -3.54514,7.6903 -3.54514,7.6903z" data-paper-data="{&quot;index&quot;:null}" fill="#fffc00" stroke-linecap="butt"/><path d="M234.72025,162.42521c1.40437,2.34946 0.77929,5.30819 -1.39614,6.60853c-2.17543,1.30033 -5.07741,0.44983 -6.48179,-1.89962c-1.40437,-2.34946 0.22375,-8.33142 0.22375,-8.33142c0,0 6.24981,1.27304 7.65417,3.6225z" fill="#fffc00" stroke-linecap="butt"/><path d="M249.83053,162.94759c-0.80118,2.6173 -3.41523,4.13767 -5.83867,3.39585c-2.42343,-0.74183 -3.73853,-3.46495 -2.93736,-6.08226c0.80118,-2.6173 6.33057,-5.4209 6.33057,-5.4209c0,0 3.24663,5.49 2.44545,8.1073z" fill="#fffc00" stroke-linecap="butt"/><path d="M241.88736,160.44724c0.43082,2.70307 -1.24888,5.21771 -3.75172,5.61661c-2.50284,0.39891 -4.88104,-1.46898 -5.31186,-4.17205c-0.43082,-2.70307 3.30345,-7.65178 3.30345,-7.65178c0,0 5.32934,3.50414 5.76017,6.20723z" fill="#fffc00" stroke-linecap="butt"/><path d="M254.91558,173.71602c1.04249,6.54076 -5.04173,12.20399 -12.85059,13.44858c-7.80886,1.24459 -15.35211,-2.24668 -16.39459,-8.78743c-1.04249,-6.54076 4.82986,-13.53331 12.63872,-14.77789c7.80886,-1.24459 15.56399,3.57599 16.60646,10.11675z" fill="#efa900" stroke-linecap="butt"/><path d="M250.40292,178.11138c0,0 -6.15067,4.57391 -9.59266,5.12251c-3.32117,0.52933 -10.70979,-1.88667 -10.70979,-1.88667" fill="none" stroke-linecap="round"/><g data-paper-data="{&quot;index&quot;:null}" stroke-linecap="butt"><path d="M235.0579,169.7088c1.49024,-0.23751 2.95382,1.17297 3.26898,3.15041c0.31517,1.97744 -0.63742,3.77302 -2.12767,4.01055c-1.49024,0.23751 -2.95383,-1.17298 -3.26899,-3.15041c-0.31517,-1.97744 0.63743,-3.77302 2.12767,-4.01054z" fill="#000000"/><path d="M235.82785,170.08688c0.83826,-0.1336 1.66151,0.65979 1.83879,1.77212c0.17728,1.1123 -0.35855,2.12234 -1.1968,2.25593c-0.83826,0.1336 -1.66153,-0.65978 -1.8388,-1.77211c-0.17728,-1.1123 0.35855,-2.12234 1.19681,-2.25593z" fill="#ffffff"/></g><g data-paper-data="{&quot;index&quot;:null}" stroke-linecap="butt"><path d="M242.80477,168.27148c1.49024,-0.23751 2.95384,1.17297 3.269,3.15041c0.31517,1.97744 -0.63743,3.77302 -2.12767,4.01054c-1.49024,0.23751 -2.95383,-1.17297 -3.26899,-3.15041c-0.31517,-1.97744 0.63742,-3.77303 2.12767,-4.01055z" fill="#000000"/><path d="M243.57472,168.64958c0.83826,-0.1336 1.66151,0.6598 1.83879,1.77211c0.17728,1.1123 -0.35855,2.12234 -1.1968,2.25593c-0.83826,0.1336 -1.66152,-0.6598 -1.83881,-1.77211c-0.17728,-1.1123 0.35855,-2.12232 1.19681,-2.25593z" fill="#ffffff"/></g></g></g></g></svg>