<svg version="1.1" xmlns="http://www.w3.org/2000/svg" xmlns:xlink="http://www.w3.org/1999/xlink" width="103.71107" height="162.82378" viewBox="0,0,103.71107,162.82378"><g transform="translate(-182.04614,-102.09724)"><g data-paper-data="{&quot;isPaintingLayer&quot;:true}" fill-rule="nonzero" stroke="#000000" stroke-linecap="butt" stroke-linejoin="miter" stroke-miterlimit="10" stroke-dasharray="" stroke-dashoffset="0" style="mix-blend-mode: normal"><g data-paper-data="{&quot;index&quot;:null}" stroke-width="2"><path d="M284.74693,203.00252c0.37085,0.89562 -9.40726,11.04703 -11.62453,10.67787c-5.66208,-0.94267 -11.79654,-9.44519 -12.62386,-10.45936c-3.39002,-4.15568 10.54324,-14.79179 13.93326,-10.63611c0.86952,1.0659 8.32892,5.62066 10.31512,10.41761z" fill="#8a9e8d"/><path d="M274.34976,192.13637c0.37818,0.31621 -12.02984,12.0403 -14.18526,10.35675c-5.48616,-4.28513 -12.7848,-25.2796 -14.69899,-36.00083c-0.56105,-3.14228 0.64633,-5.95133 1.39065,-6.52216c3.77206,-2.89284 7.71084,-0.94231 7.71084,-0.94231c0,0 14.86111,28.99332 19.78277,33.10853z" fill="#89623d"/></g><path d="M259.41323,241.9244c0,0 -3.81526,-5.36102 -5.02918,-8.21649c-1.09084,-2.56594 -1.92461,-8.14078 -1.92461,-8.14078l8.72512,-3.64239c0,0 1.61055,5.61963 2.94637,7.7531c1.81571,2.89989 7.02186,8.30315 7.02186,8.30315z" fill="#8a9e8d" stroke-width="2"/><path d="M236.23274,216.70132c-0.7687,-0.53485 0.50244,7.77795 -0.21146,15.41677c-0.61032,6.53016 -12.28034,14.60694 -12.78494,14.90035c-2.5262,1.46903 -16.50977,-3.88501 -16.44767,-4.54722c0.30028,-3.20115 7.58722,-4.48424 9.13641,-9.9773c0.05355,-0.18988 3.35997,-0.50397 3.86567,-1.82845c0.24561,-0.64332 -2.54088,-2.12357 -2.1348,-2.79611c1.00923,-1.67138 5.97389,-3.08505 6.03223,-3.66865c0.23004,-2.30164 -6.032,-3.77671 -5.95729,-5.21394c0.42644,-8.20244 -0.09297,-14.9197 -0.09297,-14.9197l46.87386,-0.51406l4.36442,23.33033l-6.74651,-1.12174l-3.24618,4.02535l-9.48032,-1.34095l0.54452,-10.46688c0,0 -3.47058,0.63697 -7.0541,0.48279c-0.94318,-0.04059 -1.14598,-2.35559 -2.04359,-2.53046c-1.55676,-0.30327 -3.70106,1.40735 -4.61722,0.76989z" fill="#757ad6" stroke-width="2"/><path d="M223.77193,263.44688c-3.18424,3.58147 -23.16871,-14.18649 -19.98447,-17.76796c0.2347,-0.26398 5.8015,-7.90219 7.11941,-7.08639c3.4179,2.11576 11.34024,7.02065 14.5358,13.55236c2.47936,5.0678 -1.00002,10.54755 -1.67076,11.30197z" fill="#5c422a" stroke-width="2"/><path d="M257.9862,247.80615c0,0 0.35446,-4.04385 -0.05256,-5.54979c-0.44585,-1.64967 -3.31667,-5.13128 -3.31667,-5.13128l6.38947,-0.49668l3.99894,-3.06558l5.36007,0.25472l3.41872,-1.64094c0,0 2.86023,3.44246 3.19988,4.69917c0.47226,1.74736 0.33575,5.70508 0.33575,5.70508z" fill="#757ad6" stroke-width="2"/><path d="M255.72847,247.50469c6.90308,-5.28057 17.99346,-6.29891 22.77791,-6.73795c1.84485,-0.16928 3.72278,10.9704 3.83293,11.37796c1.49447,5.52954 -29.36036,13.86868 -30.85483,8.33913c-0.3148,-1.16475 -1.11195,-8.88209 4.24396,-12.97913z" data-paper-data="{&quot;index&quot;:null}" fill="#5c422a" stroke-width="2"/><g stroke-width="2"><path d="M232.37489,204.13336c0,0 3.08257,-13.99606 2.36164,-21.48556c-0.76425,-7.93956 -6.82474,-24.88045 -6.82474,-24.88045h15.41796c0,0 5.73664,16.33792 6.55901,24.16934c0.79996,7.618 -1.69021,22.19664 -1.69021,22.19664z" fill="#ffffff"/><path d="M248.08001,204.86021c0.65651,-5.41105 2.41463,-16.75093 1.85473,-22.47175c-0.81728,-8.35078 -7.74424,-25.58541 -7.74424,-25.58541l12.57782,-5.18792c0,0 9.3519,13.46467 11.19036,26.6113c1.19988,8.5802 -0.3812,22.71321 -0.43323,27.7112c-0.01441,1.38607 -17.70363,1.0506 -17.44546,-1.07743z" data-paper-data="{&quot;index&quot;:null}" fill="#89623d"/><path d="M216.7173,205.21062c0.082,-5.2406 1.60617,-14.22198 1.46895,-23.86003c-0.17693,-12.42635 3.23377,-26.01629 3.23377,-26.01629l9.73764,3.22051c0,0 4.98896,16.88554 5.36636,24.10922c0.32901,6.29762 -1.12768,17.57667 -1.51804,22.54511c-0.11715,1.49099 -18.30366,0.95644 -18.28871,0.00152z" fill="#89623d"/></g><g><path d="M232.01856,189.7416c-0.10097,-6.19156 2.60217,-17.60838 3.52589,-22.27246c0.30927,-1.56157 5.36519,-1.80878 6.08413,-0.28236c2.14644,4.55717 4.7106,15.75784 4.99527,21.94703c0.02386,0.51866 -4.48719,11.97136 -6.97826,11.90297c-2.0987,-0.05764 -7.62221,-10.99949 -7.62703,-11.29517z" fill="#ff0000" stroke-width="1"/><path d="M246.16738,162.91161c0,0 -2.42732,5.57741 -7.60886,5.33489c-4.95651,-0.23198 -7.87124,-5.33489 -7.87124,-5.33489z" fill="#ff0000" stroke-width="1"/><path d="M231.86636,180.62933l0.25947,-1.67164l14.15135,2.31409l0.30649,1.8333z" fill="#ffffff" stroke-width="0"/><path d="M233.189,174.23208l0.36586,-1.77941l11.22581,2.04466l0.412,1.72555z" fill="#ffffff" stroke-width="0"/><path d="M230.99177,187.90419l0.13755,-1.88719l16.51607,2.36799c0,0 0.07614,0.56148 0.05444,0.83399c-0.02391,0.30003 -0.19198,0.89156 -0.19198,0.89156z" fill="#ffffff" stroke-width="0"/><path d="M234.32546,195.71793l-1.05949,-1.99497l11.15282,2.36799l-0.79197,1.67164z" fill="#ffffff" stroke-width="0"/></g><g stroke-width="2"><path d="M219.35735,178.50096c5.54525,-1.75363 11.85896,16.17646 6.31372,17.93012c-1.35329,0.42796 -11.97188,4.4925 -17.66764,1.98129c-2.23047,-0.98339 -5.06372,-16.0036 -4.19493,-16.59543c4.65326,-3.16985 14.12652,-2.86618 15.54884,-3.31598z" fill="#8a9e8d"/><path d="M257.32414,159.87574c0,0 4.73199,0.57258 6.43329,5.43882c0.33569,0.96021 -0.23926,4.2257 -2.61622,6.74213c-8.10998,8.58576 -27.21104,23.28788 -34.73439,23.91277c-2.95578,0.24551 -7.23932,-17.76456 -6.70835,-17.82653c6.91033,-0.80637 37.62569,-18.26723 37.62569,-18.26723z" fill="#89623d"/></g><g><g><path d="M219.23927,167.51894l-13.96161,-9.86125l23.46198,-21.89887l14.11471,13.32954z" fill="#693939" stroke-width="0"/><path d="M210.31637,164.34778l-4.27122,-5.85249l4.65326,-4.70123l6.27264,3.83044z" fill="#faffe0" stroke-width="1.125"/><path d="M217.26765,151.75379l-4.17654,-2.94996l4.44266,-3.68909l4.03772,3.06525z" fill="#faffe0" stroke-width="1.125"/><path d="M225.05179,147.81139l-2.97581,-3.48857l5.74089,-5.22556l1.53873,5.14034z" data-paper-data="{&quot;index&quot;:null}" fill="#faffe0" stroke-width="1.125"/><path d="M233.34872,155.59167l-5.18224,-4.407l5.7409,-5.22556l4.3005,5.59762z" fill="#faffe0" stroke-width="1.125"/><path d="M222.65598,163.32458l-2.77442,-1.83354l4.96909,-4.34396l1.93844,2.74548z" fill="#faffe0" stroke-width="1.125"/><path d="M200.252,161.9684c-21.24526,-13.89575 -14.20404,-38.95376 0.14963,-50.87269c14.35365,-11.91891 35.58224,-10.3355 47.4154,3.53665c11.83315,13.87215 9.78989,34.77994 -4.56377,46.69887c-6.74936,5.60448 -16.38659,8.12155 -24.48457,7.88131c-3.50182,-0.10389 20.77778,-20.61603 21.03903,-21.00901c0.21921,-0.32977 -6.1293,-9.57711 -10.90834,-8.15337c-12.00968,3.57783 -25.69699,23.84796 -28.6474,21.91818z" fill="#8a9e8d" stroke-width="2"/></g><g><path d="M209.86992,133.94772c-4.13591,-4.84858 -3.30428,-12.25387 1.85757,-16.54013c5.16183,-4.28625 12.69913,-3.83039 16.83505,1.01821c4.13591,4.84858 3.30428,12.25389 -1.85754,16.54013c-5.16183,4.28625 -12.69916,3.83036 -16.83507,-1.01822z" fill="#fdfff3" stroke-width="2"/><path d="M218.37197,123.81565c-0.86234,-1.01095 -0.68896,-2.555 0.38732,-3.4487c1.07627,-0.8937 2.6478,-0.79863 3.51017,0.21231c0.86236,1.01094 0.68899,2.55498 -0.38728,3.44869c-1.07627,0.89371 -2.64784,0.79865 -3.5102,-0.21231z" fill="#000000" stroke-width="0"/></g><g><path d="M185.14469,159.04347c-3.29946,-3.86798 -2.63602,-9.77552 1.48185,-13.1949c4.11789,-3.41937 10.13078,-3.05571 13.43022,0.81228c3.29946,3.86798 2.636,9.77556 -1.48187,13.19491c-4.11789,3.41937 -10.13075,3.05569 -13.4302,-0.81228z" fill="#fdfff3" stroke-width="2"/><path d="M188.66345,154.84689c-0.86236,-1.01094 -0.68895,-2.55498 0.38732,-3.4487c1.07627,-0.89371 2.64781,-0.79863 3.51016,0.21233c0.86236,1.01094 0.68894,2.55497 -0.3873,3.44866c-1.07627,0.89371 -2.64781,0.79868 -3.51018,-0.21229z" fill="#000000" stroke-width="0"/></g></g></g></g></svg>