<svg version="1.1" xmlns="http://www.w3.org/2000/svg" xmlns:xlink="http://www.w3.org/1999/xlink" width="23.54969" height="34.02565" viewBox="0,0,23.54969,34.02565"><g transform="translate(-229.375,-161.90066)"><g data-paper-data="{&quot;isPaintingLayer&quot;:true}" fill-rule="nonzero" stroke-linejoin="miter" stroke-miterlimit="10" stroke-dasharray="" stroke-dashoffset="0" style="mix-blend-mode: normal"><path d="M229.625,195.38738v-26.52889h23.04969v26.52889z" fill="#ffffff" stroke="#000000" stroke-width="0.5" stroke-linecap="butt"/><path d="M239.73948,188.54709v-11.87339h2.07496v11.87339z" fill="#00c902" stroke="#000000" stroke-width="0.5" stroke-linecap="butt"/><path d="M231.24667,167.89337c0,0 2.57894,-1.36945 3.80419,-0.96839c1.22525,0.40106 1.91746,1.64587 1.54611,2.78036c-0.37136,1.13448 -1.66566,1.72904 -2.8909,1.32798c-1.22525,-0.40106 -2.4594,-3.13995 -2.4594,-3.13995z" data-paper-data="{&quot;index&quot;:null}" fill="#fffc00" stroke="#000000" stroke-width="0.5" stroke-linecap="butt"/><path d="M231.53738,177.63956c0,0 0.71349,-2.83148 1.83264,-3.47146c1.11915,-0.63999 2.50678,-0.31875 3.09936,0.7175c0.59258,1.03625 0.16571,2.39511 -0.95345,3.03509c-1.11915,0.63999 -3.97856,-0.28113 -3.97856,-0.28113z" data-paper-data="{&quot;index&quot;:null}" fill="#fffc00" stroke="#000000" stroke-width="0.5" stroke-linecap="butt"/><path d="M230.09199,172.53008c0,0 1.88546,-2.22966 3.172,-2.31258c1.28655,-0.08292 2.39174,0.81556 2.46851,2.00681c0.07678,1.19124 -0.90393,2.22416 -2.19048,2.30708c-1.28655,0.08292 -3.45004,-2.0013 -3.45004,-2.0013z" data-paper-data="{&quot;index&quot;:null}" fill="#fffc00" stroke="#000000" stroke-width="0.5" stroke-linecap="butt"/><path d="M250.64372,177.01481c0,0 -2.66671,1.18953 -3.8616,0.70546c-1.19489,-0.48407 -1.80019,-1.77338 -1.35197,-2.87976c0.44821,-1.10638 1.78021,-1.61085 2.97509,-1.12679c1.19489,0.48407 2.23848,3.30108 2.23848,3.30108z" data-paper-data="{&quot;index&quot;:null}" fill="#fffc00" stroke="#000000" stroke-width="0.5" stroke-linecap="butt"/><path d="M251.02147,167.27161c0,0 -0.90582,2.77594 -2.06619,3.33774c-1.16037,0.5618 -2.52273,0.14624 -3.04291,-0.92818c-0.52019,-1.07442 -0.00121,-2.40083 1.15916,-2.96263c1.16037,-0.5618 3.94995,0.55307 3.94995,0.55307z" data-paper-data="{&quot;index&quot;:null}" fill="#fffc00" stroke="#000000" stroke-width="0.5" stroke-linecap="butt"/><path d="M252.11338,172.46811c0,0 -2.03379,2.09524 -3.323,2.08981c-1.2892,-0.00543 -2.33024,-0.97751 -2.32521,-2.17122c0.00503,-1.19371 1.0542,-2.157 2.34341,-2.15157c1.2892,0.00543 3.3048,2.23298 3.3048,2.23298z" data-paper-data="{&quot;index&quot;:null}" fill="#fffc00" stroke="#000000" stroke-width="0.5" stroke-linecap="butt"/><path d="M236.34699,181.06125c0,0 -1.20074,-2.66168 -0.72171,-3.8586c0.47904,-1.19691 1.76579,-1.80763 2.87404,-1.36408c1.10825,0.44355 1.61833,1.77341 1.1393,2.97033c-0.47904,1.19691 -3.29163,2.25236 -3.29163,2.25236z" data-paper-data="{&quot;index&quot;:null}" fill="#fffc00" stroke="#000000" stroke-width="0.5" stroke-linecap="butt"/><path d="M246.0917,181.39797c0,0 -2.77973,-0.89413 -3.34641,-2.05212c-0.56668,-1.15799 -0.15686,-2.52209 0.91536,-3.04679c1.07222,-0.5247 2.40081,-0.01132 2.96748,1.14668c0.56668,1.15799 -0.53644,3.95224 -0.53644,3.95224z" data-paper-data="{&quot;index&quot;:null}" fill="#fffc00" stroke="#000000" stroke-width="0.5" stroke-linecap="butt"/><path d="M240.89983,182.51175c0,0 -2.10378,-2.02496 -2.10378,-3.31418c0,-1.28921 0.9677,-2.33433 2.16142,-2.33433c1.19372,0 2.16142,1.04512 2.16142,2.33433c0,1.28921 -2.21906,3.31418 -2.21906,3.31418z" data-paper-data="{&quot;index&quot;:null}" fill="#fffc00" stroke="#000000" stroke-width="0.5" stroke-linecap="butt"/><path d="M239.55994,165.94613c0.47904,1.19691 -0.03104,2.52677 -1.1393,2.97032c-1.10825,0.44355 -2.395,-0.16717 -2.87404,-1.36408c-0.47904,-1.19691 0.72171,-3.8586 0.72171,-3.8586c0,0 2.8126,1.05545 3.29163,2.25236z" fill="#fffc00" stroke="#000000" stroke-width="0.5" stroke-linecap="butt"/><path d="M246.54946,167.30928c-0.56668,1.158 -1.89527,1.67138 -2.96749,1.14668c-1.07222,-0.5247 -1.48204,-1.8888 -0.91536,-3.04679c0.56668,-1.158 3.34641,-2.05212 3.34641,-2.05212c0,0 1.10312,2.79424 0.53644,3.95224z" fill="#fffc00" stroke="#000000" stroke-width="0.5" stroke-linecap="butt"/><path d="M243.04021,165.55744c0,1.28921 -0.9677,2.33433 -2.16142,2.33433c-1.19372,0 -2.16142,-1.04512 -2.16142,-2.33433c0,-1.28921 2.10378,-3.31418 2.10378,-3.31418c0,0 2.21906,2.02496 2.21906,3.31418z" fill="#fffc00" stroke="#000000" stroke-width="0.5" stroke-linecap="butt"/><path d="M248.11636,172.69497c0,3.11958 -3.24978,5.30268 -6.97417,5.30268c-3.7244,0 -6.97417,-2.1831 -6.97417,-5.30268c0,-3.11958 3.24978,-5.93669 6.97417,-5.93669c3.7244,0 6.97417,2.81711 6.97417,5.93669z" fill="#efa900" stroke="#000000" stroke-width="0.5" stroke-linecap="butt"/><path d="M245.69155,174.40484c0,0 -3.19994,1.6715 -4.84158,1.6715c-1.58402,0 -4.84158,-1.6715 -4.84158,-1.6715" fill="none" stroke="#000000" stroke-width="0.5" stroke-linecap="round"/><g data-paper-data="{&quot;index&quot;:null}" stroke="#000000" stroke-width="0.5" stroke-linecap="butt"><path d="M239.17703,169.35898c0.71076,0 1.28696,0.76456 1.28696,1.70769c0,0.94313 -0.57619,1.70769 -1.28696,1.70769c-0.71076,0 -1.28696,-0.76456 -1.28696,-1.70769c0,-0.94313 0.57619,-1.70769 1.28696,-1.70769z" fill="#000000"/><path d="M239.50714,169.59192c0.39981,0 0.72391,0.43007 0.72391,0.96058c0,0.53051 -0.3241,0.96058 -0.72391,0.96058c-0.39981,0 -0.72391,-0.43007 -0.72391,-0.96058c0,-0.53051 0.3241,-0.96058 0.72391,-0.96058z" fill="#ffffff"/></g><g data-paper-data="{&quot;index&quot;:null}" stroke="#000000" stroke-width="0.5" stroke-linecap="butt"><path d="M242.88689,169.26474c0.71076,0 1.28696,0.76456 1.28696,1.70769c0,0.94313 -0.57619,1.70769 -1.28696,1.70769c-0.71076,0 -1.28696,-0.76456 -1.28696,-1.70769c0,-0.94313 0.57619,-1.70769 1.28696,-1.70769z" fill="#000000"/><path d="M243.21699,169.49768c0.39981,0 0.72391,0.43007 0.72391,0.96058c0,0.53051 -0.3241,0.96058 -0.72391,0.96058c-0.39981,0 -0.72391,-0.43007 -0.72391,-0.96058c0,-0.53051 0.3241,-0.96058 0.72391,-0.96058z" fill="#ffffff"/></g><path d="M235.51622,190.00689c-2.61478,-0.98227 -4.35635,-2.78512 -3.88991,-4.02678c0.46645,-1.24166 2.96427,-1.45193 5.57905,-0.46966c2.61478,0.98227 4.35635,2.78512 3.88991,4.02678c-0.46645,1.24166 -2.96427,1.45193 -5.57905,0.46965z" data-paper-data="{&quot;index&quot;:null}" fill="#00c902" stroke="#000000" stroke-width="0.5" stroke-linecap="butt"/><path d="M241.16472,189.29058c-0.46645,-1.24166 1.27513,-3.0445 3.88991,-4.02678c2.61478,-0.98227 5.11261,-0.772 5.57905,0.46966c0.46645,1.24166 -1.27513,3.0445 -3.88991,4.02678c-2.61478,0.98227 -5.11261,0.772 -5.57905,-0.46965z" data-paper-data="{&quot;index&quot;:null}" fill="#00c902" stroke="#000000" stroke-width="0.5" stroke-linecap="butt"/><text transform="translate(236.38757,193.19111) scale(0.16577,0.16577)" font-size="40" xml:space="preserve" fill="#000000" fill-rule="nonzero" stroke="none" stroke-width="1" stroke-linecap="butt" stroke-linejoin="miter" stroke-miterlimit="10" stroke-dasharray="" stroke-dashoffset="0" font-family="Handwriting" font-weight="normal" text-anchor="start" style="mix-blend-mode: normal"><tspan x="0" dy="0">50</tspan></text></g></g></svg>