<svg version="1.1" xmlns="http://www.w3.org/2000/svg" xmlns:xlink="http://www.w3.org/1999/xlink" width="42.69653" height="45.14375" viewBox="0,0,42.69653,45.14375"><g transform="translate(-218.99784,-162.96591)"><g data-paper-data="{&quot;isPaintingLayer&quot;:true}" fill-rule="nonzero" stroke-width="0.5" stroke-linejoin="miter" stroke-miterlimit="10" stroke-dasharray="" stroke-dashoffset="0" style="mix-blend-mode: normal"><path d="M261.02413,189.46186c-2.30265,12.13392 -13.42718,20.21354 -24.84734,18.04634c-11.42016,-2.1672 -18.81134,-13.76056 -16.50869,-25.89447c2.30265,-12.13392 13.4272,-20.21354 24.84734,-18.04634c11.42016,2.1672 18.81134,13.76056 16.5087,25.89447z" fill="#d68d00" stroke="#000000" stroke-linecap="butt"/><path d="M246.05685,195.35447c0,0 -2.46731,2.20695 -4.88925,1.74734c-2.4857,-0.47171 -4.07747,-3.05262 -4.07747,-3.05262" fill="none" stroke="#000000" stroke-linecap="round"/><g stroke-linecap="butt"><path d="M241.92812,180.7055c-0.5418,2.85503 -3.19904,4.74858 -5.93514,4.22935c-2.73608,-0.51923 -4.51488,-3.25461 -3.97308,-6.10964c0.5418,-2.85503 3.19903,-4.74858 5.93512,-4.22936c2.73608,0.51923 4.5149,3.25461 3.97311,6.10965z" fill="#ffffff" stroke="#000000"/><path d="M238.75768,180.30201c0.07518,-0.39614 0.45726,-0.65634 0.8534,-0.58116c0.39614,0.07518 0.65632,0.45725 0.58114,0.85339c-0.07518,0.39614 -0.45725,0.65632 -0.85337,0.58115c-0.39614,-0.07518 -0.65634,-0.45725 -0.58116,-0.85337z" fill="#000000" stroke="none"/></g><g stroke-linecap="butt"><path d="M255.3353,183.15069c-0.5418,2.85503 -3.19904,4.74858 -5.93514,4.22935c-2.73608,-0.51923 -4.51489,-3.25461 -3.97309,-6.10964c0.5418,-2.85503 3.19904,-4.74858 5.93512,-4.22936c2.73608,0.51923 4.5149,3.25461 3.97311,6.10965z" fill="#ffffff" stroke="#000000"/><path d="M252.45175,182.80165c0.07518,-0.39614 0.45726,-0.65632 0.8534,-0.58114c0.39614,0.07518 0.65632,0.45724 0.58114,0.85337c-0.07518,0.39614 -0.45725,0.65634 -0.85338,0.58116c-0.39614,-0.07518 -0.65633,-0.45726 -0.58116,-0.8534z" fill="#000000" stroke="none"/></g></g></g></svg>