<svg version="1.1" xmlns="http://www.w3.org/2000/svg" xmlns:xlink="http://www.w3.org/1999/xlink" width="84.33837" height="169.45796" viewBox="0,0,84.33837,169.45796"><g transform="translate(-205.491,-95.70785)"><g data-paper-data="{&quot;isPaintingLayer&quot;:true}" fill-rule="nonzero" stroke="#000000" stroke-linecap="butt" stroke-linejoin="miter" stroke-miterlimit="10" stroke-dasharray="" stroke-dashoffset="0" style="mix-blend-mode: normal"><g data-paper-data="{&quot;index&quot;:null}" stroke-width="2"><path d="M243.88719,207.87516c0.17223,0.95394 -11.53839,8.79768 -13.6267,7.96613c-5.33281,-2.12341 -9.52206,-11.73459 -10.11516,-12.9013c-2.43035,-4.78073 13.44358,-12.21586 15.87393,-7.43512c0.62337,1.22623 6.94556,7.26099 7.86793,12.37028z" fill="#8a9e8d"/><path d="M236.03432,195.04913c0.30241,0.38929 -14.31207,9.21144 -16.06086,7.10862c-4.4512,-5.35231 -7.12564,-27.41778 -6.71972,-38.30098c0.11895,-3.18976 1.89525,-5.67839 2.74381,-6.07816c4.30029,-2.02595 7.73509,0.71643 7.73509,0.71643c0,0 8.36606,31.48769 12.30171,36.55407z" fill="#89623d"/></g><path d="M259.62171,243.21828c0,0 -2.84576,-5.93282 -3.55525,-8.95341c-0.63757,-2.71431 -0.50901,-8.34969 -0.50901,-8.34969l9.21825,-2.10207c0,0 0.62922,5.8119 1.58189,8.14182c1.29492,3.16691 5.50401,9.37842 5.50401,9.37842z" fill="#8a9e8d" stroke-width="2"/><path d="M236.23274,216.70133c-0.7687,-0.53485 0.50244,7.77795 -0.21146,15.41677c-0.61032,6.53015 -3.94701,14.94027 -4.45161,15.23368c-2.5262,1.46904 -20.17645,-0.55168 -20.11434,-1.21389c0.30028,-3.20115 2.92055,-8.15091 4.46974,-13.64397c0.05355,-0.18988 3.35997,-0.50397 3.86567,-1.82845c0.24561,-0.64332 -2.54088,-2.12357 -2.1348,-2.79611c1.00923,-1.67138 5.97388,-3.08505 6.03222,-3.66865c0.23004,-2.30164 -6.032,-3.77671 -5.95729,-5.21394c0.42644,-8.20244 -0.09297,-14.9197 -0.09297,-14.9197l46.87386,-0.51406l4.36442,23.33033l-6.74651,-1.12174l-3.24619,4.02535l-9.48032,-1.34095l0.54453,-10.46688c0,0 -3.47058,0.63697 -7.0541,0.48279c-0.94318,-0.04059 -1.14599,-2.35559 -2.0436,-2.53046c-1.55676,-0.30327 -3.70106,1.40735 -4.61722,0.76989z" fill="#757ad6" stroke-width="2"/><path d="M237.01695,257.08958c0,4.79232 -26.74097,4.79232 -26.74097,0c0,-0.35324 -0.91492,-9.76037 0.61206,-10.02638c3.96013,-0.68983 13.13981,-2.28821 19.86794,0.46988c5.2202,2.13994 6.26094,8.54702 6.26094,9.55649z" fill="#5c422a" stroke-width="2"/><path d="M256.86295,249.70746c0,0 1.03846,-3.92428 0.89407,-5.47756c-0.15818,-1.70153 -2.39361,-5.62146 -2.39361,-5.62146l6.38064,0.59955l4.4629,-2.33919l5.23824,1.16452l3.64836,-1.03426c0,0 2.23168,3.87958 2.35218,5.17578c0.16754,1.80228 -0.64148,5.67883 -0.64148,5.67883z" fill="#757ad6" stroke-width="2"/><path d="M254.68962,249.02561c7.70206,-4.0268 18.80375,-3.14012 23.593,-2.7573c1.84671,0.14762 1.79861,11.44437 1.8377,11.86475c0.5302,5.70335 -31.29447,8.66185 -31.82466,2.9585c-0.11168,-1.20136 0.41811,-8.94165 6.39392,-12.06595z" data-paper-data="{&quot;index&quot;:null}" fill="#5c422a" stroke-width="2"/><g stroke-width="2"><path d="M232.37489,204.13337c0,0 3.08257,-13.99606 2.36164,-21.48556c-0.76425,-7.93956 -6.82474,-24.88045 -6.82474,-24.88045h15.41796c0,0 5.73664,16.33792 6.55901,24.16934c0.79996,7.618 -1.69021,22.19664 -1.69021,22.19664z" fill="#ffffff"/><path d="M248.08001,204.86023c0.65651,-5.41105 2.41464,-16.75093 1.85473,-22.47175c-0.81728,-8.35078 -7.74423,-25.58541 -7.74423,-25.58541l12.57782,-5.18792c0,0 9.3519,13.46467 11.19036,26.6113c1.19988,8.5802 -0.3812,22.71321 -0.43323,27.7112c-0.01441,1.38607 -17.70363,1.0506 -17.44547,-1.07743z" data-paper-data="{&quot;index&quot;:null}" fill="#89623d"/><path d="M216.7173,205.21063c0.082,-5.2406 1.60617,-14.22198 1.46895,-23.86003c-0.17693,-12.42635 3.23377,-26.01629 3.23377,-26.01629l9.73764,3.22051c0,0 4.98896,16.88554 5.36636,24.10922c0.32901,6.29762 -1.12768,17.57667 -1.51804,22.54511c-0.11715,1.49099 -18.30366,0.95644 -18.28871,0.00152z" fill="#89623d"/></g><g><path d="M253.13738,182.54958c-4.25136,-4.50239 -9.95773,-14.75364 -12.42224,-18.81973c-0.82514,-1.36136 2.74029,-4.95456 4.30073,-4.31279c4.65873,1.91604 14.10753,8.45441 18.49289,12.83113c0.3675,0.36677 4.7635,11.86412 2.8785,13.49411c-1.58811,1.37323 -13.04684,-2.9777 -13.24987,-3.19272z" fill="#ff0000" stroke-width="1"/><path d="M245.4823,153.19932c0,0 1.97071,5.75462 -2.01781,9.07106c-3.81531,3.17242 -9.40934,1.37181 -9.40934,1.37181z" fill="#ff0000" stroke-width="1"/><path d="M246.87789,175.92573l-0.93615,-1.40902l12.00738,-7.83826l1.46299,1.14655z" fill="#ffffff" stroke-width="0"/><path d="M243.53866,170.31112l-0.93032,-1.56034l9.66604,-6.06359l1.46819,0.99584z" fill="#ffffff" stroke-width="0"/><path d="M251.13991,181.88591l-1.17156,-1.48588l13.78934,-9.39372c0,0 0.43498,0.36311 0.6028,0.57891c0.18475,0.23761 0.45972,0.78765 0.45972,0.78765z" fill="#ffffff" stroke-width="0"/><path d="M258.87193,185.40498l-2.1279,-0.75792l9.83028,-5.77568l0.54307,1.76824z" fill="#ffffff" stroke-width="0"/></g><g stroke-width="2"><path d="M268.26158,199.56668c-1.62433,-5.58449 16.44759,-11.47997 18.07195,-5.89549c0.39641,1.36287 4.21318,12.07301 1.57032,17.7089c-1.03493,2.20702 -16.11692,4.69059 -16.6884,3.80827c-3.06089,-4.72564 -2.53724,-14.18929 -2.95387,-15.62168z" fill="#8a9e8d"/><path d="M250.52338,161.17746c0,0 0.68234,-4.7174 5.58681,-6.3052c0.96775,-0.31329 4.21901,0.33736 6.67954,2.77215c8.39503,8.30725 22.64947,27.74469 23.09942,35.28053c0.17678,2.9607 -17.92793,6.82468 -17.97755,6.29241c-0.64562,-6.9272 -17.38824,-38.03989 -17.38824,-38.03989z" fill="#89623d"/></g><g><g><path d="M215.51381,143.81874l1.94307,-17.16404l30.674,9.671l-4.92877,19.02687z" fill="#693939" stroke-width="0"/><path d="M213.99325,134.40966l3.09612,-6.66416l6.39946,1.73965l-0.34364,7.41239z" fill="#faffe0" stroke-width="1.125"/><path d="M228.46798,134.23199l0.58128,-5.13455l5.4046,2.05931l-0.75017,5.0702z" fill="#faffe0" stroke-width="1.125"/><path d="M235.71315,139.09675l1.63754,-4.34948l7.38839,2.43259l-3.79024,3.91184z" data-paper-data="{&quot;index&quot;:null}" fill="#faffe0" stroke-width="1.125"/><path d="M232.86453,150.25369l1.37999,-6.74306l7.38839,2.43261l-2.85711,6.56282z" fill="#faffe0" stroke-width="1.125"/><path d="M220.86768,144.7261l0.27491,-3.34797l6.23711,2.1948l-1.48401,3.06899z" fill="#faffe0" stroke-width="1.125"/><path d="M211.22173,124.39368c1.97747,-25.56517 27.49171,-31.87565 44.95326,-25.22228c17.46152,6.65337 26.33816,26.06778 19.82655,43.36333c-6.51163,17.29552 -25.94571,25.9227 -43.40725,19.26933c-8.21072,-3.12855 -15.09525,-10.32951 -18.80232,-17.55415c-1.60306,-3.12416 28.24324,7.95529 28.71637,7.98866c0.39702,0.02798 5.48284,-10.15062 1.91397,-13.63404c-8.96851,-8.75381 -33.47515,-10.66054 -33.20051,-14.21089z" fill="#8a9e8d" stroke-width="2"/></g><g><path d="M240.59669,118.86741c2.27595,-6.04511 9.2115,-9.00607 15.49098,-6.61338c6.27947,2.39268 9.52498,9.23285 7.24903,15.27799c-2.27595,6.04511 -9.21151,9.00607 -15.49097,6.6134c-6.27947,-2.39268 -9.52496,-9.23289 -7.24901,-15.278z" fill="#fdfff3" stroke-width="2"/><path d="M253.64996,121.27729c0.47455,-1.26043 1.92065,-1.87781 3.22995,-1.37892c1.30931,0.49889 1.98597,1.92507 1.51143,3.18552c-0.47454,1.26043 -1.92061,1.87782 -3.22992,1.37894c-1.30932,-0.49888 -1.98599,-1.9251 -1.51146,-3.18555z" fill="#000000" stroke-width="0"/></g><g><path d="M206.491,109.68132c1.81564,-4.82253 7.34844,-7.18461 12.35793,-5.27585c5.00948,1.90879 7.59858,7.36554 5.78293,12.18806c-1.81564,4.82253 -7.34849,7.18461 -12.35794,5.27584c-5.00948,-1.90879 -7.59856,-7.36551 -5.78293,-12.18805z" fill="#fdfff3" stroke-width="2"/><path d="M211.8962,110.6771c0.47454,-1.26043 1.92064,-1.8778 3.22995,-1.37892c1.30931,0.49888 1.98597,1.92509 1.51142,3.18551c-0.47454,1.26043 -1.92063,1.87778 -3.22991,1.37891c-1.30931,-0.49888 -1.98601,-1.92507 -1.51147,-3.18552z" fill="#000000" stroke-width="0"/></g></g></g></g></svg>