<svg version="1.1" xmlns="http://www.w3.org/2000/svg" xmlns:xlink="http://www.w3.org/1999/xlink" width="76.48739" height="73.76703" viewBox="0,0,76.48739,73.76703"><g transform="translate(-206.42298,-142.28315)"><g data-paper-data="{&quot;isPaintingLayer&quot;:true}" fill-rule="nonzero" stroke="#000000" stroke-width="1.2" stroke-linejoin="miter" stroke-miterlimit="10" stroke-dasharray="" stroke-dashoffset="0" style="mix-blend-mode: normal"><path d="M230.05911,202.82471c-6.12434,-2.30068 -10.20345,-6.52331 -9.11095,-9.43151c1.09251,-2.9082 6.94291,-3.4007 13.06725,-1.10003c6.12434,2.30068 10.20345,6.52332 9.11095,9.43151c-1.09251,2.9082 -6.94291,3.4007 -13.06725,1.10002z" data-paper-data="{&quot;index&quot;:null}" fill="#00c902" stroke-linecap="butt"/><path d="M243.28904,201.14696c-1.09251,-2.9082 2.98661,-7.13083 9.11095,-9.43151c6.12434,-2.30068 11.97474,-1.80818 13.06725,1.10003c1.09251,2.9082 -2.98661,7.13083 -9.11095,9.43151c-6.12434,2.30068 -11.97474,1.80818 -13.06725,-1.10002z" data-paper-data="{&quot;index&quot;:null}" fill="#00c902" stroke-linecap="butt"/><path d="M239.35327,203.07997l4.77192,-21.79496l5.48685,1.20132l-4.77192,21.79496z" fill="#00ff0e" stroke-linecap="butt"/><path d="M255.73358,177.09004c-0.05384,3.3158 -3.65955,5.94595 -8.05359,5.87461c-4.39404,-0.07134 -7.91247,-2.81716 -7.85863,-6.13297c0.05384,-3.3158 15.96605,-3.05745 15.91221,0.25835z" fill="#00c902" stroke-linecap="butt"/><path d="M243.16647,202.56728c1.28787,3.42826 -3.52069,8.406 -10.7402,11.11809c-7.21951,2.71209 -14.11611,2.13152 -15.40397,-1.29673c-1.28787,-3.42826 3.52069,-8.406 10.7402,-11.11809c7.21951,-2.71209 14.11611,-2.13152 15.40397,1.29673z" fill="#00c902" stroke-linecap="butt"/><path d="M258.85105,201.32749c7.21951,2.71209 12.02806,7.68983 10.7402,11.11808c-1.28786,3.42826 -8.18446,4.00883 -15.40397,1.29673c-7.21951,-2.71209 -12.02806,-7.68983 -10.7402,-11.11809c1.28787,-3.42826 8.18445,-4.00883 15.40397,-1.29673z" data-paper-data="{&quot;index&quot;:null}" fill="#00c902" stroke-linecap="butt"/><path d="M242.43879,202.0952l-14.97817,6.24091" fill="none" stroke-linecap="round"/><path d="M243.843,202.25122l15.60226,6.70897" fill="none" stroke-linecap="round"/><path d="M259.13322,194.45008l-12.63784,5.14875" fill="none" stroke-linecap="round"/><path d="M226.36846,194.6061l14.04204,4.99273" fill="none" stroke-linecap="round"/><path d="M227.1523,160.42469c0,-9.63833 9.97812,-17.45172 22.28676,-17.45172c12.30865,0 22.28676,7.8134 22.28676,17.45173c0,9.63833 -9.97812,17.45173 -22.28676,17.45173c-12.30865,0 -22.28675,-7.8134 -22.28675,-17.45172z" fill="#00ff0e" stroke-linecap="butt"/><g data-paper-data="{&quot;index&quot;:null}" stroke-linecap="butt"><path d="M248.84165,155.34092c2.65376,0 4.80507,1.60106 4.80507,3.57606c0,1.97501 -2.15131,3.57606 -4.80507,3.57606c-2.65376,0 -4.80507,-1.60106 -4.80507,-3.57606c0,-1.97501 2.15131,-3.57606 4.80507,-3.57606z" fill="#000000"/><path d="M250.07414,155.82872c1.49275,0 2.70284,0.9006 2.70284,2.01154c0,1.11094 -1.21011,2.01154 -2.70284,2.01154c-1.49275,0 -2.70285,-0.9006 -2.70285,-2.01154c0,-1.11094 1.21011,-2.01154 2.70285,-2.01154z" fill="#ffffff"/></g><g stroke-linecap="butt"><path d="M267.3516,161.0434c0,-8.8628 3.34863,-16.04753 7.47939,-16.04753c4.13075,0 7.47939,7.18472 7.47939,16.04753c0,8.8628 -3.34863,16.04752 -7.47939,16.04752c-4.13075,0 -7.47939,-7.18472 -7.47939,-16.04752z" fill="#00ff0e"/><path d="M269.76193,160.87214c0,-6.47953 2.28992,-11.73222 5.11468,-11.73222c2.82477,0 5.11468,5.25269 5.11468,11.73222c0,6.47953 -2.28992,11.73222 -5.11468,11.73222c-2.82477,0 -5.11468,-5.25269 -5.11468,-11.73222z" fill="#000000"/></g><path d="M220.52742,145.56095l1.85198,-1.83687l9.53949,5.89752l-1.85198,1.83686z" fill="#00c902" stroke-linecap="butt"/><path d="M219.79775,151.25159c-0.81724,1.24783 -3.83726,3.24613 -4.32825,4.34926c-1.33424,2.99773 0.74195,5.61383 0.43968,5.1978c-0.35012,-0.48187 -2.89112,-0.77402 -3.54227,-1.46339c-3.01073,-3.18729 -6.82117,-8.50685 -4.75685,-11.65876c3.03811,-4.63876 13.10038,-5.1785 14.52016,-4.60833c1.41979,0.57017 0.70564,3.54465 -2.33246,8.18341z" fill="#00c902" stroke-linecap="butt"/><g data-paper-data="{&quot;index&quot;:null}" stroke-linecap="butt"><path d="M259.51509,151.79511c2.41991,0 4.38165,1.32946 4.38165,2.96943c0,1.63998 -1.96173,2.96943 -4.38165,2.96943c-2.41991,0 -4.38165,-1.32946 -4.38165,-2.96943c0,-1.63998 1.96173,-2.96943 4.38165,-2.96943z" fill="#000000"/><path d="M260.63899,152.20016c1.36121,0 2.46467,0.74782 2.46467,1.6703c0,0.92248 -1.10347,1.6703 -2.46467,1.6703c-1.36121,0 -2.46468,-0.74782 -2.46468,-1.6703c0,-0.92248 1.10347,-1.6703 2.46468,-1.6703z" fill="#ffffff"/></g></g></g></svg>