<svg version="1.1" xmlns="http://www.w3.org/2000/svg" xmlns:xlink="http://www.w3.org/1999/xlink" width="47.36138" height="60.85198" viewBox="0,0,47.36138,60.85198"><g transform="translate(-216.26587,-149.52771)"><g data-paper-data="{&quot;isPaintingLayer&quot;:true}" fill-rule="nonzero" stroke="#000000" stroke-width="0.5" stroke-linejoin="miter" stroke-miterlimit="10" stroke-dasharray="" stroke-dashoffset="0" style="mix-blend-mode: normal"><path d="M237.10572,205.71702v-25.20887h4.40543v25.20887z" fill="#00c902" stroke-linecap="butt"/><path d="M219.0743,161.86628c0,0 5.47546,-2.90753 8.07683,-2.05602c2.60137,0.85151 4.07104,3.49441 3.28261,5.90309c-0.78844,2.40867 -3.53642,3.671 -6.13778,2.81949c-2.60137,-0.85151 -5.22165,-6.66656 -5.22165,-6.66656z" data-paper-data="{&quot;index&quot;:null}" fill="#fffc00" stroke-linecap="butt"/><path d="M219.69152,182.55882c0,0 1.51485,-6.01163 3.89096,-7.3704c2.37611,-1.35878 5.32224,-0.67675 6.58037,1.52336c1.25813,2.20011 0.35182,5.08515 -2.0243,6.44392c-2.37611,1.35878 -8.44704,-0.59688 -8.44704,-0.59688z" data-paper-data="{&quot;index&quot;:null}" fill="#fffc00" stroke-linecap="butt"/><path d="M216.62275,171.71067c0,0 4.00309,-4.73389 6.73461,-4.90993c2.73152,-0.17605 5.07799,1.73155 5.241,4.26073c0.16301,2.52918 -1.91918,4.72221 -4.6507,4.89825c-2.73152,0.17605 -7.32491,-4.24905 -7.32491,-4.24905z" data-paper-data="{&quot;index&quot;:null}" fill="#fffc00" stroke-linecap="butt"/><path d="M260.25696,181.23238c0,0 -5.66181,2.52553 -8.19872,1.49779c-2.53691,-1.02775 -3.82205,-3.76513 -2.87043,-6.11413c0.95162,-2.34899 3.77963,-3.42007 6.31654,-2.39233c2.53691,1.02775 4.75261,7.00866 4.75261,7.00866z" data-paper-data="{&quot;index&quot;:null}" fill="#fffc00" stroke-linecap="butt"/><path d="M261.05897,160.54619c0,0 -1.92318,5.89371 -4.38681,7.08649c-2.46363,1.19278 -5.35611,0.31049 -6.46053,-1.97065c-1.10443,-2.28114 -0.00257,-5.0973 2.46105,-6.29008c2.46363,-1.19278 8.38629,1.17424 8.38629,1.17424z" data-paper-data="{&quot;index&quot;:null}" fill="#fffc00" stroke-linecap="butt"/><path d="M263.37725,171.5791c0,0 -4.31803,4.44848 -7.05519,4.43696c-2.73716,-0.01152 -4.94742,-2.0754 -4.93675,-4.60981c0.01067,-2.53441 2.23822,-4.57961 4.97538,-4.56809c2.73716,0.01152 7.01656,4.74094 7.01656,4.74094z" data-paper-data="{&quot;index&quot;:null}" fill="#fffc00" stroke-linecap="butt"/><path d="M229.90299,189.82353c0,0 -2.54934,-5.65113 -1.53229,-8.19234c1.01706,-2.54121 3.74901,-3.83786 6.10199,-2.89614c2.35298,0.94172 3.43595,3.7652 2.41889,6.30642c-1.01706,2.54121 -6.9886,4.78207 -6.9886,4.78207z" data-paper-data="{&quot;index&quot;:null}" fill="#fffc00" stroke-linecap="butt"/><path d="M250.59238,190.53845c0,0 -5.90175,-1.89836 -7.10489,-4.35694c-1.20314,-2.45858 -0.33303,-5.35475 1.94343,-6.46877c2.27647,-1.11402 5.09725,-0.02403 6.30038,2.43456c1.20314,2.45858 -1.13893,8.39116 -1.13893,8.39116z" data-paper-data="{&quot;index&quot;:null}" fill="#fffc00" stroke-linecap="butt"/><path d="M239.56932,192.90315c0,0 -4.46662,-4.29927 -4.46662,-7.03646c0,-2.73718 2.05456,-4.95611 4.58899,-4.95611c2.53443,0 4.58899,2.21893 4.58899,4.95611c0,2.73718 -4.71137,7.03646 -4.71137,7.03646z" data-paper-data="{&quot;index&quot;:null}" fill="#fffc00" stroke-linecap="butt"/><path d="M236.72455,157.73202c1.01706,2.54121 -0.06591,5.36469 -2.41889,6.30641c-2.35298,0.94172 -5.08493,-0.35493 -6.10199,-2.89614c-1.01706,-2.54121 1.53229,-8.19235 1.53229,-8.19235c0,0 5.97154,2.24086 6.9886,4.78207z" fill="#fffc00" stroke-linecap="butt"/><path d="M251.56427,160.62617c-1.20314,2.45859 -4.02392,3.54857 -6.30039,2.43456c-2.27647,-1.11402 -3.14657,-4.01018 -1.94343,-6.46877c1.20314,-2.45859 7.10489,-4.35694 7.10489,-4.35694c0,0 2.34207,5.93257 1.13893,8.39116z" fill="#fffc00" stroke-linecap="butt"/><path d="M244.11364,156.90677c0,2.73718 -2.05456,4.95611 -4.58899,4.95611c-2.53443,0 -4.58899,-2.21893 -4.58899,-4.95611c0,-2.73718 4.46662,-7.03646 4.46662,-7.03646c0,0 4.71137,4.29927 4.71137,7.03646z" fill="#fffc00" stroke-linecap="butt"/><path d="M254.89103,172.06075c0,6.62331 -6.89973,11.25833 -14.80715,11.25833c-7.90742,0 -14.80715,-4.63502 -14.80715,-11.25833c0,-6.62331 6.89973,-12.60443 14.80715,-12.60443c7.90742,0 14.80715,5.98112 14.80715,12.60443z" fill="#efa900" stroke-linecap="butt"/><path d="M249.74281,175.69105c0,0 -6.79392,3.54882 -10.27935,3.54882c-3.3631,0 -10.27935,-3.54882 -10.27935,-3.54882" fill="none" stroke-linecap="round"/><g data-paper-data="{&quot;index&quot;:null}" stroke-linecap="butt"><path d="M235.91157,164.97797c1.50905,0 2.73239,1.62327 2.73239,3.62567c0,2.0024 -1.22333,3.62567 -2.73239,3.62567c-1.50905,0 -2.73239,-1.62327 -2.73239,-3.62567c0,-2.0024 1.22333,-3.62567 2.73239,-3.62567z" fill="#000000"/><path d="M236.61243,165.47254c0.84885,0 1.53696,0.91309 1.53696,2.03944c0,1.12635 -0.68812,2.03944 -1.53696,2.03944c-0.84885,0 -1.53697,-0.91309 -1.53697,-2.03944c0,-1.12635 0.68812,-2.03944 1.53697,-2.03944z" fill="#ffffff"/></g><g data-paper-data="{&quot;index&quot;:null}" stroke-linecap="butt"><path d="M243.78812,164.77789c1.50905,0 2.73239,1.62327 2.73239,3.62567c0,2.0024 -1.22333,3.62567 -2.73239,3.62567c-1.50905,0 -2.73239,-1.62327 -2.73239,-3.62567c0,-2.0024 1.22333,-3.62567 2.73239,-3.62567z" fill="#000000"/><path d="M244.48897,165.27246c0.84885,0 1.53696,0.91309 1.53696,2.03944c0,1.12635 -0.68812,2.03944 -1.53696,2.03944c-0.84885,0 -1.53697,-0.91309 -1.53697,-2.03944c0,-1.12635 0.68812,-2.03944 1.53697,-2.03944z" fill="#ffffff"/></g><path d="M228.13915,208.81639c-5.55155,-2.0855 -9.24915,-5.9132 -8.25883,-8.54941c0.99033,-2.63621 6.29356,-3.08265 11.8451,-0.99715c5.55155,2.0855 9.24915,5.91321 8.25883,8.54941c-0.99033,2.63621 -6.29356,3.08265 -11.8451,0.99714z" data-paper-data="{&quot;index&quot;:null}" fill="#00c902" stroke-linecap="butt"/><path d="M240.13172,207.29556c-0.99033,-2.63621 2.70728,-6.46391 8.25883,-8.54941c5.55155,-2.0855 10.85478,-1.63906 11.8451,0.99715c0.99033,2.63621 -2.70728,6.46391 -8.25883,8.54941c-5.55155,2.0855 -10.85478,1.63907 -11.8451,-0.99714z" data-paper-data="{&quot;index&quot;:null}" fill="#00c902" stroke-linecap="butt"/></g></g></svg>