<svg version="1.1" xmlns="http://www.w3.org/2000/svg" xmlns:xlink="http://www.w3.org/1999/xlink" width="504.31365" height="360.3688" viewBox="0,0,504.31365,360.3688"><g transform="translate(12.39392,0.17986)"><g data-paper-data="{&quot;isPaintingLayer&quot;:true}" fill-rule="nonzero" stroke-linecap="butt" stroke-linejoin="miter" stroke-miterlimit="10" stroke-dasharray="" stroke-dashoffset="0" style="mix-blend-mode: normal"><path d="M-10.9143,350.01164l31.6031,-74.69607c0,0 -31.6031,-62.35935 -31.6031,-85.90912c0,-23.36583 25.55083,-89.42789 25.55083,-89.42789l-25.55083,-96.72813l37.1542,1.70026l33.11057,25.67562l9.08263,-23.82244l43.75338,0.49768l52.39104,1.57941l12.77377,31.52649l20.69721,-39.58224l291.10335,2.42523l1.76246,138.48558l-41.91376,40.3702l40.98876,47.46947l-0.83746,120.43595l-209.26259,8.16416l-41.68301,-35.54005l-56.40934,36.53905z" fill="#ffe187" stroke="#000000" stroke-width="2"/><text transform="translate(54.5,62.26118) scale(0.56533,0.56533)" font-size="40" xml:space="preserve" fill="#000000" fill-rule="nonzero" stroke="none" stroke-width="1" stroke-linecap="butt" stroke-linejoin="miter" stroke-miterlimit="10" stroke-dasharray="" stroke-dashoffset="0" font-family="Handwriting" font-weight="normal" text-anchor="start" style="mix-blend-mode: normal"><tspan x="0" dy="0">Ok ok ok,  no mor eatin bRaInZ FoR Uz</tspan><tspan x="0" dy="46.15px"> </tspan><tspan x="0" dy="46.15px">So u win, until next time player</tspan><tspan x="0" dy="46.15px"> </tspan><tspan x="0" dy="46.15px"> </tspan><tspan x="0" dy="46.15px"> </tspan><tspan x="0" dy="46.15px"> </tspan><tspan x="0" dy="46.15px"> </tspan><tspan x="0" dy="46.15px"> </tspan><tspan x="0" dy="46.15px"> </tspan><tspan x="0" dy="46.15px">Sincerely, The Zombiez.</tspan></text></g></g></svg>